SplineFontDB: 3.0
FontName: Rokkitt
FullName: Rokkitt
FamilyName: Rokkitt
Weight: Book
Copyright: Copyright (c) 2011 by vernon adams. All rights reserved. with\nReserved Font Names "Tienne" and "Tienne Regular". This\nFont Software is licensed under the SIL Open Font License, Version\n1.1. This license is available with a FAQ at:\nhttp://scripts.sil.org/OFL
Version: 1.000
ItalicAngle: 0
UnderlinePosition: -103
UnderlineWidth: 102
Ascent: 1638
Descent: 410
sfntRevision: 0x00010000
LayerCount: 2
Layer: 0 1 "Back"  1
Layer: 1 1 "Fore"  0
NeedsXUIDChange: 1
XUID: [1021 118 1023546858 3479185]
FSType: 256
OS2Version: 3
OS2_WeightWidthSlopeOnly: 0
OS2_UseTypoMetrics: 1
CreationTime: 1311364058
ModificationTime: 1318459167
PfmFamily: 17
TTFWeight: 400
TTFWidth: 5
LineGap: 0
VLineGap: 0
Panose: 2 0 5 3 5 0 0 2 0 3
OS2TypoAscent: 1650
OS2TypoAOffset: 0
OS2TypoDescent: -433
OS2TypoDOffset: 0
OS2TypoLinegap: 0
OS2WinAscent: 1650
OS2WinAOffset: 0
OS2WinDescent: 433
OS2WinDOffset: 0
HheadAscent: 1650
HheadAOffset: 0
HheadDescent: -433
HheadDOffset: 0
OS2SubXSize: 2757
OS2SubYSize: 2546
OS2SubXOff: 0
OS2SubYOff: 356
OS2SupXSize: 2757
OS2SupYSize: 2546
OS2SupXOff: 0
OS2SupYOff: 1548
OS2StrikeYSize: 209
OS2StrikeYPos: 1049
OS2Vendor: 'newt'
OS2CodePages: 00000001.00000000
OS2UnicodeRanges: 800000ef.4000204b.00000000.00000000
MarkAttachClasses: 1
DEI: 91125
ShortTable: maxp 16
  1
  0
  328
  65
  5
  64
  4
  1
  0
  0
  0
  0
  0
  0
  2
  1
EndShort
LangName: 1033 "" "" "Regular" "vernonadams: Rokkitt: 2011" "" "Version 1.000" "" "Rokkitt is a trademark of vernon adams." "vernon adams" "vernon adams" "Copyright (c) 2011 by vernon adams. All rights reserved. with+AA0A-Reserved Font Names +ACIA-Tienne+ACIA and +ACIA-Tienne Regular+ACIA. This+AA0A-Font Software is licensed under the SIL Open Font License, Version+AA0A-1.1. This license is available with a FAQ at:+AA0A-http://scripts.sil.org/OFL" "" "" "" "http://scripts.sil.org/OFL" "" "" "" "Rokkitt" 
GaspTable: 1 65535 3 0

StartChar: exclam
Encoding: 33 33 23
Width: 493
VWidth: 2088
Flags: W
LayerCount: 2
Fore
SplineSet
157 872 m 1,0,-1
 157 1242 l 1,1,-1
 338 1242 l 1,2,-1
 338 872 l 1,3,-1
 294 343 l 1,4,-1
 201 343 l 1,5,-1
 157 872 l 1,0,-1
134 224 m 1,6,-1
 361 224 l 1,7,-1
 361 0 l 1,8,-1
 134 0 l 1,9,-1
 134 224 l 1,6,-1
EndSplineSet
EndChar

StartChar: quotedbl
Encoding: 34 34 24
Width: 704
VWidth: 2088
Flags: W
LayerCount: 2
Fore
SplineSet
591 802 m 1,0,-1
 452 802 l 1,1,-1
 405 1242 l 1,2,-1
 635 1242 l 1,3,-1
 591 802 l 1,0,-1
247 802 m 1,4,-1
 110 802 l 1,5,-1
 63 1242 l 1,6,-1
 293 1242 l 1,7,-1
 247 802 l 1,4,-1
EndSplineSet
EndChar

StartChar: numbersign
Encoding: 35 35 25
Width: 1257
VWidth: 2088
Flags: W
LayerCount: 2
Fore
SplineSet
249 0 m 1,0,-1
 285 352 l 1,1,-1
 96 352 l 1,2,-1
 108 470 l 1,3,-1
 301 470 l 1,4,-1
 336 778 l 1,5,-1
 116 778 l 1,6,-1
 129 896 l 1,7,-1
 352 896 l 1,8,-1
 390 1242 l 1,9,-1
 520 1242 l 1,10,-1
 484 896 l 1,11,-1
 828 896 l 1,12,-1
 870 1242 l 1,13,-1
 1000 1242 l 1,14,-1
 960 896 l 1,15,-1
 1169 896 l 1,16,-1
 1156 778 l 1,17,-1
 943 778 l 1,18,-1
 912 470 l 1,19,-1
 1147 470 l 1,20,-1
 1135 352 l 1,21,-1
 896 352 l 1,22,-1
 857 0 l 1,23,-1
 730 0 l 1,24,-1
 763 352 l 1,25,-1
 416 352 l 1,26,-1
 379 0 l 1,27,-1
 249 0 l 1,0,-1
432 470 m 1,28,-1
 780 470 l 1,29,-1
 812 778 l 1,30,-1
 467 778 l 1,31,-1
 432 470 l 1,28,-1
EndSplineSet
EndChar

StartChar: dollar
Encoding: 36 36 26
Width: 996
VWidth: 2088
Flags: W
LayerCount: 2
Fore
SplineSet
576 702 m 1,0,1
 966 619 966 619 965 324 c 0,2,3
 965 180 965 180 855.5 83 c 128,-1,4
 746 -14 746 -14 576 -18 c 1,5,-1
 576 -152 l 1,6,-1
 435 -152 l 1,7,-1
 435 -4 l 1,8,9
 330 19 330 19 244 92 c 1,10,-1
 244 0 l 1,11,-1
 102 0 l 1,12,-1
 102 410 l 1,13,-1
 244 410 l 1,14,-1
 244 288 l 1,15,16
 325 177 325 177 435 140 c 1,17,-1
 435 565 l 1,18,19
 272 601 272 601 183 677 c 128,-1,20
 94 753 94 753 94 905.5 c 128,-1,21
 94 1058 94 1058 189 1143.5 c 128,-1,22
 284 1229 284 1229 435 1240 c 1,23,-1
 435 1385 l 1,24,-1
 576 1385 l 1,25,-1
 576 1231 l 1,26,27
 675 1208 675 1208 756 1144 c 1,28,-1
 756 1223 l 1,29,-1
 900 1223 l 1,30,-1
 900 877 l 1,31,-1
 756 877 l 1,32,-1
 756 963 l 1,33,34
 679 1068 679 1068 576 1090 c 1,35,-1
 576 702 l 1,0,1
720 466 m 0,36,37
 682 499 682 499 576 529 c 1,38,-1
 576 124 l 1,39,40
 724 133 724 133 776.5 253 c 128,-1,41
 829 373 829 373 720 466 c 0,36,37
435 1093 m 1,42,43
 258 1067 258 1067 260 915 c 0,44,45
 260 790 260 790 435 737 c 1,46,-1
 435 1093 l 1,42,43
EndSplineSet
EndChar

StartChar: percent
Encoding: 37 37 27
Width: 1674
VWidth: 2088
Flags: W
LayerCount: 2
Fore
SplineSet
345 591 m 0,0,1
 69 591 69 591 71 952 c 0,2,3
 71 1076 71 1076 151.5 1158.5 c 128,-1,4
 232 1241 232 1241 345 1241 c 128,-1,5
 458 1241 458 1241 539.5 1159.5 c 128,-1,6
 621 1078 621 1078 621 915.5 c 128,-1,7
 621 753 621 753 540 672 c 128,-1,8
 459 591 459 591 345 591 c 0,0,1
345 700 m 0,9,10
 473 700 473 700 475 942 c 0,11,12
 475 1078 475 1078 393 1118 c 0,13,14
 345 1140 345 1140 310 1124 c 0,15,16
 217 1081 217 1081 217.5 916.5 c 128,-1,17
 218 752 218 752 299 712 c 0,18,19
 322 700 322 700 345 700 c 0,9,10
1298 1269 m 1,20,-1
 1361 1216 l 1,21,-1
 363 -54 l 1,22,-1
 290 0 l 1,23,-1
 1298 1269 l 1,20,-1
1531 548.5 m 128,-1,25
 1613 467 1613 467 1613 304.5 c 128,-1,26
 1613 142 1613 142 1532 61 c 128,-1,27
 1451 -20 1451 -20 1335 -20 c 0,28,29
 1062 -20 1062 -20 1059 341 c 0,30,31
 1058 465 1058 465 1139.5 547.5 c 128,-1,32
 1221 630 1221 630 1335 630 c 256,33,24
 1449 630 1449 630 1531 548.5 c 128,-1,25
1334 89 m 0,34,35
 1463 90 1463 90 1463 332 c 0,36,37
 1463 468 1463 468 1383 507 c 0,38,39
 1335 529 1335 529 1300 513 c 0,40,41
 1208 470 1208 470 1208 305.5 c 128,-1,42
 1208 141 1208 141 1289 101 c 0,43,44
 1311 89 1311 89 1334 89 c 0,34,35
EndSplineSet
EndChar

StartChar: ampersand
Encoding: 38 38 28
Width: 1273
VWidth: 2088
Flags: W
LayerCount: 2
Fore
SplineSet
863 987 m 0,0,1
 863 773 863 773 601 659 c 1,2,-1
 854 351 l 1,3,4
 935 461 935 461 970 618 c 1,5,-1
 1213 618 l 1,6,-1
 1213 484 l 1,7,-1
 1077 484 l 1,8,9
 1023 323 1023 323 939 236 c 1,10,-1
 1017 132 l 1,11,-1
 1213 132 l 1,12,-1
 1213 0 l 1,13,-1
 936 0 l 1,14,-1
 845 122 l 1,15,16
 667 -20 667 -20 483.5 -20 c 128,-1,17
 300 -20 300 -20 180 84.5 c 128,-1,18
 60 189 60 189 60 344 c 0,19,20
 60 591 60 591 384 711 c 1,21,22
 261 870 261 870 261 979 c 128,-1,23
 261 1088 261 1088 349.5 1165 c 128,-1,24
 438 1242 438 1242 564.5 1242.5 c 128,-1,25
 691 1243 691 1243 777 1169.5 c 128,-1,26
 863 1096 863 1096 863 987 c 0,0,1
466 608 m 1,27,28
 224 523 224 523 222 355 c 0,29,30
 222 261 222 261 300 192 c 128,-1,31
 378 123 378 123 510.5 123 c 128,-1,32
 643 123 643 123 764 232 c 1,33,-1
 466 608 l 1,27,28
524 764 m 1,34,35
 720 866 720 866 720 987.5 c 128,-1,36
 720 1109 720 1109 565 1109 c 0,37,38
 496 1109 496 1109 452 1076.5 c 128,-1,39
 408 1044 408 1044 408 991.5 c 128,-1,40
 408 939 408 939 437 890 c 128,-1,41
 466 841 466 841 524 764 c 1,34,35
EndSplineSet
EndChar

StartChar: quotesingle
Encoding: 39 39 29
Width: 356
VWidth: 2088
Flags: W
LayerCount: 2
Fore
SplineSet
258 802 m 1,0,-1
 118 802 l 1,1,-1
 72 1242 l 1,2,-1
 301 1242 l 1,3,-1
 258 802 l 1,0,-1
EndSplineSet
EndChar

StartChar: parenleft
Encoding: 40 40 30
Width: 553
VWidth: 2088
Flags: W
LayerCount: 2
Fore
SplineSet
505 1100 m 1,0,1
 207 922 207 922 207 547 c 128,-1,2
 207 172 207 172 505 -1 c 1,3,-1
 505 -139 l 1,4,5
 179 -6 179 -6 74 303 c 0,6,7
 37 414 37 414 35 549 c 0,8,9
 35 804 35 804 164 975.5 c 128,-1,10
 293 1147 293 1147 505 1236 c 1,11,-1
 505 1100 l 1,0,1
EndSplineSet
EndChar

StartChar: parenright
Encoding: 41 41 31
Width: 553
VWidth: 2088
Flags: W
LayerCount: 2
Fore
SplineSet
35 -1 m 1,0,1
 334 172 334 172 334 547 c 128,-1,2
 334 922 334 922 35 1100 c 1,3,-1
 35 1236 l 1,4,5
 364 1099 364 1099 469 795 c 0,6,7
 505 686 505 686 505 549 c 0,8,9
 505 291 505 291 375 118 c 128,-1,10
 245 -55 245 -55 35 -139 c 1,11,-1
 35 -1 l 1,0,1
EndSplineSet
EndChar

StartChar: asterisk
Encoding: 42 42 32
Width: 971
VWidth: 2088
Flags: W
LayerCount: 2
Fore
SplineSet
299 373 m 1,0,-1
 149 478 l 1,1,-1
 250 617 l 1,2,-1
 435 774 l 1,3,-1
 194 789 l 1,4,-1
 33 845 l 1,5,-1
 87 1018 l 1,6,-1
 250 964 l 1,7,-1
 464 830 l 1,8,-1
 402 1076 l 1,9,-1
 402 1242 l 1,10,-1
 582 1242 l 1,11,-1
 582 1076 l 1,12,-1
 518 830 l 1,13,-1
 730 964 l 1,14,-1
 896 1018 l 1,15,-1
 948 845 l 1,16,-1
 790 789 l 1,17,-1
 546 774 l 1,18,-1
 730 617 l 1,19,-1
 830 478 l 1,20,-1
 684 373 l 1,21,-1
 582 512 l 1,22,-1
 492 740 l 1,23,-1
 402 512 l 1,24,-1
 299 373 l 1,0,-1
EndSplineSet
EndChar

StartChar: plus
Encoding: 43 43 33
Width: 1109
VWidth: 2088
Flags: W
LayerCount: 2
Fore
SplineSet
620 638 m 1,0,-1
 1050 638 l 1,1,-1
 1050 514 l 1,2,-1
 620 514 l 1,3,-1
 620 99 l 1,4,-1
 489 99 l 1,5,-1
 489 514 l 1,6,-1
 61 514 l 1,7,-1
 61 638 l 1,8,-1
 489 638 l 1,9,-1
 489 1054 l 1,10,-1
 620 1054 l 1,11,-1
 620 638 l 1,0,-1
EndSplineSet
EndChar

StartChar: comma
Encoding: 44 44 34
Width: 439
VWidth: 2088
Flags: W
LayerCount: 2
Fore
SplineSet
332 223 m 1,0,-1
 332 0 l 1,1,2
 333 -191 333 -191 206 -235 c 0,3,4
 160 -252 160 -252 91 -250 c 1,5,-1
 91 -160 l 1,6,7
 165 -145 165 -145 192 -110 c 128,-1,8
 219 -75 219 -75 219 0 c 1,9,-1
 91 0 l 1,10,-1
 91 223 l 1,11,-1
 332 223 l 1,0,-1
EndSplineSet
EndChar

StartChar: hyphen
Encoding: 45 45 35
Width: 762
VWidth: 2088
Flags: W
LayerCount: 2
Fore
SplineSet
107 513 m 1,0,-1
 655 513 l 1,1,-1
 655 362 l 1,2,-1
 107 362 l 1,3,-1
 107 513 l 1,0,-1
EndSplineSet
EndChar

StartChar: period
Encoding: 46 46 36
Width: 439
VWidth: 2088
Flags: W
LayerCount: 2
Fore
SplineSet
332 223 m 1,0,-1
 332 0 l 1,1,-1
 91 0 l 1,2,-1
 91 223 l 1,3,-1
 332 223 l 1,0,-1
EndSplineSet
EndChar

StartChar: slash
Encoding: 47 47 37
Width: 841
VWidth: 2088
Flags: W
LayerCount: 2
Fore
SplineSet
598 1242 m 1,0,-1
 734 1242 l 1,1,-1
 274 -19 l 1,2,-1
 136 -19 l 1,3,-1
 598 1242 l 1,0,-1
EndSplineSet
EndChar

StartChar: zero
Encoding: 48 48 38
Width: 1064
VWidth: 2088
Flags: W
LayerCount: 2
Fore
SplineSet
727 26 m 0,0,1
 644 -19 644 -19 532 -19 c 0,2,3
 314 -19 314 -19 203 149.5 c 128,-1,4
 92 318 92 318 92 612 c 0,5,6
 92 1061 92 1061 336 1197 c 0,7,8
 420 1242 420 1242 532 1242 c 0,9,10
 751 1242 751 1242 862.5 1073.5 c 128,-1,11
 974 905 974 905 974 612 c 0,12,13
 971 159 971 159 727 26 c 0,0,1
257 611 m 0,14,15
 257 235 257 235 400 141 c 1,16,17
 455 108 455 108 528 107 c 1,18,19
 676 107 676 107 743.5 226.5 c 128,-1,20
 811 346 811 346 810.5 610 c 128,-1,21
 810 874 810 874 743 994.5 c 128,-1,22
 676 1115 676 1115 531 1115 c 0,23,24
 313 1115 313 1115 270 821 c 0,25,26
 257 727 257 727 257 611 c 0,14,15
EndSplineSet
EndChar

StartChar: one
Encoding: 49 49 39
Width: 619
VWidth: 2088
Flags: W
LayerCount: 2
Fore
SplineSet
567 123 m 1,0,-1
 567 0 l 1,1,-1
 70 0 l 1,2,-1
 70 123 l 1,3,-1
 244 123 l 1,4,-1
 244 1100 l 1,5,-1
 61 1100 l 1,6,-1
 61 1223 l 1,7,-1
 403 1223 l 1,8,-1
 403 123 l 1,9,-1
 567 123 l 1,0,-1
EndSplineSet
EndChar

StartChar: two
Encoding: 50 50 40
Width: 991
VWidth: 2088
Flags: W
LayerCount: 2
Fore
SplineSet
66 0 m 1,0,1
 66 274 66 274 291 470 c 0,2,3
 338 510 338 510 465.5 602.5 c 128,-1,4
 593 695 593 695 650 761 c 128,-1,5
 707 827 707 827 707 912.5 c 128,-1,6
 707 998 707 998 651.5 1049 c 128,-1,7
 596 1100 596 1100 476 1101 c 128,-1,8
 356 1102 356 1102 304 1029 c 128,-1,9
 252 956 252 956 254 790 c 1,10,-1
 101 790 l 1,11,12
 101 1022 101 1022 196 1132 c 128,-1,13
 291 1242 291 1242 490.5 1242 c 128,-1,14
 690 1242 690 1242 786.5 1142 c 128,-1,15
 883 1042 883 1042 883 889.5 c 128,-1,16
 883 737 883 737 711 595 c 0,17,18
 654 550 654 550 541 467 c 128,-1,19
 428 384 428 384 346 307 c 128,-1,20
 264 230 264 230 241 123 c 1,21,-1
 742 123 l 1,22,-1
 742 401 l 1,23,-1
 878 401 l 1,24,-1
 878 0 l 1,25,-1
 66 0 l 1,0,1
EndSplineSet
EndChar

StartChar: three
Encoding: 51 51 41
Width: 1010
VWidth: 2088
Flags: W
LayerCount: 2
Fore
SplineSet
710 891 m 0,0,1
 710 1103 710 1103 482.5 1101 c 128,-1,2
 255 1099 255 1099 240 904 c 1,3,-1
 84 905 l 1,4,5
 94 1145 94 1145 310 1218 c 0,6,7
 382 1241 382 1241 476 1241 c 0,8,9
 662 1242 662 1242 768 1155.5 c 128,-1,10
 874 1069 874 1069 874 917 c 0,11,12
 874 698 874 698 667 638 c 1,13,14
 854 604 854 604 906 448 c 1,15,16
 950 323 950 323 905 227 c 0,17,18
 788 -18 788 -18 477 -19 c 0,19,20
 277 -20 277 -20 166 79 c 128,-1,21
 55 178 55 178 55 368 c 1,22,-1
 210 368 l 1,23,24
 231 125 231 125 471 123 c 0,25,26
 752 123 752 123 750 347 c 0,27,28
 750 563 750 563 364 565 c 1,29,-1
 364 705 l 1,30,31
 553 705 553 705 608 734 c 0,32,33
 710 786 710 786 710 891 c 0,0,1
EndSplineSet
EndChar

StartChar: four
Encoding: 52 52 42
Width: 928
VWidth: 2088
Flags: W
LayerCount: 2
Fore
SplineSet
821 123 m 1,0,-1
 821 0 l 1,1,-1
 338 0 l 1,2,-1
 338 123 l 1,3,-1
 512 123 l 1,4,-1
 512 334 l 1,5,-1
 25 334 l 1,6,-1
 25 463 l 1,7,-1
 516 1223 l 1,8,-1
 663 1223 l 1,9,-1
 663 463 l 1,10,-1
 865 463 l 1,11,-1
 865 334 l 1,12,-1
 663 334 l 1,13,-1
 663 123 l 1,14,-1
 821 123 l 1,0,-1
512 463 m 1,15,-1
 512 1005 l 1,16,-1
 179 463 l 1,17,-1
 512 463 l 1,15,-1
EndSplineSet
EndChar

StartChar: five
Encoding: 53 53 43
Width: 1003
VWidth: 2088
Flags: W
LayerCount: 2
Fore
SplineSet
248 349 m 1,0,1
 290 115 290 115 511 115 c 0,2,3
 625 115 625 115 691.5 190.5 c 128,-1,4
 758 266 758 266 757 392 c 128,-1,5
 756 518 756 518 687.5 590.5 c 128,-1,6
 619 663 619 663 496 663 c 0,7,8
 372 663 372 663 252 542 c 1,9,-1
 165 591 l 1,10,-1
 165 1223 l 1,11,-1
 848 1223 l 1,12,-1
 848 973 l 1,13,-1
 702 973 l 1,14,-1
 702 1100 l 1,15,-1
 300 1100 l 1,16,17
 290 975 290 975 270 691 c 1,18,19
 356 811 356 811 533.5 811 c 128,-1,20
 711 811 711 811 819 692.5 c 128,-1,21
 927 574 927 574 926 391 c 128,-1,22
 925 208 925 208 817 94.5 c 128,-1,23
 709 -19 709 -19 514 -19 c 128,-1,24
 319 -19 319 -19 214.5 78 c 128,-1,25
 110 175 110 175 98 348 c 1,26,-1
 248 349 l 1,0,1
EndSplineSet
EndChar

StartChar: six
Encoding: 54 54 44
Width: 1003
VWidth: 2088
Flags: W
LayerCount: 2
Fore
SplineSet
258 539 m 1,0,1
 287 123 287 123 517 123 c 0,2,3
 639 123 639 123 703 196 c 128,-1,4
 767 269 767 269 767 384 c 0,5,6
 767 555 767 555 634 610 c 0,7,8
 592 628 592 628 534 628 c 128,-1,9
 476 628 476 628 394.5 604 c 128,-1,10
 313 580 313 580 258 539 c 1,0,1
249 679 m 1,11,12
 358 768 358 768 538.5 767.5 c 128,-1,13
 719 767 719 767 819.5 660.5 c 128,-1,14
 920 554 920 554 920 384 c 128,-1,15
 920 214 920 214 815 97.5 c 128,-1,16
 710 -19 710 -19 528 -19 c 0,17,18
 206 -19 206 -19 118 341 c 0,19,20
 91 457 91 457 91 605 c 0,21,22
 90 904 90 904 200.5 1073.5 c 128,-1,23
 311 1243 311 1243 501.5 1242.5 c 128,-1,24
 692 1242 692 1242 793.5 1147 c 128,-1,25
 895 1052 895 1052 899 900 c 1,26,-1
 752 900 l 1,27,28
 742 992 742 992 681 1050.5 c 128,-1,29
 620 1109 620 1109 546 1109 c 0,30,31
 404 1109 404 1109 326 998 c 1,32,33
 249 885 249 885 249 679 c 1,11,12
EndSplineSet
EndChar

StartChar: seven
Encoding: 55 55 45
Width: 868
VWidth: 2088
Flags: W
LayerCount: 2
Fore
SplineSet
671 0 m 1,0,-1
 128 0 l 1,1,-1
 128 123 l 1,2,-1
 311 123 l 1,3,4
 311 551 311 551 532 905 c 0,5,6
 601 1013 601 1013 681 1099 c 1,7,-1
 200 1099 l 1,8,-1
 200 912 l 1,9,-1
 55 912 l 1,10,-1
 55 1223 l 1,11,-1
 857 1223 l 1,12,-1
 857 1088 l 1,13,14
 476 702 476 702 478 123 c 1,15,-1
 671 123 l 1,16,-1
 671 0 l 1,0,-1
EndSplineSet
EndChar

StartChar: eight
Encoding: 56 56 46
Width: 1067
VWidth: 2088
Flags: W
LayerCount: 2
Fore
SplineSet
81 334 m 0,0,1
 81 573 81 573 321 635 c 1,2,3
 115 713 115 713 115 920 c 0,4,5
 115 1062 115 1062 227.5 1151.5 c 128,-1,6
 340 1241 340 1241 529 1241 c 128,-1,7
 718 1241 718 1241 830.5 1152 c 128,-1,8
 943 1063 943 1063 943 920 c 0,9,10
 943 714 943 714 737 635 c 1,11,12
 858 604 858 604 919 523 c 1,13,14
 979 441 979 441 979 347 c 0,15,16
 979 174 979 174 855 77.5 c 128,-1,17
 731 -19 731 -19 528.5 -19 c 128,-1,18
 326 -19 326 -19 203.5 77.5 c 128,-1,19
 81 174 81 174 81 334 c 0,0,1
529 566 m 256,20,21
 393 566 393 566 325 506 c 128,-1,22
 257 446 257 446 257 345.5 c 128,-1,23
 257 245 257 245 332 184 c 128,-1,24
 407 123 407 123 529 123 c 256,25,26
 651 123 651 123 727 184 c 128,-1,27
 803 245 803 245 803 345.5 c 128,-1,28
 803 446 803 446 734 506 c 128,-1,29
 665 566 665 566 529 566 c 256,20,21
713.5 1048.5 m 128,-1,31
 647 1100 647 1100 528.5 1100 c 128,-1,32
 410 1100 410 1100 345 1048.5 c 128,-1,33
 280 997 280 997 280.5 908 c 128,-1,34
 281 819 281 819 350 763 c 128,-1,35
 419 707 419 707 529 699 c 1,36,37
 700 709 700 709 761 825 c 0,38,39
 779 860 779 860 779.5 928.5 c 128,-1,30
 780 997 780 997 713.5 1048.5 c 128,-1,31
EndSplineSet
EndChar

StartChar: nine
Encoding: 57 57 47
Width: 1005
VWidth: 2088
Flags: W
LayerCount: 2
Fore
SplineSet
745 736 m 1,0,1
 719 1011 719 1011 592 1077 c 0,2,3
 547 1099 547 1099 456 1099 c 128,-1,4
 365 1099 365 1099 300.5 1026.5 c 128,-1,5
 236 954 236 954 236 817 c 128,-1,6
 236 680 236 680 354 631.5 c 128,-1,7
 472 583 472 583 581 628 c 128,-1,8
 690 673 690 673 745 736 c 1,0,1
751 567 m 1,9,10
 641 457 641 457 462.5 456.5 c 128,-1,11
 284 456 284 456 183.5 562 c 128,-1,12
 83 668 83 668 83 839.5 c 128,-1,13
 83 1011 83 1011 187.5 1126.5 c 128,-1,14
 292 1242 292 1242 491.5 1242 c 128,-1,15
 691 1242 691 1242 801.5 1081 c 128,-1,16
 912 920 912 920 912 617 c 0,17,18
 912 159 912 159 669 25 c 0,19,20
 586 -19 586 -19 489 -19 c 0,21,22
 311 -19 311 -19 209.5 76 c 128,-1,23
 108 171 108 171 104 323 c 1,24,-1
 248 323 l 1,25,26
 262 234 262 234 328 179 c 1,27,28
 419 130 419 130 470 123 c 1,29,30
 751 125 751 125 751 567 c 1,9,10
EndSplineSet
EndChar

StartChar: colon
Encoding: 58 58 48
Width: 439
VWidth: 2088
Flags: W
LayerCount: 2
Fore
SplineSet
339 223 m 1,0,-1
 339 0 l 1,1,-1
 99 0 l 1,2,-1
 99 223 l 1,3,-1
 339 223 l 1,0,-1
339 871 m 1,4,-1
 339 645 l 1,5,-1
 99 645 l 1,6,-1
 99 871 l 1,7,-1
 339 871 l 1,4,-1
EndSplineSet
EndChar

StartChar: semicolon
Encoding: 59 59 49
Width: 439
VWidth: 2088
Flags: W
LayerCount: 2
Fore
SplineSet
346 223 m 1,0,-1
 346 0 l 1,1,2
 347 -191 347 -191 220 -235 c 1,3,4
 175 -252 175 -252 106 -250 c 1,5,-1
 106 -160 l 1,6,7
 180 -145 180 -145 207 -110 c 128,-1,8
 234 -75 234 -75 234 0 c 1,9,-1
 106 0 l 1,10,-1
 106 223 l 1,11,-1
 346 223 l 1,0,-1
339 871 m 1,12,-1
 339 645 l 1,13,-1
 99 645 l 1,14,-1
 99 871 l 1,15,-1
 339 871 l 1,12,-1
EndSplineSet
EndChar

StartChar: less
Encoding: 60 60 50
Width: 1214
VWidth: 2088
Flags: W
LayerCount: 2
Fore
SplineSet
140 738 m 1,0,-1
 140 815 l 1,1,-1
 1074 1317 l 1,2,-1
 1074 1171 l 1,3,-1
 343 776 l 1,4,-1
 1074 384 l 1,5,-1
 1074 238 l 1,6,-1
 140 738 l 1,0,-1
EndSplineSet
EndChar

StartChar: equal
Encoding: 61 61 51
Width: 1214
VWidth: 2088
Flags: W
LayerCount: 2
Fore
SplineSet
1074 626 m 1,0,-1
 1074 498 l 1,1,-1
 140 498 l 1,2,-1
 140 626 l 1,3,-1
 1074 626 l 1,0,-1
1074 1053 m 1,4,-1
 1074 925 l 1,5,-1
 140 925 l 1,6,-1
 140 1053 l 1,7,-1
 1074 1053 l 1,4,-1
EndSplineSet
EndChar

StartChar: greater
Encoding: 62 62 52
Width: 1214
VWidth: 2088
Flags: W
LayerCount: 2
Fore
SplineSet
140 238 m 1,0,-1
 140 384 l 1,1,-1
 872 776 l 1,2,-1
 140 1171 l 1,3,-1
 140 1317 l 1,4,-1
 1074 815 l 1,5,-1
 1074 738 l 1,6,-1
 140 238 l 1,0,-1
EndSplineSet
EndChar

StartChar: question
Encoding: 63 63 53
Width: 844
VWidth: 2088
Flags: W
LayerCount: 2
Fore
SplineSet
425 1114 m 0,0,1
 201 1114 201 1114 201 901 c 1,2,-1
 58 901 l 1,3,4
 58 1079 58 1079 163 1160.5 c 128,-1,5
 268 1242 268 1242 423 1241.5 c 128,-1,6
 578 1241 578 1241 681 1152 c 128,-1,7
 784 1063 784 1063 784 921 c 128,-1,8
 784 779 784 779 680 705 c 0,9,10
 650 684 650 684 591 645 c 0,11,12
 447 549 447 549 432 342 c 1,13,-1
 332 342 l 1,14,15
 332 610 332 610 469 710 c 0,16,17
 504 736 504 736 544 764 c 0,18,19
 632 825 632 825 632.5 915 c 128,-1,20
 633 1005 633 1005 573 1059.5 c 128,-1,21
 513 1114 513 1114 425 1114 c 0,0,1
480 0 m 1,22,-1
 297 0 l 1,23,-1
 297 209 l 1,24,-1
 480 209 l 1,25,-1
 480 0 l 1,22,-1
EndSplineSet
EndChar

StartChar: at
Encoding: 64 64 54
Width: 1503
VWidth: 2088
Flags: W
LayerCount: 2
Fore
SplineSet
464 812 m 128,-1,1
 568 951 568 951 741.5 951 c 128,-1,2
 915 951 915 951 963 813 c 1,3,-1
 987 932 l 1,4,-1
 1131 932 l 1,5,-1
 1014 392 l 2,6,7
 999 322 999 322 999 318 c 2,8,-1
 999 313 l 2,9,10
 999 274 999 274 1029 274 c 0,11,12
 1099 274 1099 274 1191.5 384.5 c 128,-1,13
 1284 495 1284 495 1284 675.5 c 128,-1,14
 1284 856 1284 856 1151 989 c 128,-1,15
 1018 1122 1018 1122 774 1122.5 c 128,-1,16
 530 1123 530 1123 365 952 c 128,-1,17
 200 781 200 781 199 523 c 128,-1,18
 198 265 198 265 356 115.5 c 128,-1,19
 514 -34 514 -34 778.5 -34 c 128,-1,20
 1043 -34 1043 -34 1202 86 c 1,21,-1
 1275 -3 l 1,22,23
 1082 -152 1082 -152 801 -152 c 0,24,25
 436 -152 436 -152 247 46 c 128,-1,26
 58 244 58 244 58 524 c 128,-1,27
 58 804 58 804 254.5 1023 c 128,-1,28
 451 1242 451 1242 776.5 1242.5 c 128,-1,29
 1102 1243 1102 1243 1259 1074 c 128,-1,30
 1416 905 1416 905 1416 683.5 c 128,-1,31
 1416 462 1416 462 1296.5 305.5 c 128,-1,32
 1177 149 1177 149 985 149 c 0,33,34
 890 149 890 149 877 280 c 1,35,36
 789 151 789 151 657.5 150 c 128,-1,37
 526 149 526 149 441 241.5 c 128,-1,38
 356 334 356 334 358 503.5 c 128,-1,0
 360 673 360 673 464 812 c 128,-1,1
749 831 m 0,39,40
 631 831 631 831 566.5 724.5 c 128,-1,41
 502 618 502 618 502 477 c 128,-1,42
 502 336 502 336 600 284 c 0,43,44
 632 266 632 266 679.5 266 c 128,-1,45
 727 266 727 266 771.5 299.5 c 128,-1,46
 816 333 816 333 848.5 386 c 128,-1,47
 881 439 881 439 900 506 c 128,-1,48
 919 573 919 573 919 649 c 128,-1,49
 919 725 919 725 869.5 778 c 128,-1,50
 820 831 820 831 749 831 c 0,39,40
EndSplineSet
EndChar

StartChar: A
Encoding: 65 65 55
Width: 1268
VWidth: 2088
Flags: W
LayerCount: 2
Fore
SplineSet
-14 123 m 1,0,-1
 132 123 l 1,1,-1
 443 1100 l 1,2,-1
 337 1100 l 1,3,-1
 337 1223 l 1,4,-1
 931 1223 l 1,5,-1
 931 1100 l 1,6,-1
 824 1100 l 1,7,-1
 1136 123 l 1,8,-1
 1282 123 l 1,9,-1
 1282 0 l 1,10,-1
 801 0 l 1,11,-1
 801 123 l 1,12,-1
 960 123 l 1,13,-1
 871 449 l 1,14,-1
 398 449 l 1,15,-1
 309 123 l 1,16,-1
 468 123 l 1,17,-1
 468 0 l 1,18,-1
 -14 0 l 1,19,-1
 -14 123 l 1,0,-1
838 579 m 1,20,-1
 674 1100 l 1,21,-1
 595 1100 l 1,22,-1
 429 579 l 1,23,-1
 838 579 l 1,20,-1
EndSplineSet
EndChar

StartChar: B
Encoding: 66 66 56
Width: 1109
VWidth: 2088
Flags: W
LayerCount: 2
Fore
SplineSet
71 0 m 1,0,-1
 71 123 l 1,1,-1
 227 123 l 1,2,-1
 227 1100 l 1,3,-1
 71 1100 l 1,4,-1
 71 1223 l 1,5,-1
 586 1223 l 1,6,7
 792 1222 792 1222 888.5 1132.5 c 128,-1,8
 985 1043 985 1043 984 906 c 0,9,10
 983 721 983 721 814 643 c 1,11,12
 973 590 973 590 1025 447 c 1,13,14
 1041 399 1041 399 1041 342 c 0,15,16
 1041 208 1041 208 936 104 c 128,-1,17
 831 0 831 0 575 0 c 2,18,-1
 71 0 l 1,0,-1
574 123 m 2,19,20
 866 123 866 123 865 351 c 0,21,22
 865 496 865 496 715 546 c 0,23,24
 659 563 659 563 580 565 c 2,25,-1
 397 565 l 1,26,-1
 397 123 l 1,27,-1
 574 123 l 2,19,20
570 701 m 1,28,29
 808 702 808 702 808 901 c 128,-1,30
 808 1100 808 1100 544 1100 c 2,31,-1
 397 1100 l 1,32,-1
 397 701 l 1,33,-1
 570 701 l 1,28,29
EndSplineSet
EndChar

StartChar: C
Encoding: 67 67 57
Width: 1324
VWidth: 2088
Flags: W
LayerCount: 2
Fore
SplineSet
669 123 m 0,0,1
 1023 123 1023 123 1117 401 c 1,2,-1
 1260 325 l 1,3,4
 1181 135 1181 135 1026 58 c 128,-1,5
 871 -19 871 -19 707 -19 c 0,6,7
 404 -20 404 -20 239.5 153 c 128,-1,8
 75 326 75 326 74.5 612 c 128,-1,9
 74 898 74 898 243 1070.5 c 128,-1,10
 412 1243 412 1243 675 1242.5 c 128,-1,11
 938 1242 938 1242 1090 1085 c 1,12,-1
 1090 1223 l 1,13,-1
 1227 1223 l 1,14,-1
 1227 852 l 1,15,-1
 1095 852 l 1,16,17
 975 1097 975 1097 688 1099 c 0,18,19
 490 1099 490 1099 376 962.5 c 128,-1,20
 262 826 262 826 262 615 c 0,21,22
 262 272 262 272 495 162 c 1,23,24
 578 123 578 123 669 123 c 0,0,1
EndSplineSet
EndChar

StartChar: D
Encoding: 68 68 58
Width: 1348
VWidth: 2088
Flags: W
LayerCount: 2
Fore
SplineSet
403 123 m 1,0,-1
 663 123 l 2,1,2
 882 123 882 123 989.5 261 c 128,-1,3
 1097 399 1097 399 1097 616 c 0,4,5
 1097 954 1097 954 855 1062 c 0,6,7
 769 1099 769 1099 645 1100 c 2,8,-1
 403 1100 l 1,9,-1
 403 123 l 1,0,-1
1272 632 m 0,10,11
 1272 0 1272 0 635 0 c 2,12,-1
 63 0 l 1,13,-1
 63 123 l 1,14,-1
 231 123 l 1,15,-1
 231 1100 l 1,16,-1
 63 1100 l 1,17,-1
 63 1223 l 1,18,-1
 650 1223 l 2,19,20
 1082 1223 1082 1223 1219 906 c 0,21,22
 1272 782 1272 782 1272 632 c 0,10,11
EndSplineSet
EndChar

StartChar: E
Encoding: 69 69 59
Width: 1186
VWidth: 2088
Flags: W
LayerCount: 2
Fore
SplineSet
64 0 m 1,0,-1
 64 123 l 1,1,-1
 229 123 l 1,2,-1
 229 1100 l 1,3,-1
 64 1100 l 1,4,-1
 64 1223 l 1,5,-1
 1094 1223 l 1,6,-1
 1094 883 l 1,7,-1
 954 883 l 1,8,-1
 954 1100 l 1,9,-1
 398 1100 l 1,10,-1
 398 695 l 1,11,-1
 782 695 l 1,12,-1
 782 816 l 1,13,-1
 888 816 l 1,14,-1
 888 434 l 1,15,-1
 781 434 l 1,16,-1
 781 558 l 1,17,-1
 400 558 l 1,18,-1
 400 123 l 1,19,-1
 956 123 l 1,20,-1
 956 347 l 1,21,-1
 1094 347 l 1,22,-1
 1094 0 l 1,23,-1
 64 0 l 1,0,-1
EndSplineSet
EndChar

StartChar: F
Encoding: 70 70 60
Width: 1066
VWidth: 2088
Flags: W
LayerCount: 2
Fore
SplineSet
66 0 m 1,0,-1
 66 123 l 1,1,-1
 227 123 l 1,2,-1
 227 1100 l 1,3,-1
 66 1100 l 1,4,-1
 66 1223 l 1,5,-1
 1038 1223 l 1,6,-1
 1038 883 l 1,7,-1
 899 883 l 1,8,-1
 899 1100 l 1,9,-1
 397 1100 l 1,10,-1
 397 697 l 1,11,-1
 730 697 l 1,12,-1
 730 818 l 1,13,-1
 836 818 l 1,14,-1
 836 436 l 1,15,-1
 728 436 l 1,16,-1
 728 560 l 1,17,-1
 398 560 l 1,18,-1
 398 123 l 1,19,-1
 564 123 l 1,20,-1
 564 0 l 1,21,-1
 66 0 l 1,0,-1
EndSplineSet
EndChar

StartChar: G
Encoding: 71 71 61
Width: 1372
VWidth: 2088
Flags: W
LayerCount: 2
Fore
SplineSet
1110 852 m 1,0,1
 985 1098 985 1098 702 1100 c 0,2,3
 497 1100 497 1100 379.5 965 c 128,-1,4
 262 830 262 830 261 613.5 c 128,-1,5
 260 397 260 397 379.5 260 c 128,-1,6
 499 123 499 123 718 123 c 0,7,8
 1102 123 1102 123 1123 463 c 1,9,-1
 883 463 l 1,10,-1
 883 598 l 1,11,-1
 1315 598 l 1,12,13
 1307 281 1307 281 1146 131 c 128,-1,14
 985 -19 985 -19 717 -19 c 0,15,16
 358 -19 358 -19 195 208 c 0,17,18
 71 380 71 380 71 619 c 128,-1,19
 71 858 71 858 221.5 1050 c 128,-1,20
 372 1242 372 1242 658.5 1242 c 128,-1,21
 945 1242 945 1242 1104 1085 c 1,22,-1
 1104 1223 l 1,23,-1
 1241 1223 l 1,24,-1
 1241 852 l 1,25,-1
 1110 852 l 1,0,1
EndSplineSet
EndChar

StartChar: H
Encoding: 72 72 62
Width: 1372
VWidth: 2088
Flags: W
LayerCount: 2
Fore
SplineSet
77 0 m 1,0,-1
 77 123 l 1,1,-1
 223 123 l 1,2,-1
 223 1100 l 1,3,-1
 77 1100 l 1,4,-1
 77 1223 l 1,5,-1
 546 1223 l 1,6,-1
 546 1100 l 1,7,-1
 394 1100 l 1,8,-1
 394 708 l 1,9,-1
 979 708 l 1,10,-1
 979 1100 l 1,11,-1
 827 1100 l 1,12,-1
 827 1223 l 1,13,-1
 1297 1223 l 1,14,-1
 1297 1100 l 1,15,-1
 1148 1100 l 1,16,-1
 1148 123 l 1,17,-1
 1297 123 l 1,18,-1
 1297 0 l 1,19,-1
 827 0 l 1,20,-1
 827 123 l 1,21,-1
 980 123 l 1,22,-1
 980 572 l 1,23,-1
 395 572 l 1,24,-1
 395 123 l 1,25,-1
 546 123 l 1,26,-1
 546 0 l 1,27,-1
 77 0 l 1,0,-1
EndSplineSet
EndChar

StartChar: I
Encoding: 73 73 63
Width: 616
VWidth: 2088
Flags: W
LayerCount: 2
Fore
SplineSet
80 0 m 1,0,-1
 80 123 l 1,1,-1
 221 123 l 1,2,-1
 221 1100 l 1,3,-1
 80 1100 l 1,4,-1
 80 1223 l 1,5,-1
 533 1223 l 1,6,-1
 533 1100 l 1,7,-1
 394 1100 l 1,8,-1
 394 123 l 1,9,-1
 533 123 l 1,10,-1
 533 0 l 1,11,-1
 80 0 l 1,0,-1
EndSplineSet
EndChar

StartChar: J
Encoding: 74 74 64
Width: 589
VWidth: 2088
Flags: W
LayerCount: 2
Fore
SplineSet
-35 -35 m 1,0,-1
 91 -35 l 2,1,2
 159 -35 159 -35 184 3.5 c 128,-1,3
 209 42 209 42 209 124 c 2,4,-1
 209 1100 l 1,5,-1
 44 1100 l 1,6,-1
 44 1223 l 1,7,-1
 544 1223 l 1,8,-1
 544 1100 l 1,9,-1
 382 1100 l 1,10,-1
 382 105 l 2,11,12
 382 -52 382 -52 305.5 -121.5 c 128,-1,13
 229 -191 229 -191 120 -190 c 1,14,-1
 -35 -190 l 1,15,-1
 -35 -35 l 1,0,-1
EndSplineSet
EndChar

StartChar: K
Encoding: 75 75 65
Width: 1207
VWidth: 2088
Flags: W
LayerCount: 2
Fore
SplineSet
1190 0 m 1,0,-1
 695 0 l 1,1,-1
 695 123 l 1,2,-1
 830 123 l 1,3,-1
 398 622 l 1,4,-1
 398 123 l 1,5,-1
 545 123 l 1,6,-1
 545 0 l 1,7,-1
 69 0 l 1,8,-1
 69 123 l 1,9,-1
 227 123 l 1,10,-1
 227 1100 l 1,11,-1
 69 1100 l 1,12,-1
 69 1223 l 1,13,-1
 563 1223 l 1,14,-1
 563 1100 l 1,15,-1
 397 1100 l 1,16,-1
 397 655 l 1,17,-1
 843 1100 l 1,18,-1
 699 1100 l 1,19,-1
 699 1223 l 1,20,-1
 1178 1223 l 1,21,-1
 1178 1100 l 1,22,-1
 1040 1100 l 1,23,-1
 594 641 l 1,24,-1
 1050 123 l 1,25,-1
 1190 123 l 1,26,-1
 1190 0 l 1,0,-1
EndSplineSet
EndChar

StartChar: L
Encoding: 76 76 66
Width: 1043
VWidth: 2088
Flags: W
LayerCount: 2
Fore
SplineSet
63 0 m 1,0,-1
 63 123 l 1,1,-1
 230 123 l 1,2,-1
 230 1100 l 1,3,-1
 63 1100 l 1,4,-1
 63 1223 l 1,5,-1
 566 1223 l 1,6,-1
 566 1100 l 1,7,-1
 401 1100 l 1,8,-1
 401 123 l 1,9,-1
 836 123 l 1,10,-1
 836 480 l 1,11,-1
 990 480 l 1,12,-1
 990 0 l 1,13,-1
 63 0 l 1,0,-1
EndSplineSet
EndChar

StartChar: M
Encoding: 77 77 67
Width: 1672
VWidth: 2088
Flags: W
LayerCount: 2
Fore
SplineSet
226 1100 m 1,0,-1
 70 1100 l 1,1,-1
 70 1223 l 1,2,-1
 478 1223 l 1,3,-1
 830 336 l 1,4,-1
 1190 1223 l 1,5,-1
 1603 1223 l 1,6,-1
 1603 1100 l 1,7,-1
 1447 1100 l 1,8,-1
 1447 123 l 1,9,-1
 1603 123 l 1,10,-1
 1603 0 l 1,11,-1
 1148 0 l 1,12,-1
 1148 123 l 1,13,-1
 1291 123 l 1,14,-1
 1291 1086 l 1,15,-1
 849 0 l 1,16,-1
 805 0 l 1,17,-1
 369 1085 l 1,18,-1
 369 123 l 1,19,-1
 509 123 l 1,20,-1
 509 0 l 1,21,-1
 70 0 l 1,22,-1
 70 123 l 1,23,-1
 226 123 l 1,24,-1
 226 1100 l 1,0,-1
EndSplineSet
EndChar

StartChar: N
Encoding: 78 78 68
Width: 1401
VWidth: 2088
Flags: W
LayerCount: 2
Fore
SplineSet
1045 1100 m 1,0,-1
 872 1100 l 1,1,-1
 872 1223 l 1,2,-1
 1372 1223 l 1,3,-1
 1372 1100 l 1,4,-1
 1189 1100 l 1,5,-1
 1189 0 l 1,6,-1
 994 0 l 1,7,-1
 381 1057 l 1,8,-1
 381 123 l 1,9,-1
 560 123 l 1,10,-1
 560 0 l 1,11,-1
 60 0 l 1,12,-1
 60 123 l 1,13,-1
 238 123 l 1,14,-1
 238 1100 l 1,15,-1
 60 1100 l 1,16,-1
 60 1223 l 1,17,-1
 466 1223 l 1,18,-1
 1045 223 l 1,19,-1
 1045 1100 l 1,0,-1
EndSplineSet
EndChar

StartChar: O
Encoding: 79 79 69
Width: 1400
VWidth: 2088
Flags: W
LayerCount: 2
Fore
SplineSet
1020.5 959 m 128,-1,1
 898 1099 898 1099 701 1099 c 128,-1,2
 504 1099 504 1099 381.5 959 c 128,-1,3
 259 819 259 819 259 611 c 128,-1,4
 259 403 259 403 382.5 263 c 128,-1,5
 506 123 506 123 702 123 c 128,-1,6
 898 123 898 123 1020.5 263 c 128,-1,7
 1143 403 1143 403 1143 611 c 128,-1,0
 1143 819 1143 819 1020.5 959 c 128,-1,1
1159.5 1062.5 m 128,-1,9
 1332 883 1332 883 1332 610.5 c 128,-1,10
 1332 338 1332 338 1159.5 159 c 128,-1,11
 987 -20 987 -20 699.5 -19.5 c 128,-1,12
 412 -19 412 -19 241.5 160.5 c 128,-1,13
 71 340 71 340 71 611.5 c 128,-1,14
 71 883 71 883 241.5 1062 c 128,-1,15
 412 1241 412 1241 699.5 1241.5 c 128,-1,8
 987 1242 987 1242 1159.5 1062.5 c 128,-1,9
EndSplineSet
EndChar

StartChar: P
Encoding: 80 80 70
Width: 1091
VWidth: 2088
Flags: W
LayerCount: 2
Fore
SplineSet
68 123 m 1,0,-1
 227 123 l 1,1,-1
 227 1100 l 1,2,-1
 68 1100 l 1,3,-1
 68 1223 l 1,4,-1
 632 1223 l 2,5,6
 634 1223 634 1223 636 1223 c 0,7,8
 861 1223 861 1223 956.5 1115 c 128,-1,9
 1052 1007 1052 1007 1052 853 c 0,10,11
 1052 565 1052 565 752 515 c 1,12,13
 661 501 661 501 553 501 c 2,14,-1
 399 501 l 1,15,-1
 399 123 l 1,16,-1
 567 123 l 1,17,-1
 567 0 l 1,18,-1
 68 0 l 1,19,-1
 68 123 l 1,0,-1
397 612 m 1,20,-1
 586 612 l 2,21,22
 819 612 819 612 864 760 c 1,23,24
 880 819 880 819 880.5 894 c 128,-1,25
 881 969 881 969 816.5 1034.5 c 128,-1,26
 752 1100 752 1100 637 1100 c 2,27,-1
 397 1100 l 1,28,-1
 397 612 l 1,20,-1
EndSplineSet
EndChar

StartChar: Q
Encoding: 81 81 71
Width: 1402
VWidth: 2088
Flags: W
LayerCount: 2
Fore
SplineSet
1156 -75 m 1,0,-1
 1157 -231 l 1,1,2
 1109 -244 1109 -244 1037.5 -244 c 128,-1,3
 966 -244 966 -244 843.5 -190.5 c 128,-1,4
 721 -137 721 -137 594.5 -137 c 128,-1,5
 468 -137 468 -137 338 -194 c 1,6,-1
 337 -48 l 1,7,8
 449 11 449 11 544 9 c 1,9,10
 324 58 324 58 197.5 222.5 c 128,-1,11
 71 387 71 387 72 635 c 128,-1,12
 73 883 73 883 243.5 1062 c 128,-1,13
 414 1241 414 1241 701.5 1242 c 128,-1,14
 989 1243 989 1243 1161 1063 c 128,-1,15
 1333 883 1333 883 1333.5 624.5 c 128,-1,16
 1334 366 1334 366 1181.5 193.5 c 128,-1,17
 1029 21 1029 21 771 -5 c 1,18,19
 806 -16 806 -16 843.5 -29.5 c 128,-1,20
 881 -43 881 -43 919 -56.5 c 128,-1,21
 957 -70 957 -70 996.5 -78 c 128,-1,22
 1036 -86 1036 -86 1077.5 -86 c 128,-1,23
 1119 -86 1119 -86 1156 -75 c 1,0,-1
1022.5 959 m 128,-1,25
 900 1099 900 1099 702.5 1099 c 128,-1,26
 505 1099 505 1099 382.5 959 c 128,-1,27
 260 819 260 819 260 609.5 c 128,-1,28
 260 400 260 400 382 261.5 c 128,-1,29
 504 123 504 123 703 123 c 128,-1,30
 902 123 902 123 1023.5 261.5 c 128,-1,31
 1145 400 1145 400 1145 609.5 c 128,-1,24
 1145 819 1145 819 1022.5 959 c 128,-1,25
EndSplineSet
EndChar

StartChar: R
Encoding: 82 82 72
Width: 1173
VWidth: 2088
Flags: W
LayerCount: 2
Fore
SplineSet
403 697 m 1,0,-1
 639 697 l 1,1,2
 765 698 765 698 819 757.5 c 128,-1,3
 873 817 873 817 873.5 907.5 c 128,-1,4
 874 998 874 998 809 1049 c 128,-1,5
 744 1100 744 1100 632 1100 c 2,6,-1
 403 1100 l 1,7,-1
 403 697 l 1,0,-1
1048 907 m 0,8,9
 1048 645 1048 645 774 592 c 1,10,-1
 1022 123 l 1,11,-1
 1177 123 l 1,12,-1
 1177 0 l 1,13,-1
 908 0 l 1,14,-1
 608 572 l 1,15,-1
 403 572 l 1,16,-1
 403 123 l 1,17,-1
 569 123 l 1,18,-1
 569 0 l 1,19,-1
 61 0 l 1,20,-1
 61 123 l 1,21,-1
 233 123 l 1,22,-1
 233 1100 l 1,23,-1
 61 1100 l 1,24,-1
 61 1223 l 1,25,-1
 644 1223 l 2,26,27
 948 1223 948 1223 1025 1036 c 0,28,29
 1048 979 1048 979 1048 907 c 0,8,9
EndSplineSet
EndChar

StartChar: S
Encoding: 83 83 73
Width: 1031
VWidth: 2088
Flags: W
LayerCount: 2
Fore
SplineSet
491 1100 m 0,0,1
 260 1100 260 1100 260 907 c 0,2,3
 260 808 260 808 378 758 c 256,4,5
 432 736 432 736 556 708 c 0,6,7
 965 618 965 618 965 324 c 0,8,9
 965 177 965 177 852.5 79 c 128,-1,10
 740 -19 740 -19 559.5 -19 c 128,-1,11
 379 -19 379 -19 244 92 c 1,12,-1
 244 0 l 1,13,-1
 102 0 l 1,14,-1
 102 410 l 1,15,-1
 244 410 l 1,16,-1
 244 288 l 1,17,18
 370 123 370 123 516.5 123 c 128,-1,19
 663 123 663 123 727 179.5 c 128,-1,20
 791 236 791 236 791 309 c 128,-1,21
 791 382 791 382 763.5 421.5 c 128,-1,22
 736 461 736 461 682.5 490.5 c 128,-1,23
 629 520 629 520 502.5 550 c 128,-1,24
 376 580 376 580 311 603 c 1,25,26
 94 684 94 684 94 910 c 0,27,28
 94 1070 94 1070 202 1156 c 128,-1,29
 310 1242 310 1242 471 1242 c 128,-1,30
 632 1242 632 1242 756 1144 c 1,31,-1
 756 1223 l 1,32,-1
 900 1223 l 1,33,-1
 900 877 l 1,34,-1
 756 877 l 1,35,-1
 756 963 l 1,36,37
 658 1100 658 1100 491 1100 c 0,0,1
EndSplineSet
EndChar

StartChar: T
Encoding: 84 84 74
Width: 1095
VWidth: 2088
Flags: W
LayerCount: 2
Fore
SplineSet
1050 1223 m 1,0,-1
 1050 853 l 1,1,-1
 911 853 l 1,2,-1
 911 1100 l 1,3,-1
 636 1100 l 1,4,-1
 636 123 l 1,5,-1
 821 123 l 1,6,-1
 821 0 l 1,7,-1
 278 0 l 1,8,-1
 278 123 l 1,9,-1
 464 123 l 1,10,-1
 464 1100 l 1,11,-1
 183 1100 l 1,12,-1
 183 853 l 1,13,-1
 45 853 l 1,14,-1
 45 1223 l 1,15,-1
 1050 1223 l 1,0,-1
EndSplineSet
EndChar

StartChar: U
Encoding: 85 85 75
Width: 1283
VWidth: 2088
Flags: W
LayerCount: 2
Fore
SplineSet
1093 403 m 2,0,1
 1093 -19 1093 -19 625 -19 c 0,2,3
 392 -19 392 -19 292.5 97.5 c 128,-1,4
 193 214 193 214 193 405 c 2,5,-1
 193 1100 l 1,6,-1
 35 1100 l 1,7,-1
 35 1223 l 1,8,-1
 515 1223 l 1,9,-1
 515 1100 l 1,10,-1
 366 1100 l 1,11,-1
 366 401 l 2,12,13
 366 191 366 191 511 140 c 0,14,15
 565 123 565 123 681 123 c 0,16,17
 921 123 921 123 921 413 c 2,18,-1
 921 1100 l 1,19,-1
 771 1100 l 1,20,-1
 771 1223 l 1,21,-1
 1248 1223 l 1,22,-1
 1248 1100 l 1,23,-1
 1093 1100 l 1,24,-1
 1093 403 l 2,0,1
EndSplineSet
EndChar

StartChar: V
Encoding: 86 86 76
Width: 1280
VWidth: 2088
Flags: W
LayerCount: 2
Fore
SplineSet
132 1100 m 1,0,-1
 -22 1100 l 1,1,-1
 -22 1223 l 1,2,-1
 461 1223 l 1,3,-1
 461 1100 l 1,4,-1
 311 1100 l 1,5,-1
 646 195 l 1,6,-1
 979 1100 l 1,7,-1
 828 1100 l 1,8,-1
 828 1223 l 1,9,-1
 1301 1223 l 1,10,-1
 1301 1100 l 1,11,-1
 1145 1100 l 1,12,-1
 723 0 l 1,13,-1
 560 0 l 1,14,-1
 132 1100 l 1,0,-1
EndSplineSet
EndChar

StartChar: W
Encoding: 87 87 77
Width: 1865
VWidth: 2088
Flags: W
LayerCount: 2
Fore
SplineSet
1580 1100 m 1,0,-1
 1427 1100 l 1,1,-1
 1427 1223 l 1,2,-1
 1880 1223 l 1,3,-1
 1880 1100 l 1,4,-1
 1729 1100 l 1,5,-1
 1401 0 l 1,6,-1
 1232 0 l 1,7,-1
 929 985 l 1,8,-1
 630 0 l 1,9,-1
 469 0 l 1,10,-1
 132 1100 l 1,11,-1
 -21 1100 l 1,12,-1
 -21 1223 l 1,13,-1
 448 1223 l 1,14,-1
 448 1100 l 1,15,-1
 296 1100 l 1,16,-1
 556 222 l 1,17,-1
 811 1100 l 1,18,-1
 662 1100 l 1,19,-1
 662 1223 l 1,20,-1
 1213 1223 l 1,21,-1
 1213 1100 l 1,22,-1
 1065 1100 l 1,23,-1
 1321 222 l 1,24,-1
 1580 1100 l 1,0,-1
EndSplineSet
EndChar

StartChar: X
Encoding: 88 88 78
Width: 1218
VWidth: 2088
Flags: W
LayerCount: 2
Fore
SplineSet
19 0 m 1,0,-1
 19 123 l 1,1,-1
 190 123 l 1,2,-1
 522 617 l 1,3,-1
 194 1100 l 1,4,-1
 30 1100 l 1,5,-1
 30 1223 l 1,6,-1
 521 1223 l 1,7,-1
 521 1100 l 1,8,-1
 378 1100 l 1,9,-1
 613 747 l 1,10,-1
 852 1100 l 1,11,-1
 705 1100 l 1,12,-1
 705 1223 l 1,13,-1
 1178 1223 l 1,14,-1
 1178 1100 l 1,15,-1
 1017 1100 l 1,16,-1
 697 631 l 1,17,-1
 1044 123 l 1,18,-1
 1210 123 l 1,19,-1
 1210 0 l 1,20,-1
 709 0 l 1,21,-1
 709 123 l 1,22,-1
 855 123 l 1,23,-1
 606 499 l 1,24,-1
 355 123 l 1,25,-1
 508 123 l 1,26,-1
 508 0 l 1,27,-1
 19 0 l 1,0,-1
EndSplineSet
EndChar

StartChar: Y
Encoding: 89 89 79
Width: 1197
VWidth: 2088
Flags: W
LayerCount: 2
Fore
SplineSet
346 0 m 1,0,-1
 346 123 l 1,1,-1
 515 123 l 1,2,-1
 515 563 l 1,3,-1
 135 1100 l 1,4,-1
 -19 1100 l 1,5,-1
 -19 1223 l 1,6,-1
 482 1223 l 1,7,-1
 482 1100 l 1,8,-1
 322 1100 l 1,9,-1
 613 688 l 1,10,-1
 886 1100 l 1,11,-1
 726 1100 l 1,12,-1
 726 1223 l 1,13,-1
 1215 1223 l 1,14,-1
 1215 1100 l 1,15,-1
 1049 1100 l 1,16,-1
 686 563 l 1,17,-1
 686 123 l 1,18,-1
 858 123 l 1,19,-1
 858 0 l 1,20,-1
 346 0 l 1,0,-1
EndSplineSet
EndChar

StartChar: Z
Encoding: 90 90 80
Width: 1070
VWidth: 2088
Flags: W
LayerCount: 2
Fore
SplineSet
66 0 m 1,0,-1
 66 135 l 1,1,-1
 763 1100 l 1,2,-1
 234 1100 l 1,3,-1
 234 884 l 1,4,-1
 98 884 l 1,5,-1
 98 1223 l 1,6,-1
 981 1223 l 1,7,-1
 981 1105 l 1,8,-1
 273 123 l 1,9,-1
 853 123 l 1,10,-1
 853 355 l 1,11,-1
 991 355 l 1,12,-1
 991 0 l 1,13,-1
 66 0 l 1,0,-1
EndSplineSet
EndChar

StartChar: bracketleft
Encoding: 91 91 81
Width: 602
VWidth: 2088
Flags: W
LayerCount: 2
Fore
SplineSet
575 1338 m 1,0,-1
 575 1223 l 1,1,-1
 308 1223 l 1,2,-1
 308 -118 l 1,3,-1
 575 -118 l 1,4,-1
 575 -232 l 1,5,-1
 157 -232 l 1,6,-1
 157 1338 l 1,7,-1
 575 1338 l 1,0,-1
EndSplineSet
EndChar

StartChar: backslash
Encoding: 92 92 82
Width: 841
VWidth: 2088
Flags: W
LayerCount: 2
Fore
SplineSet
274 1242 m 1,0,-1
 734 -19 l 1,1,-1
 598 -19 l 1,2,-1
 136 1242 l 1,3,-1
 274 1242 l 1,0,-1
EndSplineSet
EndChar

StartChar: bracketright
Encoding: 93 93 83
Width: 602
VWidth: 2088
Flags: W
LayerCount: 2
Fore
SplineSet
451 1338 m 1,0,-1
 451 -232 l 1,1,-1
 33 -232 l 1,2,-1
 33 -118 l 1,3,-1
 300 -118 l 1,4,-1
 300 1223 l 1,5,-1
 33 1223 l 1,6,-1
 33 1338 l 1,7,-1
 451 1338 l 1,0,-1
EndSplineSet
EndChar

StartChar: asciicircum
Encoding: 94 94 84
Width: 875
VWidth: 2088
Flags: W
LayerCount: 2
Fore
SplineSet
836 641 m 1,0,-1
 676 641 l 1,1,-1
 440 1104 l 1,2,-1
 201 641 l 1,3,-1
 40 641 l 1,4,-1
 361 1242 l 1,5,-1
 522 1242 l 1,6,-1
 836 641 l 1,0,-1
EndSplineSet
EndChar

StartChar: underscore
Encoding: 95 95 85
Width: 952
VWidth: 2088
Flags: W
LayerCount: 2
Fore
SplineSet
952 -87 m 1,0,-1
 952 -211 l 1,1,-1
 0 -211 l 1,2,-1
 0 -87 l 1,3,-1
 952 -87 l 1,0,-1
EndSplineSet
EndChar

StartChar: grave
Encoding: 96 96 86
Width: 594
VWidth: 2088
Flags: W
LayerCount: 2
Fore
SplineSet
310 971 m 1,0,-1
 111 1242 l 1,1,-1
 330 1242 l 1,2,-1
 435 971 l 1,3,-1
 310 971 l 1,0,-1
EndSplineSet
EndChar

StartChar: a
Encoding: 97 97 87
Width: 943
VWidth: 2088
Flags: W
LayerCount: 2
Fore
SplineSet
631 581 m 2,0,1
 631 740 631 740 433 743 c 1,2,3
 278 743 278 743 206 646 c 1,4,-1
 108 750 l 1,5,6
 227 869 227 869 428.5 870 c 128,-1,7
 630 871 630 871 710 791 c 128,-1,8
 790 711 790 711 790 588 c 2,9,-1
 790 123 l 1,10,-1
 942 123 l 1,11,-1
 942 0 l 1,12,-1
 647 0 l 1,13,-1
 645 88 l 1,14,15
 499 -19 499 -19 358.5 -19 c 128,-1,16
 218 -19 218 -19 139 53 c 128,-1,17
 60 125 60 125 60 216 c 0,18,19
 59 376 59 376 158 437.5 c 128,-1,20
 257 499 257 499 390 499 c 128,-1,21
 523 499 523 499 631 478 c 1,22,-1
 631 581 l 2,0,1
631 374 m 1,23,-1
 415 391 l 1,24,25
 208 391 208 391 208 230 c 0,26,27
 208 137 208 137 300 105 c 0,28,29
 329 95 329 95 368 95 c 0,30,31
 532 95 532 95 631 189 c 1,32,-1
 631 374 l 1,23,-1
EndSplineSet
EndChar

StartChar: b
Encoding: 98 98 88
Width: 1136
VWidth: 2088
Flags: W
LayerCount: 2
Fore
SplineSet
338 749 m 1,0,1
 468 869 468 869 656 870 c 128,-1,2
 844 871 844 871 959 745 c 128,-1,3
 1074 619 1074 619 1075.5 430 c 128,-1,4
 1077 241 1077 241 959.5 111 c 128,-1,5
 842 -19 842 -19 639 -19 c 128,-1,6
 436 -19 436 -19 337 117 c 1,7,-1
 333 0 l 1,8,-1
 24 0 l 1,9,-1
 24 123 l 1,10,-1
 179 123 l 1,11,-1
 179 1100 l 1,12,-1
 26 1100 l 1,13,-1
 26 1223 l 1,14,-1
 338 1223 l 1,15,-1
 338 749 l 1,0,1
338 242 m 1,16,17
 519 126 519 126 617 113 c 1,18,19
 748 113 748 113 825 200.5 c 128,-1,20
 902 288 902 288 902 420.5 c 128,-1,21
 902 553 902 553 823 644.5 c 128,-1,22
 744 736 744 736 604 736 c 128,-1,23
 464 736 464 736 338 599 c 1,24,-1
 338 242 l 1,16,17
EndSplineSet
EndChar

StartChar: c
Encoding: 99 99 89
Width: 953
VWidth: 2088
Flags: W
LayerCount: 2
Fore
SplineSet
880 167 m 1,0,1
 758 -20 758 -20 517 -20 c 128,-1,2
 276 -20 276 -20 168 113.5 c 128,-1,3
 60 247 60 247 60 432 c 128,-1,4
 60 617 60 617 182 744 c 128,-1,5
 304 871 304 871 463 871 c 128,-1,6
 622 871 622 871 706 792 c 0,7,8
 725 773 725 773 733 756 c 1,9,-1
 728 853 l 1,10,-1
 871 853 l 1,11,-1
 871 548 l 1,12,-1
 733 548 l 1,13,14
 684 724 684 724 500 736 c 1,15,16
 369 736 369 736 299 654 c 128,-1,17
 229 572 229 572 229 424 c 0,18,19
 229 204 229 204 381 135 c 0,20,21
 430 113 430 113 497 113 c 0,22,23
 689 113 689 113 786 262 c 1,24,-1
 880 167 l 1,0,1
EndSplineSet
EndChar

StartChar: d
Encoding: 100 100 90
Width: 1136
VWidth: 2088
Flags: W
LayerCount: 2
Fore
SplineSet
796 756 m 1,0,-1
 796 1100 l 1,1,-1
 624 1100 l 1,2,-1
 624 1223 l 1,3,-1
 952 1223 l 1,4,-1
 952 123 l 1,5,-1
 1114 123 l 1,6,-1
 1114 0 l 1,7,-1
 792 0 l 1,8,-1
 791 105 l 1,9,10
 665 -19 665 -19 488.5 -19 c 128,-1,11
 312 -19 312 -19 187 97.5 c 128,-1,12
 62 214 62 214 62 412.5 c 128,-1,13
 62 611 62 611 180.5 741 c 128,-1,14
 299 871 299 871 482.5 870 c 128,-1,15
 666 869 666 869 796 756 c 1,0,-1
794 602 m 1,16,17
 653 736 653 736 516.5 736 c 128,-1,18
 380 736 380 736 305.5 644.5 c 128,-1,19
 231 553 231 553 231 423 c 128,-1,20
 231 293 231 293 307 203.5 c 128,-1,21
 383 114 383 114 517.5 113.5 c 128,-1,22
 652 113 652 113 794 235 c 1,23,-1
 794 602 l 1,16,17
EndSplineSet
EndChar

StartChar: e
Encoding: 101 101 91
Width: 1012
VWidth: 2088
Flags: W
LayerCount: 2
Fore
SplineSet
922 167 m 1,0,1
 801 -19 801 -19 558.5 -19 c 128,-1,2
 316 -19 316 -19 187 108 c 128,-1,3
 58 235 58 235 58 426 c 128,-1,4
 58 617 58 617 192 744 c 128,-1,5
 326 871 326 871 528 871 c 128,-1,6
 730 871 730 871 841 735 c 128,-1,7
 952 599 952 599 952 388 c 1,8,-1
 232 388 l 1,9,10
 239 264 239 264 320 189 c 128,-1,11
 401 114 401 114 560.5 113.5 c 128,-1,12
 720 113 720 113 814 246 c 1,13,-1
 922 167 l 1,0,1
800 496 m 1,14,15
 788 603 788 603 716 669.5 c 128,-1,16
 644 736 644 736 530 736 c 0,17,18
 341 736 341 736 270 594 c 1,19,20
 247 551 247 551 236 496 c 1,21,-1
 800 496 l 1,14,15
EndSplineSet
EndChar

StartChar: f
Encoding: 102 102 92
Width: 587
VWidth: 2088
Flags: W
LayerCount: 2
Fore
SplineSet
515 1022 m 1,0,1
 515 1117 515 1117 441 1117 c 0,2,3
 355 1117 355 1117 356 991 c 2,4,-1
 356 853 l 1,5,-1
 519 853 l 1,6,-1
 519 731 l 1,7,-1
 356 731 l 1,8,-1
 356 123 l 1,9,-1
 528 123 l 1,10,-1
 528 0 l 1,11,-1
 70 0 l 1,12,-1
 70 123 l 1,13,-1
 196 123 l 1,14,-1
 196 731 l 1,15,-1
 60 731 l 1,16,-1
 60 853 l 1,17,-1
 196 853 l 1,18,-1
 196 1001 l 2,19,20
 196 1178 196 1178 347 1227.5 c 128,-1,21
 498 1277 498 1277 589 1193 c 1,22,23
 655 1135 655 1135 653 1022 c 1,24,-1
 515 1022 l 1,0,1
EndSplineSet
EndChar

StartChar: g
Encoding: 103 103 93
Width: 1134
VWidth: 2088
Flags: W
LayerCount: 2
Fore
SplineSet
794 99 m 1,0,1
 690 0 690 0 491 0 c 128,-1,2
 292 0 292 0 177 119.5 c 128,-1,3
 62 239 62 239 62 422 c 128,-1,4
 62 605 62 605 181.5 738 c 128,-1,5
 301 871 301 871 481 871 c 128,-1,6
 661 871 661 871 794 751 c 1,7,-1
 794 853 l 1,8,-1
 1113 853 l 1,9,-1
 1113 731 l 1,10,-1
 952 731 l 1,11,-1
 952 -3 l 2,12,13
 952 -179 952 -179 825.5 -259 c 128,-1,14
 699 -339 699 -339 514.5 -339 c 128,-1,15
 330 -339 330 -339 213 -269 c 1,16,-1
 264 -152 l 1,17,18
 374 -209 374 -209 533 -208.5 c 128,-1,19
 692 -208 692 -208 767 -113 c 0,20,21
 794 -80 794 -80 794 -28 c 2,22,-1
 794 99 l 1,0,1
794 606 m 1,23,24
 658 736 658 736 523.5 736 c 128,-1,25
 389 736 389 736 310 645 c 128,-1,26
 231 554 231 554 230.5 425.5 c 128,-1,27
 230 297 230 297 306 214.5 c 128,-1,28
 382 132 382 132 516 132 c 128,-1,29
 650 132 650 132 794 242 c 1,30,-1
 794 606 l 1,23,24
EndSplineSet
EndChar

StartChar: h
Encoding: 104 104 94
Width: 1085
VWidth: 2088
Flags: W
LayerCount: 2
Fore
SplineSet
778 560 m 2,0,1
 778 737 778 737 629 736.5 c 128,-1,2
 480 736 480 736 341 643 c 1,3,-1
 341 123 l 1,4,-1
 496 123 l 1,5,-1
 496 0 l 1,6,-1
 22 0 l 1,7,-1
 22 123 l 1,8,-1
 184 123 l 1,9,-1
 184 1100 l 1,10,-1
 24 1100 l 1,11,-1
 24 1223 l 1,12,-1
 341 1223 l 1,13,-1
 341 771 l 1,14,15
 491 871 491 871 665 871 c 0,16,17
 936 871 936 871 934 590 c 2,18,-1
 934 123 l 1,19,-1
 1088 123 l 1,20,-1
 1088 0 l 1,21,-1
 670 0 l 1,22,-1
 670 123 l 1,23,-1
 778 123 l 1,24,-1
 778 560 l 2,0,1
EndSplineSet
EndChar

StartChar: i
Encoding: 105 105 95
Width: 539
VWidth: 2088
Flags: W
LayerCount: 2
Fore
SplineSet
213.5 1065 m 128,-1,1
 187 1092 187 1092 187 1142.5 c 128,-1,2
 187 1193 187 1193 245 1216 c 1,3,4
 308 1238 308 1238 344.5 1204 c 128,-1,5
 381 1170 381 1170 381 1131 c 128,-1,6
 381 1092 381 1092 352.5 1065 c 128,-1,7
 324 1038 324 1038 282 1038 c 128,-1,0
 240 1038 240 1038 213.5 1065 c 128,-1,1
63 731 m 1,8,-1
 63 853 l 1,9,-1
 365 853 l 1,10,-1
 365 123 l 1,11,-1
 508 123 l 1,12,-1
 508 0 l 1,13,-1
 63 0 l 1,14,-1
 63 123 l 1,15,-1
 206 123 l 1,16,-1
 206 731 l 1,17,-1
 63 731 l 1,8,-1
EndSplineSet
EndChar

StartChar: j
Encoding: 106 106 96
Width: 467
VWidth: 2088
Flags: W
LayerCount: 2
Fore
SplineSet
180 1196.5 m 128,-1,1
 208 1223 208 1223 249.5 1223 c 128,-1,2
 291 1223 291 1223 318.5 1196.5 c 128,-1,3
 346 1170 346 1170 346 1131 c 128,-1,4
 346 1092 346 1092 318.5 1065 c 128,-1,5
 291 1038 291 1038 249.5 1038 c 128,-1,6
 208 1038 208 1038 180 1065 c 128,-1,7
 152 1092 152 1092 152 1131 c 128,-1,0
 152 1170 152 1170 180 1196.5 c 128,-1,1
11 731 m 1,8,-1
 11 853 l 1,9,-1
 333 853 l 1,10,-1
 333 20 l 2,11,12
 333 -153 333 -153 296 -210 c 0,13,14
 224 -322 224 -322 32 -321 c 2,15,-1
 -64 -321 l 1,16,-1
 -64 -190 l 1,17,-1
 49 -190 l 2,18,19
 120 -190 120 -190 147 -146.5 c 128,-1,20
 174 -103 174 -103 174 -8 c 2,21,-1
 174 731 l 1,22,-1
 11 731 l 1,8,-1
EndSplineSet
EndChar

StartChar: k
Encoding: 107 107 97
Width: 1055
VWidth: 2088
Flags: W
LayerCount: 2
Fore
SplineSet
21 0 m 1,0,-1
 21 123 l 1,1,-1
 184 123 l 1,2,-1
 184 1100 l 1,3,-1
 21 1100 l 1,4,-1
 21 1223 l 1,5,-1
 340 1223 l 1,6,-1
 340 456 l 1,7,-1
 683 731 l 1,8,-1
 541 731 l 1,9,-1
 541 853 l 1,10,-1
 1016 853 l 1,11,-1
 1016 731 l 1,12,-1
 870 731 l 1,13,-1
 524 440 l 1,14,-1
 877 123 l 1,15,-1
 1025 123 l 1,16,-1
 1025 0 l 1,17,-1
 579 0 l 1,18,-1
 579 123 l 1,19,-1
 681 123 l 1,20,-1
 340 429 l 1,21,-1
 340 123 l 1,22,-1
 451 123 l 1,23,-1
 451 0 l 1,24,-1
 21 0 l 1,0,-1
EndSplineSet
EndChar

StartChar: l
Encoding: 108 108 98
Width: 516
VWidth: 2088
Flags: W
LayerCount: 2
Fore
SplineSet
22 0 m 1,0,-1
 22 123 l 1,1,-1
 184 123 l 1,2,-1
 184 1100 l 1,3,-1
 25 1100 l 1,4,-1
 25 1223 l 1,5,-1
 341 1223 l 1,6,-1
 341 123 l 1,7,-1
 483 123 l 1,8,-1
 483 0 l 1,9,-1
 22 0 l 1,0,-1
EndSplineSet
EndChar

StartChar: m
Encoding: 109 109 99
Width: 1648
VWidth: 2088
Flags: W
LayerCount: 2
Fore
SplineSet
635 736 m 0,0,1
 521 736 521 736 381 606 c 1,2,-1
 381 123 l 1,3,-1
 513 123 l 1,4,-1
 513 0 l 1,5,-1
 62 0 l 1,6,-1
 62 123 l 1,7,-1
 220 123 l 1,8,-1
 220 731 l 1,9,-1
 70 731 l 1,10,-1
 70 853 l 1,11,-1
 376 853 l 1,12,-1
 381 740 l 1,13,14
 536 869 536 869 693 870 c 128,-1,15
 850 871 850 871 911 721 c 1,16,17
 1087 869 1087 869 1221 870 c 128,-1,18
 1355 871 1355 871 1419 796 c 128,-1,19
 1483 721 1483 721 1483 603 c 2,20,-1
 1483 113 l 1,21,-1
 1636 113 l 1,22,-1
 1636 0 l 1,23,-1
 1206 0 l 1,24,-1
 1206 113 l 1,25,-1
 1326 113 l 1,26,-1
 1326 570 l 2,27,28
 1326 738 1326 738 1191 736 c 0,29,30
 1091 736 1091 736 979 640 c 0,31,32
 951 616 951 616 933 595 c 1,33,-1
 933 123 l 1,34,-1
 1066 123 l 1,35,-1
 1066 0 l 1,36,-1
 653 0 l 1,37,-1
 653 123 l 1,38,-1
 773 123 l 1,39,-1
 773 567 l 2,40,41
 771 736 771 736 635 736 c 0,0,1
EndSplineSet
EndChar

StartChar: n
Encoding: 110 110 100
Width: 1092
VWidth: 2088
Flags: W
LayerCount: 2
Fore
SplineSet
379 743 m 1,0,1
 542 869 542 869 669 870 c 128,-1,2
 796 871 796 871 861.5 796 c 128,-1,3
 927 721 927 721 928 596 c 1,4,-1
 927 123 l 1,5,-1
 1082 123 l 1,6,-1
 1082 0 l 1,7,-1
 654 0 l 1,8,-1
 654 123 l 1,9,-1
 772 123 l 1,10,-1
 772 537 l 2,11,12
 772 631 772 631 743 683.5 c 128,-1,13
 714 736 714 736 614.5 736 c 128,-1,14
 515 736 515 736 379 605 c 1,15,-1
 379 123 l 1,16,-1
 532 123 l 1,17,-1
 532 0 l 1,18,-1
 68 0 l 1,19,-1
 68 123 l 1,20,-1
 218 123 l 1,21,-1
 218 731 l 1,22,-1
 61 731 l 1,23,-1
 61 853 l 1,24,-1
 375 853 l 1,25,-1
 379 743 l 1,0,1
EndSplineSet
EndChar

StartChar: o
Encoding: 111 111 101
Width: 1025
VWidth: 2088
Flags: W
LayerCount: 2
Fore
SplineSet
717.5 648 m 128,-1,1
 639 736 639 736 511.5 736 c 128,-1,2
 384 736 384 736 306.5 648 c 128,-1,3
 229 560 229 560 229 425.5 c 128,-1,4
 229 291 229 291 306.5 202.5 c 128,-1,5
 384 114 384 114 511.5 114 c 128,-1,6
 639 114 639 114 717.5 202.5 c 128,-1,7
 796 291 796 291 796 425.5 c 128,-1,0
 796 560 796 560 717.5 648 c 128,-1,1
841 742.5 m 128,-1,9
 965 614 965 614 965 425 c 128,-1,10
 965 236 965 236 839.5 108.5 c 128,-1,11
 714 -19 714 -19 511.5 -19 c 128,-1,12
 309 -19 309 -19 185 109 c 128,-1,13
 61 237 61 237 60.5 425.5 c 128,-1,14
 60 614 60 614 184.5 742.5 c 128,-1,15
 309 871 309 871 513 871 c 128,-1,8
 717 871 717 871 841 742.5 c 128,-1,9
EndSplineSet
EndChar

StartChar: p
Encoding: 112 112 102
Width: 1122
VWidth: 2088
Flags: W
LayerCount: 2
Fore
SplineSet
332 92 m 1,0,-1
 332 -190 l 1,1,-1
 507 -190 l 1,2,-1
 507 -321 l 1,3,-1
 14 -321 l 1,4,-1
 14 -190 l 1,5,-1
 177 -190 l 1,6,-1
 177 731 l 1,7,-1
 26 731 l 1,8,-1
 26 853 l 1,9,-1
 323 853 l 1,10,-1
 332 740 l 1,11,12
 455 869 455 869 642 870 c 128,-1,13
 829 871 829 871 944.5 743 c 128,-1,14
 1060 615 1060 615 1061.5 426 c 128,-1,15
 1063 237 1063 237 944 109 c 128,-1,16
 825 -19 825 -19 639 -19 c 128,-1,17
 453 -19 453 -19 332 92 c 1,0,-1
332 223 m 1,18,19
 472 113 472 113 608 113 c 128,-1,20
 744 113 744 113 821 200.5 c 128,-1,21
 898 288 898 288 898 420.5 c 128,-1,22
 898 553 898 553 819 644.5 c 128,-1,23
 740 736 740 736 601.5 736 c 128,-1,24
 463 736 463 736 332 606 c 1,25,-1
 332 223 l 1,18,19
EndSplineSet
EndChar

StartChar: q
Encoding: 113 113 103
Width: 1128
VWidth: 2088
Flags: W
LayerCount: 2
Fore
SplineSet
791 741 m 1,0,-1
 794 853 l 1,1,-1
 1100 853 l 1,2,-1
 1100 731 l 1,3,-1
 949 731 l 1,4,-1
 949 -190 l 1,5,-1
 1111 -190 l 1,6,-1
 1111 -321 l 1,7,-1
 618 -321 l 1,8,-1
 618 -190 l 1,9,-1
 791 -190 l 1,10,-1
 791 96 l 1,11,12
 669 -19 669 -19 482 -19 c 128,-1,13
 295 -19 295 -19 178.5 108 c 128,-1,14
 62 235 62 235 62 425 c 128,-1,15
 62 615 62 615 180.5 743 c 128,-1,16
 299 871 299 871 489.5 870 c 128,-1,17
 680 869 680 869 791 741 c 1,0,-1
791 599 m 1,18,19
 661 736 661 736 518.5 736 c 128,-1,20
 376 736 376 736 300 646 c 128,-1,21
 224 556 224 556 224 422.5 c 128,-1,22
 224 289 224 289 301 201 c 256,23,24
 378 113 378 113 512.5 113 c 128,-1,25
 647 113 647 113 791 242 c 1,26,-1
 791 599 l 1,18,19
EndSplineSet
EndChar

StartChar: r
Encoding: 114 114 104
Width: 805
VWidth: 2088
Flags: W
LayerCount: 2
Fore
SplineSet
370 669 m 1,0,1
 468 871 468 871 678 871 c 0,2,3
 725 871 725 871 779 864 c 1,4,-1
 774 716 l 1,5,6
 771 719 771 719 721 719 c 2,7,-1
 670 719 l 2,8,9
 455 719 455 719 412 533 c 0,10,11
 399 474 399 474 398 403 c 1,12,-1
 398 123 l 1,13,-1
 585 123 l 1,14,-1
 585 0 l 1,15,-1
 69 0 l 1,16,-1
 69 123 l 1,17,-1
 238 123 l 1,18,-1
 238 731 l 1,19,-1
 62 731 l 1,20,-1
 62 853 l 1,21,-1
 369 853 l 1,22,-1
 370 669 l 1,0,1
EndSplineSet
EndChar

StartChar: s
Encoding: 115 115 105
Width: 857
VWidth: 2088
Flags: W
LayerCount: 2
Fore
SplineSet
222 54 m 1,0,-1
 222 0 l 1,1,-1
 82 0 l 1,2,-1
 82 280 l 1,3,-1
 222 280 l 1,4,-1
 222 222 l 1,5,6
 284 106 284 106 459.5 106 c 128,-1,7
 635 106 635 106 635 230 c 1,8,9
 636 314 636 314 524 337 c 1,10,11
 490 343 490 343 381.5 360.5 c 128,-1,12
 273 378 273 378 197 420 c 1,13,14
 79 486 79 486 79.5 606.5 c 128,-1,15
 80 727 80 727 167.5 799 c 128,-1,16
 255 871 255 871 385 871 c 128,-1,17
 515 871 515 871 612 791 c 1,18,-1
 612 853 l 1,19,-1
 748 853 l 1,20,-1
 748 583 l 1,21,-1
 612 583 l 1,22,-1
 612 653 l 1,23,24
 536 744 536 744 428.5 744 c 128,-1,25
 321 744 321 744 275 713.5 c 128,-1,26
 229 683 229 683 229 639.5 c 128,-1,27
 229 596 229 596 257 568 c 128,-1,28
 285 540 285 540 407.5 517.5 c 128,-1,29
 530 495 530 495 589 479 c 0,30,31
 798 422 798 422 798 241 c 0,32,33
 798 124 798 124 705.5 52.5 c 128,-1,34
 613 -19 613 -19 463 -19 c 128,-1,35
 313 -19 313 -19 222 54 c 1,0,-1
EndSplineSet
EndChar

StartChar: t
Encoding: 116 116 106
Width: 559
VWidth: 2088
Flags: W
LayerCount: 2
Fore
SplineSet
36 731 m 1,0,-1
 36 853 l 1,1,-1
 169 853 l 1,2,-1
 169 1128 l 1,3,-1
 328 1162 l 1,4,-1
 328 853 l 1,5,-1
 512 853 l 1,6,-1
 512 731 l 1,7,-1
 328 731 l 1,8,-1
 328 307 l 2,9,10
 328 197 328 197 343 160 c 128,-1,11
 358 123 358 123 419 123 c 2,12,-1
 544 123 l 1,13,-1
 544 0 l 1,14,-1
 398 0 l 2,15,16
 249 0 249 0 201 91 c 0,17,18
 169 154 169 154 169 318 c 2,19,-1
 169 731 l 1,20,-1
 36 731 l 1,0,-1
EndSplineSet
EndChar

StartChar: u
Encoding: 117 117 107
Width: 1054
VWidth: 2088
Flags: W
LayerCount: 2
Fore
SplineSet
454 113 m 0,0,1
 597 113 597 113 714 266 c 1,2,-1
 714 731 l 1,3,-1
 560 731 l 1,4,-1
 560 853 l 1,5,-1
 875 853 l 1,6,-1
 875 123 l 1,7,-1
 1029 123 l 1,8,-1
 1029 0 l 1,9,-1
 719 0 l 1,10,-1
 714 106 l 1,11,12
 583 -19 583 -19 425 -19 c 0,13,14
 160 -19 160 -19 162 277 c 2,15,-1
 162 731 l 1,16,-1
 33 731 l 1,17,-1
 33 853 l 1,18,-1
 322 853 l 1,19,-1
 322 285 l 2,20,21
 322 113 322 113 454 113 c 0,0,1
EndSplineSet
EndChar

StartChar: v
Encoding: 118 118 108
Width: 1017
VWidth: 2088
Flags: W
LayerCount: 2
Fore
SplineSet
447 0 m 1,0,-1
 157 731 l 1,1,-1
 -2 731 l 1,2,-1
 -2 853 l 1,3,-1
 433 853 l 1,4,-1
 433 731 l 1,5,-1
 311 731 l 1,6,-1
 518 182 l 1,7,-1
 721 731 l 1,8,-1
 594 731 l 1,9,-1
 594 853 l 1,10,-1
 1020 853 l 1,11,-1
 1020 731 l 1,12,-1
 880 731 l 1,13,-1
 592 0 l 1,14,-1
 447 0 l 1,0,-1
EndSplineSet
EndChar

StartChar: w
Encoding: 119 119 109
Width: 1487
VWidth: 2088
Flags: W
LayerCount: 2
Fore
SplineSet
117 731 m 1,0,-1
 2 731 l 1,1,-1
 2 853 l 1,2,-1
 378 853 l 1,3,-1
 378 731 l 1,4,-1
 255 731 l 1,5,-1
 438 167 l 1,6,-1
 626 731 l 1,7,-1
 525 731 l 1,8,-1
 525 853 l 1,9,-1
 947 853 l 1,10,-1
 947 731 l 1,11,-1
 846 731 l 1,12,-1
 1038 156 l 1,13,-1
 1221 731 l 1,14,-1
 1092 731 l 1,15,-1
 1092 853 l 1,16,-1
 1488 853 l 1,17,-1
 1488 731 l 1,18,-1
 1357 731 l 1,19,-1
 1110 0 l 1,20,-1
 958 0 l 1,21,-1
 741 642 l 1,22,-1
 516 0 l 1,23,-1
 366 0 l 1,24,-1
 117 731 l 1,0,-1
EndSplineSet
EndChar

StartChar: x
Encoding: 120 120 110
Width: 1049
VWidth: 2088
Flags: W
LayerCount: 2
Fore
SplineSet
36 0 m 1,0,-1
 36 123 l 1,1,-1
 171 123 l 1,2,-1
 441 438 l 1,3,-1
 184 731 l 1,4,-1
 58 731 l 1,5,-1
 58 853 l 1,6,-1
 472 853 l 1,7,-1
 472 731 l 1,8,-1
 348 731 l 1,9,-1
 523 530 l 1,10,-1
 691 731 l 1,11,-1
 588 731 l 1,12,-1
 588 853 l 1,13,-1
 1002 853 l 1,14,-1
 1002 731 l 1,15,-1
 855 731 l 1,16,-1
 607 438 l 1,17,-1
 883 123 l 1,18,-1
 1006 123 l 1,19,-1
 1006 0 l 1,20,-1
 586 0 l 1,21,-1
 586 123 l 1,22,-1
 720 123 l 1,23,-1
 523 346 l 1,24,-1
 339 123 l 1,25,-1
 463 123 l 1,26,-1
 463 0 l 1,27,-1
 36 0 l 1,0,-1
EndSplineSet
EndChar

StartChar: y
Encoding: 121 121 111
Width: 1041
VWidth: 2088
Flags: W
LayerCount: 2
Fore
SplineSet
721 731 m 1,0,-1
 600 731 l 1,1,-1
 600 853 l 1,2,-1
 1037 853 l 1,3,-1
 1037 731 l 1,4,-1
 901 731 l 1,5,-1
 672 37 l 1,6,7
 606 -166 606 -166 524 -252 c 0,8,9
 442 -339 442 -339 275 -339 c 2,10,-1
 171 -339 l 1,11,-1
 171 -190 l 1,12,-1
 263 -190 l 1,13,14
 351 -191 351 -191 389 -170 c 0,15,16
 428 -149 428 -149 467 -44 c 2,17,-1
 500 45 l 1,18,-1
 424 45 l 1,19,-1
 131 731 l 1,20,-1
 -1 731 l 1,21,-1
 -1 853 l 1,22,-1
 429 853 l 1,23,-1
 429 731 l 1,24,-1
 315 731 l 1,25,-1
 540 158 l 1,26,-1
 721 731 l 1,0,-1
EndSplineSet
EndChar

StartChar: z
Encoding: 122 122 112
Width: 882
VWidth: 2088
Flags: W
LayerCount: 2
Fore
SplineSet
58 0 m 1,0,-1
 58 123 l 1,1,-1
 610 731 l 1,2,-1
 228 731 l 1,3,-1
 228 570 l 1,4,-1
 100 570 l 1,5,-1
 100 853 l 1,6,-1
 803 853 l 1,7,-1
 803 724 l 1,8,-1
 247 123 l 1,9,-1
 665 123 l 1,10,-1
 665 293 l 1,11,-1
 800 293 l 1,12,-1
 800 0 l 1,13,-1
 58 0 l 1,0,-1
EndSplineSet
EndChar

StartChar: braceleft
Encoding: 123 123 113
Width: 559
VWidth: 2088
Flags: W
LayerCount: 2
Fore
SplineSet
31 573 m 1,0,1
 125 574 125 574 157 637.5 c 128,-1,2
 189 701 189 701 189 879 c 128,-1,3
 189 1057 189 1057 220 1129 c 0,4,5
 270 1243 270 1243 443 1242 c 1,6,-1
 522 1242 l 1,7,-1
 522 1116 l 1,8,9
 413 1116 413 1116 387.5 1092 c 128,-1,10
 362 1068 362 1068 354 1035 c 128,-1,11
 346 1002 346 1002 346 861.5 c 128,-1,12
 346 721 346 721 321 636 c 128,-1,13
 296 551 296 551 204 504 c 1,14,15
 287 460 287 460 316 380.5 c 128,-1,16
 345 301 345 301 345 131.5 c 128,-1,17
 345 -38 345 -38 369 -73.5 c 128,-1,18
 393 -109 393 -109 522 -109 c 1,19,-1
 522 -236 l 1,20,-1
 444 -236 l 1,21,22
 271 -237 271 -237 221 -127 c 0,23,24
 189 -56 189 -56 189 124 c 128,-1,25
 189 304 189 304 158 369.5 c 128,-1,26
 127 435 127 435 31 434 c 1,27,-1
 31 573 l 1,0,1
EndSplineSet
EndChar

StartChar: bar
Encoding: 124 124 114
Width: 428
VWidth: 2088
Flags: W
LayerCount: 2
Fore
SplineSet
149 1223 m 1,0,-1
 280 1223 l 1,1,-1
 280 -102 l 1,2,-1
 149 -102 l 1,3,-1
 149 1223 l 1,0,-1
EndSplineSet
EndChar

StartChar: braceright
Encoding: 125 125 115
Width: 559
VWidth: 2088
Flags: W
LayerCount: 2
Fore
SplineSet
522 434 m 1,0,1
 426 434 426 434 396 369 c 128,-1,2
 366 304 366 304 366 125 c 128,-1,3
 366 -54 366 -54 332 -127 c 1,4,5
 282 -237 282 -237 109 -236 c 1,6,-1
 31 -236 l 1,7,-1
 31 -109 l 1,8,9
 158 -109 158 -109 180.5 -78 c 128,-1,10
 203 -47 203 -47 205.5 -2 c 128,-1,11
 208 43 208 43 208 170 c 128,-1,12
 208 297 208 297 237.5 378 c 128,-1,13
 267 459 267 459 349 504 c 1,14,15
 257 551 257 551 232 636 c 128,-1,16
 207 721 207 721 207 861.5 c 128,-1,17
 207 1002 207 1002 200 1035 c 128,-1,18
 193 1068 193 1068 167 1092 c 128,-1,19
 141 1116 141 1116 31 1116 c 1,20,-1
 31 1242 l 1,21,-1
 110 1242 l 2,22,23
 283 1242 283 1242 333 1130 c 1,24,25
 364 1057 364 1057 365 879 c 128,-1,26
 366 701 366 701 396 637 c 128,-1,27
 426 573 426 573 522 573 c 1,28,-1
 522 434 l 1,0,1
EndSplineSet
EndChar

StartChar: asciitilde
Encoding: 126 126 116
Width: 1126
VWidth: 2088
Flags: W
LayerCount: 2
Fore
SplineSet
703 641 m 128,-1,1
 766 620 766 620 840 620 c 128,-1,2
 914 620 914 620 981 691 c 1,3,-1
 1046 608 l 1,4,5
 960 469 960 469 825 469 c 0,6,7
 741 469 741 469 565 541 c 128,-1,8
 389 613 389 613 299.5 613 c 128,-1,9
 210 613 210 613 139 526 c 1,10,-1
 82 608 l 1,11,12
 182 751 182 751 325 751 c 0,13,14
 407 751 407 751 523.5 706.5 c 128,-1,0
 640 662 640 662 703 641 c 128,-1,1
EndSplineSet
EndChar

StartChar: cent
Encoding: 162 162 118
Width: 953
VWidth: 2088
Flags: W
LayerCount: 2
Fore
SplineSet
579 858 m 1,0,-1
 712 1242 l 1,1,-1
 794 1223 l 1,2,-1
 654 828 l 1,3,4
 713 795 713 795 733 756 c 1,5,-1
 728 853 l 1,6,-1
 871 853 l 1,7,-1
 871 548 l 1,8,-1
 733 548 l 1,9,10
 707 668 707 668 614 713 c 1,11,-1
 408 125 l 1,12,13
 449 113 449 113 497 113 c 0,14,15
 689 113 689 113 786 262 c 1,16,-1
 880 167 l 1,17,18
 758 -20 758 -20 493 -20 c 0,19,20
 426 -20 426 -20 364 -4 c 1,21,-1
 245 -339 l 1,22,-1
 166 -321 l 1,23,-1
 287 24 l 1,24,25
 175 81 175 81 117.5 191 c 128,-1,26
 60 301 60 301 60.5 410.5 c 128,-1,27
 61 520 61 520 93 602.5 c 128,-1,28
 125 685 125 685 182 744 c 128,-1,29
 239 803 239 803 318.5 837 c 128,-1,30
 398 871 398 871 468.5 870 c 128,-1,31
 539 869 539 869 579 858 c 1,0,-1
500 736 m 0,32,33
 229 736 229 736 229 407 c 0,34,35
 229 243 229 243 334 164 c 1,36,-1
 533 734 l 1,37,38
 516 736 516 736 500 736 c 0,32,33
EndSplineSet
EndChar

StartChar: sterling
Encoding: 163 163 119
Width: 1053
VWidth: 2088
Flags: W
LayerCount: 2
Fore
SplineSet
938 60 m 128,-1,1
 885 -19 885 -19 758 -19 c 128,-1,2
 631 -19 631 -19 472 104 c 1,3,4
 390 -19 390 -19 277.5 -19 c 128,-1,5
 165 -19 165 -19 110 33 c 128,-1,6
 55 85 55 85 55 160 c 128,-1,7
 55 235 55 235 112 297.5 c 128,-1,8
 169 360 169 360 260.5 360 c 128,-1,9
 352 360 352 360 441 277 c 1,10,11
 448 306 448 306 448 367 c 128,-1,12
 448 428 448 428 371 562 c 1,13,-1
 139 562 l 1,14,-1
 139 685 l 1,15,-1
 304 685 l 1,16,17
 242 813 242 813 242 902 c 0,18,19
 242 1067 242 1067 340.5 1155 c 128,-1,20
 439 1243 439 1243 607 1242 c 1,21,22
 848 1242 848 1242 919 1050 c 1,23,24
 939 988 939 988 940 916 c 1,25,-1
 798 916 l 1,26,27
 798 1116 798 1116 614 1116 c 0,28,29
 508 1116 508 1116 451 1067 c 128,-1,30
 394 1018 394 1018 394 940.5 c 128,-1,31
 394 863 394 863 419.5 803.5 c 128,-1,32
 445 744 445 744 478 685 c 1,33,-1
 869 685 l 1,34,-1
 869 562 l 1,35,-1
 535 562 l 1,36,37
 571 473 571 473 572 388.5 c 128,-1,38
 573 304 573 304 529 219 c 1,39,40
 676 129 676 129 732 129 c 128,-1,41
 788 129 788 129 830.5 146.5 c 128,-1,42
 873 164 873 164 881.5 214.5 c 128,-1,43
 890 265 890 265 893 308 c 1,44,-1
 991 308 l 1,45,0
 991 139 991 139 938 60 c 128,-1,1
247 263 m 1,46,47
 166 264 166 264 168 152 c 0,48,49
 168 99 168 99 220 77 c 0,50,51
 237 69 237 69 270 70 c 1,52,53
 335 70 335 70 396 174 c 1,54,55
 296 254 296 254 247 263 c 1,46,47
EndSplineSet
EndChar

StartChar: currency
Encoding: 164 164 120
Width: 984
VWidth: 2088
Flags: W
LayerCount: 2
Fore
SplineSet
216 637 m 1,0,1
 136 733 136 733 136 857.5 c 128,-1,2
 136 982 136 982 214 1068 c 1,3,-1
 129 1154 l 1,4,-1
 203 1227 l 1,5,-1
 294 1136 l 1,6,7
 384 1193 384 1193 493 1193 c 256,8,9
 602 1193 602 1193 692 1134 c 1,10,-1
 786 1227 l 1,11,-1
 857 1154 l 1,12,-1
 771 1066 l 1,13,14
 848 975 848 975 847 854.5 c 128,-1,15
 846 734 846 734 769 639 c 1,16,-1
 857 550 l 1,17,-1
 786 479 l 1,18,-1
 690 573 l 1,19,20
 605 515 605 515 493.5 515 c 128,-1,21
 382 515 382 515 296 572 c 1,22,-1
 203 479 l 1,23,-1
 129 550 l 1,24,-1
 216 637 l 1,0,1
698 850 m 0,25,26
 698 991 698 991 582 1048 c 0,27,28
 544 1066 544 1066 492 1066.5 c 128,-1,29
 440 1067 440 1067 402 1048 c 0,30,31
 287 992 287 992 286 852 c 0,32,33
 285 765 285 765 340.5 700.5 c 128,-1,34
 396 636 396 636 493.5 636 c 128,-1,35
 591 636 591 636 644.5 700 c 128,-1,36
 698 764 698 764 698 850 c 0,25,26
EndSplineSet
EndChar

StartChar: yen
Encoding: 165 165 121
Width: 1197
VWidth: 2088
Flags: W
LayerCount: 2
Fore
SplineSet
346 0 m 1,0,-1
 346 123 l 1,1,-1
 515 123 l 1,2,-1
 515 315 l 1,3,-1
 265 315 l 1,4,-1
 265 439 l 1,5,-1
 515 439 l 1,6,-1
 515 533 l 1,7,-1
 265 533 l 1,8,-1
 265 660 l 1,9,-1
 446 660 l 1,10,-1
 135 1100 l 1,11,-1
 -19 1100 l 1,12,-1
 -19 1223 l 1,13,-1
 482 1223 l 1,14,-1
 482 1100 l 1,15,-1
 322 1100 l 1,16,-1
 613 688 l 1,17,-1
 886 1100 l 1,18,-1
 726 1100 l 1,19,-1
 726 1223 l 1,20,-1
 1215 1223 l 1,21,-1
 1215 1100 l 1,22,-1
 1049 1100 l 1,23,-1
 750 660 l 1,24,-1
 938 660 l 1,25,-1
 938 533 l 1,26,-1
 686 533 l 1,27,-1
 686 439 l 1,28,-1
 938 439 l 1,29,-1
 938 315 l 1,30,-1
 686 315 l 1,31,-1
 686 123 l 1,32,-1
 858 123 l 1,33,-1
 858 0 l 1,34,-1
 346 0 l 1,0,-1
EndSplineSet
EndChar

StartChar: brokenbar
Encoding: 166 166 122
Width: 428
VWidth: 2088
Flags: W
LayerCount: 2
Fore
SplineSet
280 1223 m 1,0,-1
 280 731 l 1,1,-1
 149 731 l 1,2,-1
 149 1223 l 1,3,-1
 280 1223 l 1,0,-1
280 474 m 1,4,-1
 280 -19 l 1,5,-1
 149 -19 l 1,6,-1
 149 474 l 1,7,-1
 280 474 l 1,4,-1
EndSplineSet
EndChar

StartChar: section
Encoding: 167 167 123
Width: 930
VWidth: 2088
Flags: W
LayerCount: 2
Fore
SplineSet
280 205 m 0,0,1
 94 297 94 297 94 449.5 c 128,-1,2
 94 602 94 602 264 715 c 1,3,4
 127 798 127 798 126 937.5 c 128,-1,5
 125 1077 125 1077 225.5 1160 c 128,-1,6
 326 1243 326 1243 497.5 1242.5 c 128,-1,7
 669 1242 669 1242 767 1124 c 0,8,9
 800 1085 800 1085 817 1028 c 1,10,-1
 685 981 l 1,11,12
 646 1117 646 1117 494.5 1117.5 c 128,-1,13
 343 1118 343 1118 291 1029 c 0,14,15
 274 1002 274 1002 274 962 c 0,16,17
 275 856 275 856 459 784 c 0,18,19
 512 763 512 763 608.5 725 c 128,-1,20
 705 687 705 687 781 623.5 c 128,-1,21
 857 560 857 560 857 425 c 128,-1,22
 857 290 857 290 690 184 c 1,23,24
 828 102 828 102 828 -37.5 c 128,-1,25
 828 -177 828 -177 734 -258 c 128,-1,26
 640 -339 640 -339 510 -339 c 0,27,28
 278 -339 278 -339 170 -170 c 1,29,-1
 278 -82 l 1,30,31
 345 -209 345 -209 497 -209 c 1,32,33
 578 -208 578 -208 629 -166.5 c 128,-1,34
 680 -125 680 -125 680 -71 c 128,-1,35
 680 -17 680 -17 643.5 29 c 128,-1,36
 607 75 607 75 470.5 127.5 c 128,-1,37
 334 180 334 180 280 205 c 0,0,1
350 665 m 1,38,39
 226 590 226 590 226 495.5 c 128,-1,40
 226 401 226 401 340 344 c 0,41,42
 393 318 393 318 459 293.5 c 128,-1,43
 525 269 525 269 594 233 c 1,44,45
 726 302 726 302 726 401 c 128,-1,46
 726 500 726 500 607 559 c 0,47,48
 553 585 553 585 486 609 c 128,-1,49
 419 633 419 633 350 665 c 1,38,39
EndSplineSet
EndChar

StartChar: dieresis
Encoding: 168 168 124
Width: 606
VWidth: 2088
Flags: W
LayerCount: 2
Fore
SplineSet
554 1168 m 1,0,-1
 554 1006 l 1,1,-1
 394 1006 l 1,2,-1
 394 1168 l 1,3,-1
 554 1168 l 1,0,-1
224 1168 m 1,4,-1
 224 1006 l 1,5,-1
 62 1006 l 1,6,-1
 62 1168 l 1,7,-1
 224 1168 l 1,4,-1
EndSplineSet
EndChar

StartChar: copyright
Encoding: 169 169 125
Width: 1508
VWidth: 2088
Flags: W
LayerCount: 2
Fore
SplineSet
230 1054 m 128,-1,1
 398 1242 398 1242 698.5 1242 c 128,-1,2
 999 1242 999 1242 1166.5 1054 c 128,-1,3
 1334 866 1334 866 1334 609 c 128,-1,4
 1334 352 1334 352 1166.5 166.5 c 128,-1,5
 999 -19 999 -19 698.5 -19 c 128,-1,6
 398 -19 398 -19 230 166.5 c 128,-1,7
 62 352 62 352 62 609 c 128,-1,0
 62 866 62 866 230 1054 c 128,-1,1
185 610 m 256,8,9
 185 395 185 395 319.5 237 c 128,-1,10
 454 79 454 79 695.5 79 c 128,-1,11
 937 79 937 79 1073.5 237 c 128,-1,12
 1210 395 1210 395 1211 610 c 1,13,14
 1210 825 1210 825 1074.5 983.5 c 128,-1,15
 939 1142 939 1142 696 1142 c 128,-1,16
 453 1142 453 1142 319 983.5 c 128,-1,17
 185 825 185 825 185 610 c 256,8,9
698 840 m 0,18,19
 503 840 503 840 503 615 c 0,20,21
 503 457 503 457 613 407 c 0,22,23
 648 391 648 391 696 391 c 0,24,25
 838 391 838 391 905 498 c 1,26,-1
 974 428 l 1,27,28
 888 294 888 294 712.5 293.5 c 128,-1,29
 537 293 537 293 459 391 c 128,-1,30
 381 489 381 489 381 621.5 c 128,-1,31
 381 754 381 754 469.5 845 c 128,-1,32
 558 936 558 936 690 936 c 0,33,34
 822 935 822 935 867 854 c 1,35,-1
 865 925 l 1,36,-1
 966 925 l 1,37,-1
 966 705 l 1,38,-1
 867 705 l 1,39,40
 834 840 834 840 698 840 c 0,18,19
EndSplineSet
EndChar

StartChar: ordfeminine
Encoding: 170 170 126
Width: 738
VWidth: 2088
Flags: W
LayerCount: 2
Fore
SplineSet
37 751 m 0,0,1
 37 962 37 962 288 963 c 0,2,3
 390 963 390 963 470 947 c 1,4,-1
 470 1025 l 2,5,6
 470 1147 470 1147 337.5 1147 c 128,-1,7
 205 1147 205 1147 149 1077 c 1,8,-1
 77 1152 l 1,9,10
 166 1242 166 1242 316 1243 c 0,11,12
 588 1244 588 1244 588 1030 c 2,13,-1
 588 680 l 1,14,-1
 702 680 l 1,15,-1
 702 589 l 1,16,-1
 482 589 l 1,17,-1
 481 654 l 1,18,19
 366 573 366 573 262 573.5 c 128,-1,20
 158 574 158 574 97.5 628 c 128,-1,21
 37 682 37 682 37 751 c 0,0,1
150 761 m 0,22,23
 150 660 150 660 302 660 c 0,24,25
 392 660 392 660 470 731 c 1,26,-1
 470 871 l 1,27,-1
 323 883 l 1,28,29
 150 882 150 882 150 761 c 0,22,23
EndSplineSet
EndChar

StartChar: guillemotleft
Encoding: 171 171 127
Width: 1116
VWidth: 2088
Flags: W
LayerCount: 2
Fore
SplineSet
140 621 m 1,0,-1
 474 1000 l 1,1,-1
 583 1000 l 1,2,-1
 364 587 l 1,3,-1
 583 175 l 1,4,-1
 474 175 l 1,5,-1
 140 551 l 1,6,-1
 140 621 l 1,0,-1
534 621 m 1,7,-1
 867 1000 l 1,8,-1
 977 1000 l 1,9,-1
 756 587 l 1,10,-1
 977 175 l 1,11,-1
 867 175 l 1,12,-1
 534 551 l 1,13,-1
 534 621 l 1,7,-1
EndSplineSet
EndChar

StartChar: logicalnot
Encoding: 172 172 128
Width: 1180
VWidth: 2088
Flags: W
LayerCount: 2
Fore
SplineSet
1053 894 m 1,0,-1
 1053 322 l 1,1,-1
 929 322 l 1,2,-1
 929 769 l 1,3,-1
 60 769 l 1,4,-1
 60 894 l 1,5,-1
 1053 894 l 1,0,-1
EndSplineSet
EndChar

StartChar: registered
Encoding: 174 174 130
Width: 1419
VWidth: 2088
Flags: W
LayerCount: 2
Fore
SplineSet
240.5 1054 m 128,-1,1
 408 1242 408 1242 708.5 1242 c 128,-1,2
 1009 1242 1009 1242 1177 1054 c 128,-1,3
 1345 866 1345 866 1345 609 c 128,-1,4
 1345 352 1345 352 1177 166.5 c 128,-1,5
 1009 -19 1009 -19 708.5 -19 c 128,-1,6
 408 -19 408 -19 240.5 166.5 c 128,-1,7
 73 352 73 352 73 609 c 128,-1,0
 73 866 73 866 240.5 1054 c 128,-1,1
195 610 m 256,8,9
 195 395 195 395 331 237 c 128,-1,10
 467 79 467 79 707.5 79 c 128,-1,11
 948 79 948 79 1084 237 c 128,-1,12
 1220 395 1220 395 1221 610 c 1,13,14
 1220 825 1220 825 1085 983.5 c 128,-1,15
 950 1142 950 1142 708 1142 c 128,-1,16
 466 1142 466 1142 330.5 983.5 c 128,-1,17
 195 825 195 825 195 610 c 256,8,9
952 778 m 0,18,19
 952 638 952 638 804 607 c 1,20,-1
 938 358 l 1,21,-1
 1023 358 l 1,22,-1
 1023 286 l 1,23,-1
 878 286 l 1,24,-1
 714 595 l 1,25,-1
 603 595 l 1,26,-1
 603 358 l 1,27,-1
 693 358 l 1,28,-1
 693 286 l 1,29,-1
 417 286 l 1,30,-1
 417 358 l 1,31,-1
 510 358 l 1,32,-1
 510 877 l 1,33,-1
 417 877 l 1,34,-1
 417 949 l 1,35,-1
 734 949 l 2,36,37
 847 949 847 949 899.5 902.5 c 128,-1,38
 952 856 952 856 952 778 c 0,18,19
857 778 m 1,39,40
 857 877 857 877 726 877 c 2,41,-1
 603 877 l 1,42,-1
 603 670 l 1,43,-1
 731 670 l 2,44,45
 831 670 831 670 852 738 c 0,46,47
 858 759 858 759 857 778 c 1,39,40
EndSplineSet
EndChar

StartChar: macron
Encoding: 175 175 131
Width: 629
VWidth: 2088
Flags: W
LayerCount: 2
Fore
SplineSet
138 1242 m 1,0,-1
 485 1242 l 1,1,-1
 485 1151 l 1,2,-1
 138 1151 l 1,3,-1
 138 1242 l 1,0,-1
EndSplineSet
EndChar

StartChar: degree
Encoding: 176 176 132
Width: 691
VWidth: 2088
Flags: W
LayerCount: 2
Fore
SplineSet
224.5 1100 m 128,-1,1
 175 1050 175 1050 175.5 958.5 c 128,-1,2
 176 867 176 867 278 822 c 0,3,4
 310 808 310 808 364 808 c 128,-1,5
 418 808 418 808 468 858 c 128,-1,6
 518 908 518 908 518 976.5 c 128,-1,7
 518 1045 518 1045 471 1097.5 c 128,-1,8
 424 1150 424 1150 349 1150 c 128,-1,0
 274 1150 274 1150 224.5 1100 c 128,-1,1
346 1242 m 256,9,10
 460 1242 460 1242 540 1165 c 128,-1,11
 620 1088 620 1088 620 978.5 c 128,-1,12
 620 869 620 869 539.5 791 c 128,-1,13
 459 713 459 713 345.5 713.5 c 128,-1,14
 232 714 232 714 152.5 792.5 c 128,-1,15
 73 871 73 871 73 979 c 128,-1,16
 73 1087 73 1087 152.5 1164.5 c 128,-1,17
 232 1242 232 1242 346 1242 c 256,9,10
EndSplineSet
EndChar

StartChar: plusminus
Encoding: 177 177 133
Width: 1214
VWidth: 2088
Flags: W
LayerCount: 2
Fore
SplineSet
672 713 m 1,0,-1
 672 311 l 1,1,-1
 540 311 l 1,2,-1
 540 713 l 1,3,-1
 140 713 l 1,4,-1
 140 841 l 1,5,-1
 540 841 l 1,6,-1
 540 1242 l 1,7,-1
 672 1242 l 1,8,-1
 672 841 l 1,9,-1
 1074 841 l 1,10,-1
 1074 713 l 1,11,-1
 672 713 l 1,0,-1
1074 0 m 1,12,-1
 140 0 l 1,13,-1
 140 128 l 1,14,-1
 1074 128 l 1,15,-1
 1074 0 l 1,12,-1
EndSplineSet
EndChar

StartChar: uni00B2
Encoding: 178 178 134
Width: 791
VWidth: 2088
Flags: W
LayerCount: 2
Fore
SplineSet
115 906 m 1,0,1
 115 1242 115 1242 397 1242 c 0,2,3
 554 1242 554 1242 625.5 1168 c 128,-1,4
 697 1094 697 1094 697 997 c 0,5,6
 697 855 697 855 535 734 c 0,7,8
 490 700 490 700 415 649 c 128,-1,9
 340 598 340 598 287.5 546.5 c 128,-1,10
 235 495 235 495 220 425 c 1,11,-1
 593 425 l 1,12,-1
 593 616 l 1,13,-1
 693 616 l 1,14,-1
 693 318 l 1,15,-1
 92 318 l 1,16,17
 92 534 92 534 274 684 c 0,18,19
 323 723 323 723 398 776.5 c 128,-1,20
 473 830 473 830 519.5 878.5 c 128,-1,21
 566 927 566 927 566 993 c 0,22,23
 566 1135 566 1135 398 1135 c 0,24,25
 304 1135 304 1135 266.5 1082.5 c 128,-1,26
 229 1030 229 1030 229 906 c 1,27,-1
 115 906 l 1,0,1
EndSplineSet
EndChar

StartChar: uni00B3
Encoding: 179 179 135
Width: 830
VWidth: 2088
Flags: W
LayerCount: 2
Fore
SplineSet
213 591 m 1,0,1
 230 406 230 406 414 406 c 0,2,3
 507 406 507 406 562 450.5 c 128,-1,4
 617 495 617 495 617 552 c 128,-1,5
 617 609 617 609 605 640 c 0,6,7
 569 735 569 735 326 735 c 1,8,-1
 326 840 l 1,9,10
 545 840 545 840 577 920 c 0,11,12
 587 947 587 947 587 1000 c 128,-1,13
 587 1053 587 1053 539.5 1093 c 128,-1,14
 492 1133 492 1133 405 1134 c 0,15,16
 245 1135 245 1135 236 978 c 1,17,-1
 118 999 l 1,18,19
 123 1109 123 1109 198.5 1175.5 c 128,-1,20
 274 1242 274 1242 396 1242 c 0,21,22
 619 1241 619 1241 688 1102 c 0,23,24
 709 1058 709 1058 709 999 c 0,25,26
 709 833 709 833 548 789 c 1,27,28
 744 753 744 753 744 552 c 0,29,30
 744 449 744 449 653 374.5 c 128,-1,31
 562 300 562 300 374.5 299.5 c 128,-1,32
 187 299 187 299 118 461 c 0,33,34
 96 515 96 515 97 588 c 1,35,-1
 213 591 l 1,0,1
EndSplineSet
EndChar

StartChar: acute
Encoding: 180 180 136
Width: 594
VWidth: 2088
Flags: W
LayerCount: 2
Fore
SplineSet
176 971 m 1,0,-1
 281 1242 l 1,1,-1
 500 1242 l 1,2,-1
 301 971 l 1,3,-1
 176 971 l 1,0,-1
EndSplineSet
EndChar

StartChar: uni00B5
Encoding: 181 181 137
AltUni2: 0003bc.ffffffff.0
Width: 980
VWidth: 2088
Flags: W
LayerCount: 2
Fore
SplineSet
714 106 m 1,0,1
 493 -20 493 -20 421.5 -20 c 128,-1,2
 350 -20 350 -20 298 4 c 1,3,-1
 298 -391 l 1,4,-1
 162 -391 l 1,5,-1
 162 731 l 1,6,-1
 33 731 l 1,7,-1
 33 853 l 1,8,-1
 322 853 l 1,9,-1
 322 285 l 2,10,11
 322 113 322 113 454 113 c 0,12,13
 597 113 597 113 714 266 c 1,14,-1
 714 731 l 1,15,-1
 560 731 l 1,16,-1
 560 853 l 1,17,-1
 875 853 l 1,18,-1
 875 123 l 1,19,-1
 1029 123 l 1,20,-1
 1029 0 l 1,21,-1
 719 0 l 1,22,-1
 714 106 l 1,0,1
EndSplineSet
EndChar

StartChar: paragraph
Encoding: 182 182 138
Width: 1162
VWidth: 2088
Flags: W
LayerCount: 2
Fore
SplineSet
1083 1100 m 1,0,-1
 935 1100 l 1,1,-1
 935 -339 l 1,2,-1
 793 -339 l 1,3,-1
 793 1100 l 1,4,-1
 580 1100 l 1,5,-1
 580 -339 l 1,6,-1
 435 -339 l 1,7,-1
 435 481 l 1,8,9
 258 486 258 486 156 592 c 128,-1,10
 54 698 54 698 54 862 c 128,-1,11
 54 1026 54 1026 164 1134 c 128,-1,12
 274 1242 274 1242 479 1242 c 2,13,-1
 1083 1242 l 1,14,-1
 1083 1100 l 1,0,-1
EndSplineSet
EndChar

StartChar: periodcentered
Encoding: 183 183 139
Width: 439
VWidth: 2088
Flags: W
LayerCount: 2
Fore
SplineSet
91 697 m 1,0,-1
 332 697 l 1,1,-1
 332 474 l 1,2,-1
 91 474 l 1,3,-1
 91 697 l 1,0,-1
EndSplineSet
EndChar

StartChar: cedilla
Encoding: 184 184 140
Width: 622
VWidth: 2088
Flags: W
LayerCount: 2
Fore
SplineSet
348 -372 m 0,0,1
 306 -386 306 -386 245 -386 c 128,-1,2
 184 -386 184 -386 135 -377 c 1,3,-1
 135 -280 l 1,4,5
 183 -288 183 -288 227 -288 c 0,6,7
 327 -288 327 -288 327 -234 c 128,-1,8
 327 -180 327 -180 223 -170 c 1,9,-1
 286 5 l 1,10,-1
 363 5 l 1,11,-1
 333 -126 l 1,12,13
 468 -141 468 -141 470 -231 c 0,14,15
 468 -335 468 -335 348 -372 c 0,0,1
EndSplineSet
EndChar

StartChar: uni00B9
Encoding: 185 185 141
Width: 503
VWidth: 2088
Flags: W
LayerCount: 2
Fore
SplineSet
68 416 m 1,0,-1
 197 416 l 1,1,-1
 197 1123 l 1,2,-1
 61 1123 l 1,3,-1
 61 1223 l 1,4,-1
 315 1223 l 1,5,-1
 315 416 l 1,6,-1
 435 416 l 1,7,-1
 435 317 l 1,8,-1
 68 317 l 1,9,-1
 68 416 l 1,0,-1
EndSplineSet
EndChar

StartChar: ordmasculine
Encoding: 186 186 142
Width: 746
VWidth: 2088
Flags: W
LayerCount: 2
Fore
SplineSet
243 1088.5 m 128,-1,1
 191 1038 191 1038 191 961.5 c 128,-1,2
 191 885 191 885 244 834.5 c 128,-1,3
 297 784 297 784 373.5 784 c 128,-1,4
 450 784 450 784 504 833 c 1,5,6
 557 883 557 883 556.5 960 c 128,-1,7
 556 1037 556 1037 503.5 1088 c 128,-1,8
 451 1139 451 1139 373 1139 c 128,-1,0
 295 1139 295 1139 243 1088.5 c 128,-1,1
159 762 m 128,-1,10
 73 842 73 842 73 963.5 c 128,-1,11
 73 1085 73 1085 159 1163 c 128,-1,12
 245 1241 245 1241 374.5 1241.5 c 128,-1,13
 504 1242 504 1242 590 1163 c 128,-1,14
 676 1084 676 1084 676 963 c 128,-1,15
 676 842 676 842 590 762.5 c 128,-1,16
 504 683 504 683 374.5 682.5 c 128,-1,9
 245 682 245 682 159 762 c 128,-1,10
EndSplineSet
EndChar

StartChar: guillemotright
Encoding: 187 187 143
Width: 1116
VWidth: 2088
Flags: W
LayerCount: 2
Fore
SplineSet
977 551 m 1,0,-1
 642 175 l 1,1,-1
 534 175 l 1,2,-1
 753 587 l 1,3,-1
 534 1000 l 1,4,-1
 642 1000 l 1,5,-1
 977 621 l 1,6,-1
 977 551 l 1,0,-1
583 551 m 1,7,-1
 249 175 l 1,8,-1
 140 175 l 1,9,-1
 362 587 l 1,10,-1
 140 1000 l 1,11,-1
 249 1000 l 1,12,-1
 583 621 l 1,13,-1
 583 551 l 1,7,-1
EndSplineSet
EndChar

StartChar: onequarter
Encoding: 188 188 144
Width: 1766
VWidth: 2088
Flags: W
LayerCount: 2
Fore
SplineSet
972 1241 m 1,0,-1
 1065 1241 l 1,1,-1
 626 0 l 1,2,-1
 530 0 l 1,3,-1
 972 1241 l 1,0,-1
68 416 m 1,4,-1
 197 416 l 1,5,-1
 197 1123 l 1,6,-1
 61 1123 l 1,7,-1
 61 1223 l 1,8,-1
 315 1223 l 1,9,-1
 315 416 l 1,10,-1
 435 416 l 1,11,-1
 435 317 l 1,12,-1
 68 317 l 1,13,-1
 68 416 l 1,4,-1
1642 100 m 1,14,-1
 1642 0 l 1,15,-1
 1252 0 l 1,16,-1
 1252 100 l 1,17,-1
 1394 100 l 1,18,-1
 1394 270 l 1,19,-1
 1000 270 l 1,20,-1
 1000 374 l 1,21,-1
 1397 988 l 1,22,-1
 1515 988 l 1,23,-1
 1515 374 l 1,24,-1
 1677 374 l 1,25,-1
 1677 270 l 1,26,-1
 1515 270 l 1,27,-1
 1515 100 l 1,28,-1
 1642 100 l 1,14,-1
1394 374 m 1,29,-1
 1394 812 l 1,30,-1
 1123 374 l 1,31,-1
 1394 374 l 1,29,-1
EndSplineSet
EndChar

StartChar: onehalf
Encoding: 189 189 145
Width: 1792
VWidth: 2088
Flags: W
LayerCount: 2
Fore
SplineSet
972 1241 m 1,0,-1
 1065 1241 l 1,1,-1
 626 0 l 1,2,-1
 530 0 l 1,3,-1
 972 1241 l 1,0,-1
68 416 m 1,4,-1
 197 416 l 1,5,-1
 197 1123 l 1,6,-1
 61 1123 l 1,7,-1
 61 1223 l 1,8,-1
 315 1223 l 1,9,-1
 315 416 l 1,10,-1
 435 416 l 1,11,-1
 435 317 l 1,12,-1
 68 317 l 1,13,-1
 68 416 l 1,4,-1
1106 573 m 1,14,15
 1106 908 1106 908 1387 908 c 0,16,17
 1544 908 1544 908 1616 834 c 128,-1,18
 1688 760 1688 760 1688 662 c 0,19,20
 1688 521 1688 521 1526 400 c 1,21,22
 1481 368 1481 368 1405.5 316.5 c 128,-1,23
 1330 265 1330 265 1278 213.5 c 128,-1,24
 1226 162 1226 162 1211 91 c 1,25,-1
 1584 91 l 1,26,-1
 1584 283 l 1,27,-1
 1682 283 l 1,28,-1
 1682 -16 l 1,29,-1
 1083 -16 l 1,30,31
 1083 200 1083 200 1264 347 c 0,32,33
 1313 387 1313 387 1388 443 c 128,-1,34
 1463 499 1463 499 1509 546 c 128,-1,35
 1555 593 1555 593 1555 659 c 0,36,37
 1555 800 1555 800 1388 801 c 1,38,39
 1295 800 1295 800 1257 747.5 c 128,-1,40
 1219 695 1219 695 1219 573 c 1,41,-1
 1106 573 l 1,14,15
EndSplineSet
EndChar

StartChar: threequarters
Encoding: 190 190 146
Width: 2053
VWidth: 2088
Flags: W
LayerCount: 2
Fore
SplineSet
1216 1241 m 1,0,-1
 1310 1241 l 1,1,-1
 872 0 l 1,2,-1
 776 0 l 1,3,-1
 1216 1241 l 1,0,-1
218 591 m 1,4,5
 237 406 237 406 419 406 c 0,6,7
 512 406 512 406 567 450.5 c 128,-1,8
 622 495 622 495 622 551 c 0,9,10
 621 609 621 609 609 640 c 0,11,12
 570 735 570 735 332 735 c 1,13,-1
 332 840 l 1,14,15
 550 840 550 840 582 920 c 0,16,17
 592 947 592 947 592 999.5 c 128,-1,18
 592 1052 592 1052 544 1092.5 c 128,-1,19
 496 1133 496 1133 410 1134 c 0,20,21
 251 1135 251 1135 241 978 c 1,22,-1
 124 999 l 1,23,24
 128 1109 128 1109 204 1175.5 c 128,-1,25
 280 1242 280 1242 401 1242 c 0,26,27
 624 1241 624 1241 692 1102 c 0,28,29
 713 1058 713 1058 714 999 c 1,30,31
 714 833 714 833 553 789 c 1,32,33
 749 753 749 753 749 552 c 0,34,35
 749 448 749 448 658.5 374 c 128,-1,36
 568 300 568 300 380.5 299.5 c 128,-1,37
 193 299 193 299 125 461 c 1,38,39
 102 515 102 515 102 588 c 1,40,-1
 218 591 l 1,4,5
1865 100 m 1,41,-1
 1865 0 l 1,42,-1
 1477 0 l 1,43,-1
 1477 100 l 1,44,-1
 1617 100 l 1,45,-1
 1617 270 l 1,46,-1
 1223 270 l 1,47,-1
 1223 374 l 1,48,-1
 1620 988 l 1,49,-1
 1739 988 l 1,50,-1
 1739 374 l 1,51,-1
 1902 374 l 1,52,-1
 1902 270 l 1,53,-1
 1739 270 l 1,54,-1
 1739 100 l 1,55,-1
 1865 100 l 1,41,-1
1617 374 m 1,56,-1
 1617 812 l 1,57,-1
 1347 374 l 1,58,-1
 1617 374 l 1,56,-1
EndSplineSet
EndChar

StartChar: AE
Encoding: 198 198 154
Width: 1838
VWidth: 2088
Flags: W
LayerCount: 2
Fore
SplineSet
1658 883 m 1,0,-1
 1518 883 l 1,1,-1
 1463 1100 l 1,2,-1
 920 1100 l 1,3,-1
 1016 695 l 1,4,-1
 1401 695 l 1,5,-1
 1375 816 l 1,6,-1
 1478 816 l 1,7,-1
 1568 434 l 1,8,-1
 1463 434 l 1,9,-1
 1423 582 l 1,10,-1
 1041 582 l 1,11,-1
 1155 123 l 1,12,-1
 1676 123 l 1,13,-1
 1621 347 l 1,14,-1
 1757 347 l 1,15,-1
 1840 0 l 1,16,-1
 790 0 l 1,17,-1
 802 123 l 1,18,-1
 985 123 l 1,19,-1
 906 449 l 1,20,-1
 417 449 l 1,21,-1
 304 123 l 1,22,-1
 469 123 l 1,23,-1
 456 0 l 1,24,-1
 -24 0 l 1,25,-1
 -12 123 l 1,26,-1
 128 123 l 1,27,-1
 526 1100 l 1,28,-1
 418 1100 l 1,29,-1
 434 1223 l 1,30,-1
 1577 1223 l 1,31,-1
 1658 883 l 1,0,-1
876 579 m 1,32,-1
 749 1100 l 1,33,-1
 679 1100 l 1,34,-1
 470 579 l 1,35,-1
 876 579 l 1,32,-1
EndSplineSet
EndChar

StartChar: Eth
Encoding: 208 208 164
Width: 1348
VWidth: 2088
Flags: W
LayerCount: 2
Fore
SplineSet
1272 632 m 0,0,1
 1272 0 1272 0 635 0 c 2,2,-1
 63 0 l 1,3,-1
 63 123 l 1,4,-1
 231 123 l 1,5,-1
 231 536 l 1,6,-1
 65 536 l 1,7,-1
 65 690 l 1,8,-1
 231 690 l 1,9,-1
 231 1100 l 1,10,-1
 63 1100 l 1,11,-1
 63 1223 l 1,12,-1
 650 1223 l 2,13,14
 1082 1223 1082 1223 1219 906 c 0,15,16
 1272 782 1272 782 1272 632 c 0,0,1
403 690 m 1,17,-1
 613 690 l 1,18,-1
 613 536 l 1,19,-1
 403 536 l 1,20,-1
 403 123 l 1,21,-1
 663 123 l 2,22,23
 882 123 882 123 989.5 261 c 128,-1,24
 1097 399 1097 399 1097 616 c 0,25,26
 1097 954 1097 954 855 1062 c 0,27,28
 769 1099 769 1099 645 1100 c 2,29,-1
 403 1100 l 1,30,-1
 403 690 l 1,17,-1
EndSplineSet
EndChar

StartChar: multiply
Encoding: 215 215 171
Width: 984
VWidth: 2088
Flags: W
LayerCount: 2
Fore
SplineSet
414 461 m 1,0,-1
 191 684 l 1,1,-1
 280 772 l 1,2,-1
 502 548 l 1,3,-1
 725 772 l 1,4,-1
 814 684 l 1,5,-1
 590 461 l 1,6,-1
 814 238 l 1,7,-1
 724 152 l 1,8,-1
 502 374 l 1,9,-1
 281 152 l 1,10,-1
 191 238 l 1,11,-1
 414 461 l 1,0,-1
EndSplineSet
EndChar

StartChar: Oslash
Encoding: 216 216 172
Width: 1400
VWidth: 2088
Flags: W
LayerCount: 2
Fore
SplineSet
371 61 m 1,0,1
 71 231 71 231 71 632 c 0,2,3
 71 742 71 742 114.5 858.5 c 128,-1,4
 158 975 158 975 238.5 1059.5 c 128,-1,5
 319 1144 319 1144 436 1193 c 128,-1,6
 553 1242 553 1242 692.5 1242 c 128,-1,7
 832 1242 832 1242 948 1199 c 1,8,-1
 1005 1310 l 1,9,-1
 1105 1265 l 1,10,-1
 1046 1150 l 1,11,12
 1332 976 1332 976 1332 588 c 0,13,14
 1332 479 1332 479 1288.5 363 c 128,-1,15
 1245 247 1245 247 1164 164 c 0,16,17
 986 -20 986 -20 700 -20 c 0,18,19
 577 -20 577 -20 471 16 c 1,20,-1
 413 -98 l 1,21,-1
 313 -53 l 1,22,-1
 371 61 l 1,0,1
880 1063 m 1,23,24
 797 1099 797 1099 698 1100 c 0,25,26
 506 1100 506 1100 382.5 959.5 c 128,-1,27
 259 819 259 819 259 610 c 0,28,29
 259 484 259 484 307 378 c 128,-1,30
 355 272 355 272 443 206 c 1,31,-1
 880 1063 l 1,23,24
974 1006 m 1,32,-1
 539 152 l 1,33,34
 611 124 611 124 706 123.5 c 128,-1,35
 801 123 801 123 883 162 c 128,-1,36
 965 201 965 201 1023.5 266.5 c 128,-1,37
 1082 332 1082 332 1112.5 420.5 c 128,-1,38
 1143 509 1143 509 1143 621 c 128,-1,39
 1143 733 1143 733 1099.5 835.5 c 128,-1,40
 1056 938 1056 938 974 1006 c 1,32,-1
EndSplineSet
EndChar

StartChar: Thorn
Encoding: 222 222 178
Width: 1091
VWidth: 2088
Flags: W
LayerCount: 2
Fore
SplineSet
68 123 m 1,0,-1
 227 123 l 1,1,-1
 227 1100 l 1,2,-1
 68 1100 l 1,3,-1
 68 1223 l 1,4,-1
 397 1223 l 1,5,-1
 397 1062 l 1,6,-1
 632 1062 l 1,7,8
 860 1063 860 1063 971 939 c 0,9,10
 1054 845 1054 845 1053 713 c 128,-1,11
 1052 581 1052 581 1015.5 507.5 c 128,-1,12
 979 434 979 434 912 393 c 0,13,14
 794 318 794 318 553 318 c 2,15,-1
 399 318 l 1,16,-1
 399 123 l 1,17,-1
 567 123 l 1,18,-1
 567 0 l 1,19,-1
 68 0 l 1,20,-1
 68 123 l 1,0,-1
397 450 m 1,21,-1
 586 450 l 2,22,23
 819 450 819 450 864 599 c 1,24,25
 876 642 876 642 878 695 c 1,26,27
 878 811 878 811 815 869 c 128,-1,28
 752 927 752 927 637 927 c 2,29,-1
 397 927 l 1,30,-1
 397 450 l 1,21,-1
EndSplineSet
EndChar

StartChar: germandbls
Encoding: 223 223 179
Width: 1181
VWidth: 2088
Flags: W
LayerCount: 2
Fore
SplineSet
632 1111 m 0,0,1
 384 1111 384 1111 384 838 c 2,2,-1
 384 123 l 1,3,-1
 523 123 l 1,4,-1
 523 0 l 1,5,-1
 77 0 l 1,6,-1
 77 123 l 1,7,-1
 235 123 l 1,8,-1
 235 833 l 2,9,10
 235 1133 235 1133 456 1215 c 0,11,12
 531 1242 531 1242 620 1242 c 0,13,14
 787 1242 787 1242 884 1160.5 c 128,-1,15
 981 1079 981 1079 982 943 c 1,16,17
 982 738 982 738 794 681 c 1,18,19
 1012 645 1012 645 1079 481 c 0,20,21
 1125 366 1125 366 1074 220 c 0,22,23
 1051 152 1051 152 996 104 c 0,24,25
 880 0 880 0 650 0 c 1,26,-1
 650 123 l 1,27,28
 943 123 943 123 943 368 c 1,29,30
 944 536 944 536 767 586 c 0,31,32
 702 605 702 605 608 604 c 1,33,-1
 608 716 l 1,34,35
 721 716 721 716 775 779 c 128,-1,36
 829 842 829 842 829 927.5 c 128,-1,37
 829 1013 829 1013 775.5 1062 c 128,-1,38
 722 1111 722 1111 632 1111 c 0,0,1
EndSplineSet
EndChar

StartChar: ae
Encoding: 230 230 186
Width: 1541
VWidth: 2088
Flags: W
LayerCount: 2
Fore
SplineSet
1079 -24 m 0,0,1
 864 -24 864 -24 728 109 c 1,2,3
 523 -19 523 -19 351 -17 c 1,4,5
 220 -17 220 -17 140 57 c 128,-1,6
 60 131 60 131 59 234 c 1,7,8
 59 499 59 499 426 499 c 0,9,10
 523 499 523 499 631 478 c 1,11,-1
 631 581 l 2,12,13
 631 753 631 753 423 751 c 0,14,15
 290 751 290 751 227 665 c 1,16,-1
 79 706 l 1,17,18
 179 878 179 878 444 878 c 0,19,20
 666 878 666 878 744 721 c 1,21,22
 875 878 875 878 1071 878.5 c 128,-1,23
 1267 879 1267 879 1373 742.5 c 128,-1,24
 1479 606 1479 606 1479 405 c 2,25,-1
 1479 386 l 1,26,-1
 805 388 l 1,27,28
 829 189 829 189 972 127 c 1,29,30
 1018 106 1018 106 1082 107 c 1,31,32
 1250 107 1250 107 1343 230 c 1,33,-1
 1479 171 l 1,34,35
 1358 -24 1358 -24 1079 -24 c 0,0,1
1327 496 m 1,36,37
 1299 674 1299 674 1174 735 c 0,38,39
 1133 756 1133 756 1076 756 c 0,40,41
 966 756 966 756 895.5 683.5 c 128,-1,42
 825 611 825 611 810 496 c 1,43,-1
 1327 496 l 1,36,37
346 102 m 0,44,45
 528 102 528 102 631 189 c 1,46,-1
 631 374 l 1,47,48
 598 375 598 375 546.5 383 c 128,-1,49
 495 391 495 391 436 391 c 0,50,51
 208 391 208 391 208 234 c 0,52,53
 208 176 208 176 248 139 c 128,-1,54
 288 102 288 102 346 102 c 0,44,45
EndSplineSet
EndChar

StartChar: eth
Encoding: 240 240 196
Width: 1003
VWidth: 2088
Flags: W
LayerCount: 2
Fore
SplineSet
483 1242 m 0,0,1
 719 1242 719 1242 832 1033 c 1,2,-1
 1004 1067 l 1,3,-1
 1026 960 l 1,4,-1
 876 930 l 1,5,6
 920 792 920 792 920 624 c 0,7,8
 920 307 920 307 808.5 144 c 128,-1,9
 697 -19 697 -19 482 -19 c 0,10,11
 300 -19 300 -19 195 97.5 c 128,-1,12
 90 214 90 214 90 383.5 c 128,-1,13
 90 553 90 553 190 660 c 0,14,15
 291 766 291 766 471 767 c 128,-1,16
 651 768 651 768 760 679 c 1,17,18
 760 801 760 801 727 901 c 1,19,-1
 488 852 l 1,20,-1
 468 960 l 1,21,-1
 680 1003 l 1,22,23
 604 1109 604 1109 467 1109 c 128,-1,24
 330 1109 330 1109 221 1028 c 1,25,-1
 164 1147 l 1,26,27
 283 1242 283 1242 483 1242 c 0,0,1
752 539 m 1,28,29
 634 628 634 628 459 628 c 0,30,31
 367 628 367 628 305 561 c 128,-1,32
 243 494 243 494 243 384 c 0,33,34
 243 204 243 204 382 142 c 0,35,36
 427 123 427 123 488 123 c 0,37,38
 615 123 615 123 676.5 228.5 c 128,-1,39
 738 334 738 334 752 539 c 1,28,29
EndSplineSet
EndChar

StartChar: divide
Encoding: 247 247 203
Width: 1235
VWidth: 2088
Flags: W
LayerCount: 2
Fore
SplineSet
988 629 m 1,0,-1
 988 504 l 1,1,-1
 233 504 l 1,2,-1
 233 629 l 1,3,-1
 988 629 l 1,0,-1
531 1002 m 1,4,-1
 694 1002 l 1,5,-1
 694 840 l 1,6,-1
 531 840 l 1,7,-1
 531 1002 l 1,4,-1
531 292 m 1,8,-1
 694 292 l 1,9,-1
 694 128 l 1,10,-1
 531 128 l 1,11,-1
 531 292 l 1,8,-1
EndSplineSet
EndChar

StartChar: oslash
Encoding: 248 248 204
Width: 1025
VWidth: 2088
Flags: W
LayerCount: 2
Fore
SplineSet
366 1 m 1,0,-1
 296 -133 l 1,1,-1
 196 -88 l 1,2,-1
 265 45 l 1,3,4
 168 105 168 105 114.5 204.5 c 128,-1,5
 61 304 61 304 61 412 c 0,6,7
 61 616 61 616 185 743.5 c 128,-1,8
 309 871 309 871 513 871 c 0,9,10
 601 871 601 871 674 844 c 1,11,-1
 744 983 l 1,12,-1
 844 936 l 1,13,-1
 773 797 l 1,14,15
 866 737 866 737 915.5 640.5 c 128,-1,16
 965 544 965 544 965 439 c 128,-1,17
 965 334 965 334 933.5 253 c 128,-1,18
 902 172 902 172 843 111 c 128,-1,19
 784 50 784 50 699.5 15.5 c 128,-1,20
 615 -19 615 -19 526.5 -19 c 128,-1,21
 438 -19 438 -19 366 1 c 1,0,-1
610 719 m 1,22,23
 565 736 565 736 505 736 c 0,24,25
 382 736 382 736 305.5 648 c 128,-1,26
 229 560 229 560 229 412.5 c 128,-1,27
 229 265 229 265 330 177 c 1,28,-1
 610 719 l 1,22,23
704 662 m 1,29,-1
 428 124 l 1,30,31
 464 113 464 113 521 113 c 0,32,33
 640 113 640 113 718 201.5 c 128,-1,34
 796 290 796 290 796 432 c 128,-1,35
 796 574 796 574 704 662 c 1,29,-1
EndSplineSet
EndChar

StartChar: thorn
Encoding: 254 254 210
Width: 1087
VWidth: 2088
Flags: W
LayerCount: 2
Fore
SplineSet
338 749 m 1,0,1
 468 869 468 869 656 870 c 128,-1,2
 844 871 844 871 959 745 c 128,-1,3
 1074 619 1074 619 1075.5 430 c 128,-1,4
 1077 241 1077 241 959.5 111 c 128,-1,5
 842 -19 842 -19 651 -19 c 0,6,7
 504 -19 504 -19 396 60 c 0,8,9
 362 85 362 85 337 117 c 1,10,-1
 337 -321 l 1,11,-1
 25 -321 l 1,12,-1
 25 -190 l 1,13,-1
 179 -190 l 1,14,-1
 179 1100 l 1,15,-1
 26 1100 l 1,16,-1
 26 1223 l 1,17,-1
 338 1223 l 1,18,-1
 338 749 l 1,0,1
338 242 m 1,19,20
 519 126 519 126 617 113 c 1,21,22
 748 113 748 113 825 200.5 c 128,-1,23
 902 288 902 288 902 421 c 0,24,25
 902 554 902 554 823 645 c 128,-1,26
 744 736 744 736 604 736 c 128,-1,27
 464 736 464 736 338 599 c 1,28,-1
 338 242 l 1,19,20
EndSplineSet
EndChar

StartChar: hbar
Encoding: 295 295 212
Width: 1085
VWidth: 2088
Flags: W
LayerCount: 2
Fore
SplineSet
778 560 m 2,0,1
 778 737 778 737 629 736.5 c 128,-1,2
 480 736 480 736 341 643 c 1,3,-1
 341 123 l 1,4,-1
 496 123 l 1,5,-1
 496 0 l 1,6,-1
 22 0 l 1,7,-1
 22 123 l 1,8,-1
 184 123 l 1,9,-1
 184 935 l 1,10,-1
 91 935 l 1,11,-1
 91 1026 l 1,12,-1
 184 1026 l 1,13,-1
 184 1100 l 1,14,-1
 24 1100 l 1,15,-1
 24 1223 l 1,16,-1
 341 1223 l 1,17,-1
 341 1026 l 1,18,-1
 436 1026 l 1,19,-1
 436 935 l 1,20,-1
 341 935 l 1,21,-1
 341 771 l 1,22,23
 491 871 491 871 665 871 c 0,24,25
 936 871 936 871 934 590 c 2,26,-1
 934 123 l 1,27,-1
 1088 123 l 1,28,-1
 1088 0 l 1,29,-1
 670 0 l 1,30,-1
 670 123 l 1,31,-1
 778 123 l 1,32,-1
 778 560 l 2,0,1
EndSplineSet
EndChar

StartChar: dotlessi
Encoding: 305 305 215
Width: 539
VWidth: 2088
Flags: W
LayerCount: 2
Fore
SplineSet
63 120 m 1,0,-1
 206 120 l 1,1,-1
 206 731 l 1,2,-1
 63 731 l 1,3,-1
 63 853 l 1,4,-1
 365 853 l 1,5,-1
 365 120 l 1,6,-1
 508 120 l 1,7,-1
 508 0 l 1,8,-1
 63 0 l 1,9,-1
 63 120 l 1,0,-1
EndSplineSet
EndChar

StartChar: kgreenlandic
Encoding: 312 312 221
Width: 1055
VWidth: 2088
Flags: W
LayerCount: 2
Fore
SplineSet
21 123 m 1,0,-1
 184 123 l 1,1,-1
 184 731 l 1,2,-1
 21 731 l 1,3,-1
 21 853 l 1,4,-1
 340 853 l 1,5,-1
 340 445 l 1,6,-1
 690 731 l 1,7,-1
 541 731 l 1,8,-1
 541 853 l 1,9,-1
 1016 853 l 1,10,-1
 1016 731 l 1,11,-1
 877 731 l 1,12,-1
 524 429 l 1,13,-1
 887 123 l 1,14,-1
 1025 123 l 1,15,-1
 1025 0 l 1,16,-1
 579 0 l 1,17,-1
 579 123 l 1,18,-1
 691 123 l 1,19,-1
 340 419 l 1,20,-1
 340 123 l 1,21,-1
 451 123 l 1,22,-1
 451 0 l 1,23,-1
 21 0 l 1,24,-1
 21 123 l 1,0,-1
EndSplineSet
EndChar

StartChar: Lslash
Encoding: 321 321 224
Width: 1043
VWidth: 2088
Flags: W
LayerCount: 2
Fore
SplineSet
63 0 m 1,0,-1
 63 123 l 1,1,-1
 230 123 l 1,2,-1
 230 542 l 1,3,-1
 64 478 l 1,4,-1
 64 614 l 1,5,-1
 230 681 l 1,6,-1
 230 1100 l 1,7,-1
 63 1100 l 1,8,-1
 63 1223 l 1,9,-1
 566 1223 l 1,10,-1
 566 1100 l 1,11,-1
 401 1100 l 1,12,-1
 401 747 l 1,13,-1
 666 853 l 1,14,-1
 666 717 l 1,15,-1
 401 611 l 1,16,-1
 401 123 l 1,17,-1
 836 123 l 1,18,-1
 836 480 l 1,19,-1
 990 480 l 1,20,-1
 990 0 l 1,21,-1
 63 0 l 1,0,-1
EndSplineSet
EndChar

StartChar: lslash
Encoding: 322 322 225
Width: 516
VWidth: 2088
Flags: W
LayerCount: 2
Fore
SplineSet
22 0 m 1,0,-1
 22 123 l 1,1,-1
 184 123 l 1,2,-1
 184 531 l 1,3,-1
 37 478 l 1,4,-1
 37 614 l 1,5,-1
 184 671 l 1,6,-1
 184 1100 l 1,7,-1
 25 1100 l 1,8,-1
 25 1223 l 1,9,-1
 341 1223 l 1,10,-1
 341 732 l 1,11,-1
 501 794 l 1,12,-1
 501 648 l 1,13,-1
 341 590 l 1,14,-1
 341 123 l 1,15,-1
 483 123 l 1,16,-1
 483 0 l 1,17,-1
 22 0 l 1,0,-1
EndSplineSet
EndChar

StartChar: OE
Encoding: 338 338 228
Width: 2036
VWidth: 2088
Flags: W
LayerCount: 2
Fore
SplineSet
1080 1121 m 1,0,-1
 1080 1223 l 1,1,-1
 1943 1223 l 1,2,-1
 1943 883 l 1,3,-1
 1804 883 l 1,4,-1
 1804 1100 l 1,5,-1
 1247 1100 l 1,6,-1
 1247 695 l 1,7,-1
 1632 695 l 1,8,-1
 1632 816 l 1,9,-1
 1738 816 l 1,10,-1
 1738 434 l 1,11,-1
 1630 434 l 1,12,-1
 1630 558 l 1,13,-1
 1249 558 l 1,14,-1
 1249 123 l 1,15,-1
 1807 123 l 1,16,-1
 1807 347 l 1,17,-1
 1943 347 l 1,18,-1
 1943 0 l 1,19,-1
 1080 0 l 1,20,-1
 1080 101 l 1,21,22
 925 -19 925 -19 662 -19 c 128,-1,23
 399 -19 399 -19 235 160 c 128,-1,24
 71 339 71 339 71 611 c 0,25,26
 71 883 71 883 235 1062 c 128,-1,27
 399 1241 399 1241 661.5 1241.5 c 128,-1,28
 924 1242 924 1242 1080 1121 c 1,0,-1
1080 990 m 1,29,30
 900 1100 900 1100 704 1101 c 0,31,32
 509 1102 509 1102 384.5 976 c 128,-1,33
 260 850 260 850 260 612 c 0,34,35
 260 374 260 374 391 248.5 c 128,-1,36
 522 123 522 123 714 123 c 128,-1,37
 906 123 906 123 1080 248 c 1,38,-1
 1080 990 l 1,29,30
EndSplineSet
EndChar

StartChar: oe
Encoding: 339 339 229
Width: 1748
VWidth: 2088
Flags: W
LayerCount: 2
Fore
SplineSet
1654 167 m 1,0,1
 1534 -19 1534 -19 1274 -19 c 128,-1,2
 1014 -19 1014 -19 884 183 c 1,3,4
 755 -19 755 -19 511 -19 c 0,5,6
 309 -19 309 -19 185 109 c 128,-1,7
 61 237 61 237 60.5 425.5 c 128,-1,8
 60 614 60 614 184.5 742.5 c 128,-1,9
 309 871 309 871 513 871 c 0,10,11
 637 871 637 871 731.5 816 c 128,-1,12
 826 761 826 761 885 669 c 1,13,14
 948 763 948 763 1044.5 817 c 128,-1,15
 1141 871 1141 871 1253 871 c 0,16,17
 1463 871 1463 871 1574.5 734.5 c 128,-1,18
 1686 598 1686 598 1687 388 c 1,19,-1
 965 388 l 1,20,21
 972 264 972 264 1053 188.5 c 128,-1,22
 1134 113 1134 113 1265.5 113 c 128,-1,23
 1397 113 1397 113 1495 192 c 0,24,25
 1526 216 1526 216 1546 246 c 1,26,-1
 1654 167 l 1,0,1
717.5 648 m 128,-1,28
 639 736 639 736 511.5 736 c 128,-1,29
 384 736 384 736 306.5 648 c 128,-1,30
 229 560 229 560 229 425.5 c 128,-1,31
 229 291 229 291 306.5 202.5 c 128,-1,32
 384 114 384 114 511.5 114 c 128,-1,33
 639 114 639 114 717.5 202.5 c 128,-1,34
 796 291 796 291 796 425.5 c 128,-1,27
 796 560 796 560 717.5 648 c 128,-1,28
1533 496 m 1,35,36
 1520 603 1520 603 1449.5 669.5 c 128,-1,37
 1379 736 1379 736 1264 736 c 0,38,39
 1073 736 1073 736 1002 594 c 1,40,41
 979 551 979 551 971 496 c 1,42,-1
 1533 496 l 1,35,36
EndSplineSet
EndChar

StartChar: florin
Encoding: 402 402 240
Width: 971
VWidth: 2088
Flags: W
LayerCount: 2
Fore
SplineSet
830 997 m 1,0,1
 830 1158 830 1158 747 1156 c 0,2,3
 684 1156 684 1156 652 1104.5 c 128,-1,4
 620 1053 620 1053 600 946 c 2,5,-1
 565 764 l 1,6,-1
 790 764 l 1,7,-1
 772 675 l 1,8,-1
 545 675 l 1,9,-1
 425 64 l 1,10,11
 362 -258 362 -258 179 -320 c 0,12,13
 118 -339 118 -339 55.5 -339 c 128,-1,14
 -7 -339 -7 -339 -58 -325 c 1,15,-1
 -37 -236 l 1,16,17
 27 -248 27 -248 56 -248 c 0,18,19
 128 -248 128 -248 174.5 -178 c 128,-1,20
 221 -108 221 -108 257 65 c 2,21,-1
 377 675 l 1,22,-1
 202 675 l 1,23,-1
 219 764 l 1,24,-1
 392 764 l 1,25,-1
 424 932 l 2,26,27
 453 1080 453 1080 532.5 1161.5 c 128,-1,28
 612 1243 612 1243 741 1243 c 128,-1,29
 870 1243 870 1243 926.5 1207 c 128,-1,30
 983 1171 983 1171 983 1112 c 0,31,32
 982 998 982 998 830 997 c 1,0,1
EndSplineSet
EndChar

StartChar: uni0237
Encoding: 567 567 269
Width: 467
VWidth: 2088
Flags: W
LayerCount: 2
Fore
SplineSet
11 731 m 1,0,-1
 11 853 l 1,1,-1
 333 853 l 1,2,-1
 333 20 l 2,3,4
 333 -153 333 -153 296.5 -210.5 c 128,-1,5
 260 -268 260 -268 198.5 -294.5 c 128,-1,6
 137 -321 137 -321 32 -321 c 2,7,-1
 -64 -321 l 1,8,-1
 -64 -190 l 1,9,-1
 49 -190 l 2,10,11
 120 -190 120 -190 147 -146.5 c 128,-1,12
 174 -103 174 -103 174 -8 c 2,13,-1
 174 731 l 1,14,-1
 11 731 l 1,0,-1
EndSplineSet
EndChar

StartChar: circumflex
Encoding: 710 710 270
Width: 629
VWidth: 2088
Flags: W
LayerCount: 2
Fore
SplineSet
62 950 m 1,0,-1
 166 1242 l 1,1,-1
 457 1242 l 1,2,-1
 568 950 l 1,3,-1
 410 950 l 1,4,-1
 312 1195 l 1,5,-1
 213 950 l 1,6,-1
 62 950 l 1,0,-1
EndSplineSet
EndChar

StartChar: caron
Encoding: 711 711 271
Width: 629
VWidth: 2088
Flags: W
LayerCount: 2
Fore
SplineSet
155 1242 m 1,0,-1
 317 1080 l 1,1,-1
 479 1242 l 1,2,-1
 589 1242 l 1,3,-1
 420 967 l 1,4,-1
 212 967 l 1,5,-1
 40 1242 l 1,6,-1
 155 1242 l 1,0,-1
EndSplineSet
EndChar

StartChar: breve
Encoding: 728 728 272
Width: 619
VWidth: 2088
Flags: W
LayerCount: 2
Fore
SplineSet
154 1223 m 1,0,1
 176 1098 176 1098 310 1098 c 0,2,3
 374 1098 374 1098 415.5 1130.5 c 128,-1,4
 457 1163 457 1163 467 1223 c 1,5,-1
 584 1223 l 1,6,7
 568 1066 568 1066 415 1014 c 0,8,9
 368 998 368 998 310 998 c 0,10,11
 197 998 197 998 120.5 1059 c 128,-1,12
 44 1120 44 1120 35 1223 c 1,13,-1
 154 1223 l 1,0,1
EndSplineSet
EndChar

StartChar: dotaccent
Encoding: 729 729 273
Width: 566
VWidth: 2088
Flags: W
LayerCount: 2
Fore
SplineSet
285 1194 m 0,0,1
 350 1194 350 1194 374 1137 c 0,2,3
 381 1120 381 1120 381 1102 c 0,4,5
 382 1040 382 1040 322 1015 c 0,6,7
 306 1008 306 1008 276 1008 c 0,8,9
 246 1008 246 1008 217 1035.5 c 128,-1,10
 188 1063 188 1063 188 1102 c 0,11,12
 187 1140 187 1140 216 1167 c 128,-1,13
 245 1194 245 1194 285 1194 c 0,0,1
EndSplineSet
EndChar

StartChar: ring
Encoding: 730 730 274
Width: 598
VWidth: 2088
Flags: W
LayerCount: 2
Fore
SplineSet
171.5 1226.5 m 128,-1,1
 222 1275 222 1275 298.5 1275 c 128,-1,2
 375 1275 375 1275 427 1226.5 c 128,-1,3
 479 1178 479 1178 479.5 1105.5 c 128,-1,4
 480 1033 480 1033 427 984 c 128,-1,5
 374 935 374 935 298.5 934.5 c 128,-1,6
 223 934 223 934 172 983.5 c 128,-1,7
 121 1033 121 1033 121 1105.5 c 128,-1,0
 121 1178 121 1178 171.5 1226.5 c 128,-1,1
342 1201 m 1,8,9
 322 1210 322 1210 288 1210 c 128,-1,10
 254 1210 254 1210 221 1179.5 c 128,-1,11
 188 1149 188 1149 188.5 1104.5 c 128,-1,12
 189 1060 189 1060 220.5 1031 c 128,-1,13
 252 1002 252 1002 299 1001 c 1,14,15
 373 1001 373 1001 401 1064 c 0,16,17
 409 1083 409 1083 409 1106 c 0,18,19
 409 1176 409 1176 342 1201 c 1,8,9
EndSplineSet
EndChar

StartChar: ogonek
Encoding: 731 731 275
Width: 622
VWidth: 2088
Flags: W
LayerCount: 2
Fore
SplineSet
209 0 m 1,0,-1
 329 0 l 1,1,2
 283 -66 283 -66 283 -133 c 0,3,4
 283 -246 283 -246 387 -246 c 0,5,6
 431 -246 431 -246 479 -226 c 1,7,-1
 479 -335 l 1,8,9
 397 -373 397 -373 345 -375 c 0,10,11
 253 -375 253 -375 198.5 -323 c 128,-1,12
 144 -271 144 -271 144 -187 c 128,-1,13
 144 -103 144 -103 209 0 c 1,0,-1
EndSplineSet
EndChar

StartChar: tilde
Encoding: 732 732 276
Width: 622
VWidth: 2088
Flags: W
LayerCount: 2
Fore
SplineSet
-11 1020 m 1,0,1
 6 1242 6 1242 186 1242 c 0,2,3
 231 1242 231 1242 332.5 1205 c 128,-1,4
 434 1168 434 1168 471 1168 c 0,5,6
 537 1168 537 1168 551 1237 c 1,7,-1
 634 1237 l 1,8,9
 626 1131 626 1131 577 1071 c 128,-1,10
 528 1011 528 1011 453.5 1011.5 c 128,-1,11
 379 1012 379 1012 281.5 1049.5 c 128,-1,12
 184 1087 184 1087 144 1087 c 0,13,14
 84 1087 84 1087 74 1020 c 1,15,-1
 -11 1020 l 1,0,1
EndSplineSet
EndChar

StartChar: hungarumlaut
Encoding: 733 733 277
Width: 622
VWidth: 2088
Flags: W
LayerCount: 2
Fore
SplineSet
304 953 m 1,0,-1
 400 1242 l 1,1,-1
 602 1242 l 1,2,-1
 405 953 l 1,3,-1
 304 953 l 1,0,-1
26 953 m 1,4,-1
 123 1242 l 1,5,-1
 324 1242 l 1,6,-1
 128 953 l 1,7,-1
 26 953 l 1,4,-1
EndSplineSet
EndChar

StartChar: uni0307
Encoding: 775 775 278
Width: 566
VWidth: 2088
Flags: W
LayerCount: 2
Fore
SplineSet
285 1194 m 0,0,1
 350 1194 350 1194 374 1137 c 0,2,3
 381 1120 381 1120 381 1102 c 0,4,5
 382 1040 382 1040 322 1015 c 0,6,7
 306 1008 306 1008 276 1008 c 0,8,9
 246 1008 246 1008 217 1035.5 c 128,-1,10
 188 1063 188 1063 188 1102 c 0,11,12
 187 1140 187 1140 216 1167 c 128,-1,13
 245 1194 245 1194 285 1194 c 0,0,1
EndSplineSet
EndChar

StartChar: uni030F
Encoding: 783 783 279
Width: 622
VWidth: 2088
Flags: W
LayerCount: 2
Fore
SplineSet
192 953 m 1,0,-1
 -3 1242 l 1,1,-1
 198 1242 l 1,2,-1
 294 953 l 1,3,-1
 192 953 l 1,0,-1
471 953 m 1,4,-1
 274 1242 l 1,5,-1
 476 1242 l 1,6,-1
 572 953 l 1,7,-1
 471 953 l 1,4,-1
EndSplineSet
EndChar

StartChar: uni0311
Encoding: 785 785 280
Width: 619
VWidth: 2088
Flags: W
LayerCount: 2
Fore
SplineSet
310 1122 m 0,0,1
 176 1122 176 1122 154 998 c 1,2,-1
 35 998 l 1,3,4
 44 1099 44 1099 120.5 1160.5 c 128,-1,5
 197 1222 197 1222 310 1222 c 0,6,7
 423 1222 423 1222 498.5 1160.5 c 128,-1,8
 574 1099 574 1099 584 998 c 1,9,-1
 467 998 l 1,10,11
 458 1059 458 1059 416 1090.5 c 128,-1,12
 374 1122 374 1122 310 1122 c 0,0,1
EndSplineSet
EndChar

StartChar: uni0326
Encoding: 806 806 281
Width: 586
VWidth: 2088
Flags: W
LayerCount: 2
Fore
SplineSet
161 -71 m 1,0,-1
 386 -71 l 1,1,-1
 386 -295 l 1,2,3
 384 -482 384 -482 266 -528 c 0,4,5
 224 -545 224 -545 161 -546 c 1,6,-1
 161 -452 l 1,7,8
 222 -440 222 -440 247.5 -406 c 128,-1,9
 273 -372 273 -372 273 -295 c 1,10,-1
 161 -295 l 1,11,-1
 161 -71 l 1,0,-1
EndSplineSet
EndChar

StartChar: pi
Encoding: 960 960 282
Width: 1093
VWidth: 2088
Flags: W
LayerCount: 2
Fore
SplineSet
829 780 m 1,0,-1
 824 522 l 1,1,-1
 822 369 l 2,2,3
 820 288 820 288 820 220 c 0,4,5
 820 100 820 100 917 100 c 0,6,7
 943 100 943 100 989 115 c 1,8,-1
 989 28 l 1,9,10
 940 -14 940 -14 856 -14 c 0,11,12
 682 -14 682 -14 684 195 c 0,13,14
 684 344 684 344 723 780 c 1,15,-1
 403 780 l 1,16,-1
 380 296 l 2,17,18
 372 146 372 146 319 73 c 128,-1,19
 266 0 266 0 148 0 c 2,20,-1
 73 0 l 1,21,-1
 73 81 l 1,22,23
 215 81 215 81 245 338 c 0,24,25
 257 447 257 447 271 558.5 c 128,-1,26
 285 670 285 670 296 780 c 1,27,-1
 234 780 l 2,28,29
 146 780 146 780 134 672 c 1,30,-1
 55 672 l 1,31,32
 55 854 55 854 159 910 c 1,33,34
 195 931 195 931 247 930 c 1,35,-1
 1020 930 l 1,36,-1
 1020 780 l 1,37,-1
 829 780 l 1,0,-1
EndSplineSet
EndChar

StartChar: endash
Encoding: 8211 8211 283
Width: 927
VWidth: 2088
Flags: W
LayerCount: 2
Fore
SplineSet
927 514 m 1,0,-1
 927 391 l 1,1,-1
 0 391 l 1,2,-1
 0 514 l 1,3,-1
 927 514 l 1,0,-1
EndSplineSet
EndChar

StartChar: emdash
Encoding: 8212 8212 284
Width: 1748
VWidth: 2088
Flags: W
LayerCount: 2
Fore
SplineSet
1748 514 m 1,0,-1
 1748 391 l 1,1,-1
 0 391 l 1,2,-1
 0 514 l 1,3,-1
 1748 514 l 1,0,-1
EndSplineSet
EndChar

StartChar: quoteleft
Encoding: 8216 8216 285
Width: 404
VWidth: 2088
Flags: W
LayerCount: 2
Fore
SplineSet
317 768 m 1,0,-1
 87 768 l 1,1,-1
 87 991 l 2,2,3
 87 1183 87 1183 208 1226 c 1,4,5
 252 1243 252 1243 317 1242 c 1,6,-1
 317 1149 l 1,7,8
 249 1135 249 1135 224.5 1101 c 128,-1,9
 200 1067 200 1067 200 991 c 1,10,-1
 317 991 l 1,11,-1
 317 768 l 1,0,-1
EndSplineSet
EndChar

StartChar: quoteright
Encoding: 8217 8217 286
Width: 385
VWidth: 2088
Flags: W
LayerCount: 2
Fore
SplineSet
87 1223 m 1,0,-1
 317 1223 l 1,1,-1
 317 1000 l 1,2,3
 316 808 316 808 195 764 c 1,4,5
 152 747 152 747 87 747 c 1,6,-1
 87 840 l 1,7,8
 156 854 156 854 181 888.5 c 128,-1,9
 206 923 206 923 205 1000 c 1,10,-1
 87 1000 l 1,11,-1
 87 1223 l 1,0,-1
EndSplineSet
EndChar

StartChar: quotesinglbase
Encoding: 8218 8218 287
Width: 413
VWidth: 2088
Flags: W
LayerCount: 2
Fore
SplineSet
87 223 m 1,0,-1
 317 223 l 1,1,-1
 317 0 l 1,2,3
 316 -191 316 -191 195 -235 c 1,4,5
 152 -252 152 -252 87 -250 c 1,6,-1
 87 -160 l 1,7,8
 156 -145 156 -145 181 -111 c 128,-1,9
 206 -77 206 -77 205 0 c 1,10,-1
 87 0 l 1,11,-1
 87 223 l 1,0,-1
EndSplineSet
EndChar

StartChar: quotedblleft
Encoding: 8220 8220 288
Width: 763
VWidth: 2088
Flags: W
LayerCount: 2
Fore
SplineSet
671 768 m 1,0,-1
 440 768 l 1,1,-1
 440 991 l 1,2,3
 441 1183 441 1183 563 1226 c 0,4,5
 607 1243 607 1243 671 1242 c 1,6,-1
 671 1149 l 1,7,8
 603 1135 603 1135 577 1101 c 128,-1,9
 551 1067 551 1067 552 991 c 1,10,-1
 671 991 l 1,11,-1
 671 768 l 1,0,-1
317 768 m 1,12,-1
 87 768 l 1,13,-1
 87 991 l 2,14,15
 87 1183 87 1183 208 1226 c 1,16,17
 252 1243 252 1243 317 1242 c 1,18,-1
 317 1149 l 1,19,20
 249 1135 249 1135 224.5 1101 c 128,-1,21
 200 1067 200 1067 200 991 c 1,22,-1
 317 991 l 1,23,-1
 317 768 l 1,12,-1
EndSplineSet
EndChar

StartChar: quotedblright
Encoding: 8221 8221 289
Width: 746
VWidth: 2088
Flags: W
LayerCount: 2
Fore
SplineSet
87 1223 m 1,0,-1
 317 1223 l 1,1,-1
 317 1000 l 1,2,3
 316 808 316 808 195 764 c 1,4,5
 152 747 152 747 87 747 c 1,6,-1
 87 840 l 1,7,8
 156 854 156 854 181 888.5 c 128,-1,9
 206 923 206 923 205 1000 c 1,10,-1
 87 1000 l 1,11,-1
 87 1223 l 1,0,-1
440 1223 m 1,12,-1
 671 1223 l 1,13,-1
 671 1000 l 2,14,15
 671 808 671 808 549 764 c 0,16,17
 505 747 505 747 440 747 c 1,18,-1
 440 840 l 1,19,20
 507 854 507 854 532.5 888.5 c 128,-1,21
 558 923 558 923 558 1000 c 1,22,-1
 440 1000 l 1,23,-1
 440 1223 l 1,12,-1
EndSplineSet
EndChar

StartChar: quotedblbase
Encoding: 8222 8222 290
Width: 832
VWidth: 2088
Flags: W
LayerCount: 2
Fore
SplineSet
510 223 m 1,0,-1
 740 223 l 1,1,-1
 740 0 l 2,2,3
 740 -191 740 -191 619 -235 c 1,4,5
 576 -252 576 -252 510 -250 c 1,6,-1
 510 -160 l 1,7,8
 578 -145 578 -145 603 -111 c 128,-1,9
 628 -77 628 -77 628 0 c 1,10,-1
 510 0 l 1,11,-1
 510 223 l 1,0,-1
87 223 m 1,12,-1
 317 223 l 1,13,-1
 317 0 l 1,14,15
 316 -191 316 -191 195 -235 c 1,16,17
 152 -252 152 -252 87 -250 c 1,18,-1
 87 -160 l 1,19,20
 156 -145 156 -145 181 -111 c 128,-1,21
 206 -77 206 -77 205 0 c 1,22,-1
 87 0 l 1,23,-1
 87 223 l 1,12,-1
EndSplineSet
EndChar

StartChar: dagger
Encoding: 8224 8224 291
Width: 973
VWidth: 2088
Flags: W
LayerCount: 2
Fore
SplineSet
441 -240 m 1,0,1
 441 317 441 317 364 819 c 1,2,-1
 441 1065 l 1,3,-1
 77 1004 l 1,4,-1
 77 1191 l 1,5,-1
 441 1134 l 1,6,-1
 384 1650 l 1,7,-1
 593 1650 l 1,8,-1
 532 1134 l 1,9,-1
 898 1191 l 1,10,-1
 898 1004 l 1,11,-1
 532 1065 l 1,12,-1
 615 819 l 1,13,14
 532 322 532 322 532 -240 c 1,15,-1
 441 -240 l 1,0,1
EndSplineSet
EndChar

StartChar: daggerdbl
Encoding: 8225 8225 292
Width: 973
VWidth: 2088
Flags: W
LayerCount: 2
Fore
SplineSet
516 709 m 1,0,1
 539 527 539 527 615 483 c 1,2,-1
 532 236 l 1,3,-1
 898 298 l 1,4,-1
 898 110 l 1,5,-1
 532 168 l 1,6,-1
 593 -240 l 1,7,-1
 384 -240 l 1,8,-1
 441 168 l 1,9,-1
 77 110 l 1,10,-1
 77 298 l 1,11,-1
 441 236 l 1,12,-1
 364 483 l 1,13,14
 436 537 436 537 456 711 c 1,15,16
 434 894 434 894 364 927 c 1,17,-1
 441 1174 l 1,18,-1
 77 1113 l 1,19,-1
 77 1300 l 1,20,-1
 441 1242 l 1,21,-1
 384 1650 l 1,22,-1
 593 1650 l 1,23,-1
 532 1242 l 1,24,-1
 898 1300 l 1,25,-1
 898 1113 l 1,26,-1
 532 1174 l 1,27,-1
 615 927 l 1,28,29
 539 883 539 883 516 709 c 1,0,1
EndSplineSet
EndChar

StartChar: bullet
Encoding: 8226 8226 293
Width: 591
VWidth: 2088
Flags: W
LayerCount: 2
Fore
SplineSet
297 800 m 256,0,1
 386 800 386 800 448 741 c 128,-1,2
 510 682 510 682 510 596 c 0,3,4
 510 511 510 511 448 451 c 128,-1,5
 386 391 386 391 297 391 c 256,6,7
 208 391 208 391 146.5 450 c 128,-1,8
 85 509 85 509 85 596 c 0,9,10
 85 683 85 683 146.5 741.5 c 128,-1,11
 208 800 208 800 297 800 c 256,0,1
EndSplineSet
EndChar

StartChar: ellipsis
Encoding: 8230 8230 294
Width: 1317
VWidth: 2088
Flags: W
LayerCount: 2
Fore
SplineSet
332 223 m 1,0,-1
 332 0 l 1,1,-1
 91 0 l 1,2,-1
 91 223 l 1,3,-1
 332 223 l 1,0,-1
772 223 m 1,4,-1
 772 0 l 1,5,-1
 530 0 l 1,6,-1
 530 223 l 1,7,-1
 772 223 l 1,4,-1
1211 223 m 1,8,-1
 1211 0 l 1,9,-1
 971 0 l 1,10,-1
 971 223 l 1,11,-1
 1211 223 l 1,8,-1
EndSplineSet
EndChar

StartChar: guilsinglleft
Encoding: 8249 8249 295
Width: 723
VWidth: 2088
Flags: W
LayerCount: 2
Fore
SplineSet
140 621 m 1,0,-1
 474 1000 l 1,1,-1
 583 1000 l 1,2,-1
 364 587 l 1,3,-1
 583 175 l 1,4,-1
 474 175 l 1,5,-1
 140 551 l 1,6,-1
 140 621 l 1,0,-1
EndSplineSet
EndChar

StartChar: guilsinglright
Encoding: 8250 8250 296
Width: 723
VWidth: 2088
Flags: W
LayerCount: 2
Fore
SplineSet
585 551 m 1,0,-1
 252 175 l 1,1,-1
 142 175 l 1,2,-1
 364 587 l 1,3,-1
 142 1000 l 1,4,-1
 252 1000 l 1,5,-1
 585 621 l 1,6,-1
 585 551 l 1,0,-1
EndSplineSet
EndChar

StartChar: fraction
Encoding: 8260 8260 297
Width: 841
VWidth: 2088
Flags: W
LayerCount: 2
Fore
SplineSet
598 1242 m 1,0,-1
 734 1242 l 1,1,-1
 274 -19 l 1,2,-1
 136 -19 l 1,3,-1
 598 1242 l 1,0,-1
EndSplineSet
EndChar

StartChar: uni2074
Encoding: 8308 8308 298
Width: 928
VWidth: 2088
Flags: W
LayerCount: 2
Fore
SplineSet
756 100 m 1,0,-1
 756 0 l 1,1,-1
 368 0 l 1,2,-1
 368 100 l 1,3,-1
 507 100 l 1,4,-1
 507 270 l 1,5,-1
 113 270 l 1,6,-1
 113 374 l 1,7,-1
 510 988 l 1,8,-1
 629 988 l 1,9,-1
 629 374 l 1,10,-1
 792 374 l 1,11,-1
 792 270 l 1,12,-1
 629 270 l 1,13,-1
 629 100 l 1,14,-1
 756 100 l 1,0,-1
507 374 m 1,15,-1
 507 812 l 1,16,-1
 237 374 l 1,17,-1
 507 374 l 1,15,-1
EndSplineSet
EndChar

StartChar: Euro
Encoding: 8364 8364 299
Width: 1159
VWidth: 2088
Flags: W
LayerCount: 2
Fore
SplineSet
379 456 m 1,0,1
 498 191 498 191 694 123 c 1,2,3
 854 123 854 123 933 270 c 0,4,5
 962 324 962 324 980 401 c 1,6,-1
 1122 325 l 1,7,8
 1060 134 1060 134 927 48 c 0,9,10
 821 -21 821 -21 702 -19 c 0,11,12
 489 -19 489 -19 357.5 108.5 c 128,-1,13
 226 236 226 236 191 456 c 1,14,-1
 31 456 l 1,15,-1
 31 578 l 1,16,-1
 180 578 l 1,17,-1
 180 610 l 2,18,19
 180 653 180 653 184 698 c 1,20,-1
 31 698 l 1,21,-1
 31 818 l 1,22,-1
 204 818 l 1,23,24
 274 1113 274 1113 499 1210 c 0,25,26
 576 1242 576 1242 669 1242 c 0,27,28
 841 1242 841 1242 951 1106 c 1,29,-1
 951 1223 l 1,30,-1
 1090 1223 l 1,31,-1
 1090 852 l 1,32,-1
 956 852 l 1,33,34
 829 1056 829 1056 688 1100 c 1,35,36
 523 1100 523 1100 434 933 c 0,37,38
 407 880 407 880 392 818 c 1,39,-1
 655 818 l 1,40,-1
 655 698 l 1,41,-1
 371 698 l 1,42,43
 368 659 368 659 368 615 c 2,44,-1
 368 578 l 1,45,-1
 655 578 l 1,46,-1
 655 456 l 1,47,-1
 379 456 l 1,0,1
EndSplineSet
EndChar

StartChar: trademark
Encoding: 8482 8482 300
Width: 2105
VWidth: 2088
Flags: W
LayerCount: 2
Fore
SplineSet
838 1223 m 1,0,-1
 838 952 l 1,1,-1
 726 952 l 1,2,-1
 726 1121 l 1,3,-1
 556 1121 l 1,4,-1
 556 512 l 1,5,-1
 684 512 l 1,6,-1
 684 412 l 1,7,-1
 293 412 l 1,8,-1
 293 512 l 1,9,-1
 420 512 l 1,10,-1
 420 1121 l 1,11,-1
 244 1121 l 1,12,-1
 244 952 l 1,13,-1
 134 952 l 1,14,-1
 134 1223 l 1,15,-1
 838 1223 l 1,0,-1
1009 1121 m 1,16,-1
 901 1121 l 1,17,-1
 901 1223 l 1,18,-1
 1197 1223 l 1,19,-1
 1431 673 l 1,20,-1
 1670 1223 l 1,21,-1
 1968 1223 l 1,22,-1
 1968 1121 l 1,23,-1
 1861 1121 l 1,24,-1
 1861 512 l 1,25,-1
 1968 512 l 1,26,-1
 1968 412 l 1,27,-1
 1641 412 l 1,28,-1
 1641 512 l 1,29,-1
 1739 512 l 1,30,-1
 1739 1077 l 1,31,-1
 1450 412 l 1,32,-1
 1409 412 l 1,33,-1
 1121 1074 l 1,34,-1
 1121 512 l 1,35,-1
 1220 512 l 1,36,-1
 1220 412 l 1,37,-1
 901 412 l 1,38,-1
 901 512 l 1,39,-1
 1009 512 l 1,40,-1
 1009 1121 l 1,16,-1
EndSplineSet
EndChar

StartChar: partialdiff
Encoding: 8706 8706 301
Width: 865
VWidth: 2088
Flags: W
LayerCount: 2
Fore
SplineSet
332 -17 m 0,0,1
 53 -17 53 -17 57 312 c 0,2,3
 59 468 59 468 154 619 c 1,4,5
 224 731 224 731 341 779 c 0,6,7
 403 803 403 803 480 803 c 0,8,9
 626 803 626 803 693 685 c 1,10,11
 696 687 696 687 696 747 c 2,12,-1
 696 762 l 2,13,14
 696 1030 696 1030 565 1121 c 0,15,16
 524 1150 524 1150 456 1150 c 128,-1,17
 388 1150 388 1150 345 1103.5 c 128,-1,18
 302 1057 302 1057 302 989 c 1,19,20
 176 989 176 989 176 1084 c 0,21,22
 176 1159 176 1159 241 1206 c 128,-1,23
 306 1253 306 1253 412 1253 c 0,24,25
 602 1253 602 1253 697 1129 c 128,-1,26
 792 1005 792 1005 792 807 c 0,27,28
 792 474 792 474 691 252 c 1,29,30
 567 -18 567 -18 332 -17 c 0,0,1
236 271 m 1,31,32
 236 84 236 84 387 84 c 1,33,34
 489 83 489 83 567.5 219.5 c 128,-1,35
 646 356 646 356 672 542 c 1,36,37
 646 655 646 655 563 696 c 0,38,39
 536 709 536 709 496.5 709 c 128,-1,40
 457 709 457 709 419 688 c 0,41,42
 318 631 318 631 266 456 c 1,43,44
 237 362 237 362 236 271 c 1,31,32
EndSplineSet
EndChar

StartChar: uni2206
Encoding: 8710 8710 302
Width: 1056
VWidth: 2088
Flags: W
LayerCount: 2
Fore
SplineSet
1001 0 m 1,0,-1
 50 0 l 1,1,-1
 50 97 l 1,2,-1
 454 1237 l 1,3,-1
 612 1237 l 1,4,-1
 1001 108 l 1,5,-1
 1001 0 l 1,0,-1
798 124 m 1,6,7
 743 292 743 292 687.5 459 c 128,-1,8
 632 626 632 626 592 748 c 128,-1,9
 552 870 552 870 531.5 931 c 128,-1,10
 511 992 511 992 497 1053 c 1,11,12
 474 949 474 949 422 807 c 2,13,-1
 182 124 l 1,14,-1
 798 124 l 1,6,7
EndSplineSet
EndChar

StartChar: product
Encoding: 8719 8719 303
Width: 1377
VWidth: 2088
Flags: W
LayerCount: 2
Fore
SplineSet
1307 1223 m 1,0,-1
 1307 1142 l 1,1,-1
 1281 1142 l 1,2,3
 1213 1143 1213 1143 1190 1126 c 0,4,5
 1146 1095 1146 1095 1144 1023 c 2,6,-1
 1144 212 l 1,7,8
 1147 116 1147 116 1228 104 c 0,9,10
 1252 100 1252 100 1281 100 c 2,11,-1
 1307 100 l 1,12,-1
 1307 19 l 1,13,-1
 798 19 l 1,14,-1
 798 100 l 1,15,-1
 824 100 l 2,16,17
 893 100 893 100 916 116 c 0,18,19
 960 147 960 147 961 220 c 2,20,-1
 961 1129 l 1,21,-1
 409 1129 l 1,22,-1
 409 220 l 2,23,24
 409 116 409 116 495 104 c 0,25,26
 520 100 520 100 547 100 c 2,27,-1
 575 100 l 1,28,-1
 575 19 l 1,29,-1
 65 19 l 1,30,-1
 65 100 l 1,31,-1
 90 100 l 2,32,33
 160 100 160 100 183 116 c 0,34,35
 228 147 228 147 228 220 c 2,36,-1
 228 1030 l 1,37,38
 224 1126 224 1126 141 1139 c 0,39,40
 117 1143 117 1143 90 1142 c 1,41,-1
 65 1142 l 1,42,-1
 65 1223 l 1,43,-1
 1307 1223 l 1,0,-1
EndSplineSet
EndChar

StartChar: summation
Encoding: 8721 8721 304
Width: 1199
VWidth: 2088
Flags: W
LayerCount: 2
Fore
SplineSet
820 -22 m 2,0,1
 956 -22 956 -22 977 136 c 1,2,-1
 984 192 l 1,3,-1
 1082 192 l 1,4,-1
 1073 -190 l 1,5,-1
 66 -190 l 1,6,-1
 66 -102 l 1,7,-1
 502 568 l 1,8,-1
 104 1151 l 1,9,-1
 104 1223 l 1,10,-1
 998 1223 l 1,11,-1
 1006 913 l 1,12,-1
 908 913 l 1,13,-1
 900 992 l 1,14,15
 873 1126 873 1126 751 1126 c 2,16,-1
 323 1126 l 1,17,-1
 652 626 l 1,18,-1
 652 565 l 1,19,-1
 268 -22 l 1,20,-1
 820 -22 l 2,0,1
EndSplineSet
EndChar

StartChar: minus
Encoding: 8722 8722 305
Width: 986
VWidth: 2088
Flags: W
LayerCount: 2
Fore
SplineSet
929 894 m 1,0,-1
 929 769 l 1,1,-1
 60 769 l 1,2,-1
 60 894 l 1,3,-1
 929 894 l 1,0,-1
EndSplineSet
EndChar

StartChar: radical
Encoding: 8730 8730 306
Width: 727
VWidth: 2088
Flags: W
LayerCount: 2
Fore
SplineSet
440 0 m 1,0,-1
 346 0 l 1,1,-1
 155 544 l 1,2,-1
 41 544 l 1,3,-1
 41 625 l 1,4,-1
 242 625 l 1,5,-1
 403 170 l 1,6,-1
 722 1223 l 1,7,-1
 814 1223 l 1,8,-1
 440 0 l 1,0,-1
EndSplineSet
EndChar

StartChar: infinity
Encoding: 8734 8734 307
Width: 1536
VWidth: 2088
Flags: W
LayerCount: 2
Fore
SplineSet
417 1049 m 1,0,1
 644 1049 644 1049 782 791 c 1,2,3
 916 1042 916 1042 1125 1042 c 0,4,5
 1272 1042 1272 1042 1365.5 928.5 c 128,-1,6
 1459 815 1459 815 1459 634 c 128,-1,7
 1459 453 1459 453 1365 333 c 128,-1,8
 1271 213 1271 213 1123 213 c 0,9,10
 902 213 902 213 753 479 c 1,11,12
 619 219 619 219 417 219 c 0,13,14
 268 219 268 219 172.5 331 c 128,-1,15
 77 443 77 443 77 628 c 128,-1,16
 77 813 77 813 172 931.5 c 128,-1,17
 267 1050 267 1050 417 1049 c 1,0,1
845 628 m 1,18,19
 906 486 906 486 971 414.5 c 128,-1,20
 1036 343 1036 343 1130 343 c 128,-1,21
 1224 343 1224 343 1282.5 424.5 c 128,-1,22
 1341 506 1341 506 1341 628 c 0,23,24
 1341 750 1341 750 1280.5 831 c 128,-1,25
 1220 912 1220 912 1130.5 912 c 128,-1,26
 1041 912 1041 912 976 841 c 128,-1,27
 911 770 911 770 845 628 c 1,18,19
318 374 m 0,28,29
 358 351 358 351 424 349 c 0,30,31
 563 349 563 349 691 634 c 1,32,33
 632 774 632 774 565 846.5 c 128,-1,34
 498 919 498 919 406 919 c 128,-1,35
 314 919 314 919 255.5 835.5 c 128,-1,36
 197 752 197 752 197 632 c 0,37,38
 197 442 197 442 318 374 c 0,28,29
EndSplineSet
EndChar

StartChar: integral
Encoding: 8747 8747 308
Width: 936
VWidth: 2088
Flags: W
LayerCount: 2
Fore
SplineSet
683 1242 m 0,0,1
 891 1242 891 1242 891 1116 c 0,2,3
 891 1016 891 1016 754 1016 c 1,4,5
 754 1085 754 1085 744 1108 c 0,6,7
 724 1152 724 1152 679.5 1152 c 128,-1,8
 635 1152 635 1152 613 1114 c 0,9,10
 551 1010 551 1010 551 606 c 128,-1,11
 551 202 551 202 538 71 c 0,12,13
 519 -130 519 -130 450 -234.5 c 128,-1,14
 381 -339 381 -339 229 -339 c 0,15,16
 32 -339 32 -339 32 -213 c 0,17,18
 32 -112 32 -112 167 -112 c 1,19,20
 168 -214 168 -214 206 -239 c 0,21,22
 222 -250 222 -250 261 -250 c 0,23,24
 339 -250 339 -250 356 -101 c 1,25,26
 371 4 371 4 371 315 c 128,-1,27
 371 626 371 626 381 772 c 0,28,29
 412 1241 412 1241 683 1242 c 0,0,1
EndSplineSet
EndChar

StartChar: approxequal
Encoding: 8776 8776 309
Width: 1218
VWidth: 2088
Flags: W
LayerCount: 2
Fore
SplineSet
573 953 m 0,0,1
 502 1017 502 1017 464.5 1043 c 128,-1,2
 427 1069 427 1069 375 1069 c 0,3,4
 271 1069 271 1069 246 817 c 1,5,-1
 120 817 l 1,6,7
 135 990 135 990 174 1059 c 0,8,9
 249 1196 249 1196 372 1197 c 0,10,11
 458 1197 458 1197 524 1156 c 128,-1,12
 590 1115 590 1115 653 1057 c 128,-1,13
 716 999 716 999 754.5 972 c 128,-1,14
 793 945 793 945 844 945 c 128,-1,15
 895 945 895 945 923 1011 c 128,-1,16
 951 1077 951 1077 966 1197 c 1,17,-1
 1097 1197 l 1,18,19
 1079 1025 1079 1025 1038 954 c 0,20,21
 960 817 960 817 840.5 817 c 128,-1,22
 721 817 721 817 573 953 c 0,0,1
573 492 m 0,23,24
 478 579 478 579 443 592.5 c 128,-1,25
 408 606 408 606 384 606 c 0,26,27
 320 606 320 606 290 544.5 c 0,28,29
 260 484 260 484 246 354 c 1,30,-1
 120 354 l 1,31,32
 135 528 135 528 174 597 c 0,33,34
 250 734 250 734 372 734 c 0,35,36
 458 734 458 734 518 696.5 c 128,-1,37
 578 659 578 659 650 595 c 128,-1,38
 722 531 722 531 757.5 507 c 128,-1,39
 793 483 793 483 844 483 c 128,-1,40
 895 483 895 483 923 548 c 128,-1,41
 951 613 951 613 966 734 c 1,42,-1
 1097 734 l 1,43,44
 1079 561 1079 561 1038 493 c 0,45,46
 960 355 960 355 840.5 355 c 128,-1,47
 721 355 721 355 573 492 c 0,23,24
EndSplineSet
EndChar

StartChar: notequal
Encoding: 8800 8800 310
Width: 1214
VWidth: 2088
Flags: W
LayerCount: 2
Fore
SplineSet
615 1053 m 1,0,-1
 676 1286 l 1,1,-1
 802 1286 l 1,2,-1
 740 1053 l 1,3,-1
 1074 1053 l 1,4,-1
 1074 925 l 1,5,-1
 709 925 l 1,6,-1
 630 626 l 1,7,-1
 1074 626 l 1,8,-1
 1074 498 l 1,9,-1
 598 498 l 1,10,-1
 538 266 l 1,11,-1
 410 266 l 1,12,-1
 472 498 l 1,13,-1
 140 498 l 1,14,-1
 140 626 l 1,15,-1
 504 626 l 1,16,-1
 583 925 l 1,17,-1
 140 925 l 1,18,-1
 140 1053 l 1,19,-1
 615 1053 l 1,0,-1
EndSplineSet
EndChar

StartChar: lessequal
Encoding: 8804 8804 311
Width: 1214
VWidth: 2088
Flags: W
LayerCount: 2
Fore
SplineSet
140 738 m 1,0,-1
 140 815 l 1,1,-1
 1074 1317 l 1,2,-1
 1074 1171 l 1,3,-1
 343 776 l 1,4,-1
 1074 384 l 1,5,-1
 1074 238 l 1,6,-1
 140 738 l 1,0,-1
1074 0 m 1,7,-1
 140 0 l 1,8,-1
 140 128 l 1,9,-1
 1074 128 l 1,10,-1
 1074 0 l 1,7,-1
EndSplineSet
EndChar

StartChar: greaterequal
Encoding: 8805 8805 312
Width: 1214
VWidth: 2088
Flags: W
LayerCount: 2
Fore
SplineSet
140 238 m 1,0,-1
 140 384 l 1,1,-1
 872 776 l 1,2,-1
 140 1171 l 1,3,-1
 140 1317 l 1,4,-1
 1074 815 l 1,5,-1
 1074 738 l 1,6,-1
 140 238 l 1,0,-1
1074 0 m 1,7,-1
 140 0 l 1,8,-1
 140 128 l 1,9,-1
 1074 128 l 1,10,-1
 1074 0 l 1,7,-1
EndSplineSet
EndChar

StartChar: lozenge
Encoding: 9674 9674 313
Width: 1189
VWidth: 2088
Flags: W
LayerCount: 2
Fore
SplineSet
638 0 m 1,0,-1
 551 0 l 1,1,-1
 65 774 l 1,2,-1
 551 1550 l 1,3,-1
 638 1550 l 1,4,-1
 1125 776 l 1,5,-1
 638 0 l 1,0,-1
598 1389 m 1,6,-1
 221 776 l 1,7,-1
 598 157 l 1,8,-1
 970 776 l 1,9,-1
 598 1389 l 1,6,-1
EndSplineSet
EndChar

StartChar: uniFB01
Encoding: 64257 64257 314
Width: 1090
VWidth: 2088
Flags: W
LayerCount: 2
Fore
SplineSet
441 1117 m 0,0,1
 355 1117 355 1117 356 991 c 2,2,-1
 356 853 l 1,3,-1
 913 853 l 1,4,-1
 913 123 l 1,5,-1
 1057 123 l 1,6,-1
 1057 0 l 1,7,-1
 612 0 l 1,8,-1
 612 123 l 1,9,-1
 754 123 l 1,10,-1
 754 731 l 1,11,-1
 356 731 l 1,12,-1
 356 123 l 1,13,-1
 528 123 l 1,14,-1
 528 0 l 1,15,-1
 70 0 l 1,16,-1
 70 123 l 1,17,-1
 196 123 l 1,18,-1
 196 731 l 1,19,-1
 60 731 l 1,20,-1
 60 853 l 1,21,-1
 196 853 l 1,22,-1
 196 1001 l 2,23,24
 196 1178 196 1178 342 1226 c 0,25,26
 436 1256 436 1256 522 1230 c 0,27,28
 559 1219 559 1219 589 1193 c 1,29,30
 655 1135 655 1135 653 1022 c 1,31,-1
 515 1022 l 1,32,33
 515 1097 515 1097 466 1113 c 0,34,35
 451 1117 451 1117 441 1117 c 0,0,1
736 1131 m 0,36,37
 736 1193 736 1193 796 1216 c 1,38,39
 859 1238 859 1238 894.5 1204 c 128,-1,40
 930 1170 930 1170 930 1131 c 128,-1,41
 930 1092 930 1092 902.5 1065 c 128,-1,42
 875 1038 875 1038 833 1038 c 128,-1,43
 791 1038 791 1038 763.5 1065 c 128,-1,44
 736 1092 736 1092 736 1131 c 0,36,37
EndSplineSet
EndChar

StartChar: uniFB02
Encoding: 64258 64258 315
Width: 1069
VWidth: 2088
Flags: W
LayerCount: 2
Fore
SplineSet
595 0 m 1,0,-1
 595 123 l 1,1,-1
 737 123 l 1,2,-1
 737 1100 l 1,3,-1
 441 1100 l 2,4,5
 399 1100 399 1100 386 1087 c 1,6,7
 357 1061 357 1061 356 991 c 2,8,-1
 356 853 l 1,9,-1
 539 853 l 1,10,-1
 539 731 l 1,11,-1
 356 731 l 1,12,-1
 356 123 l 1,13,-1
 501 123 l 1,14,-1
 501 0 l 1,15,-1
 70 0 l 1,16,-1
 70 123 l 1,17,-1
 196 123 l 1,18,-1
 196 731 l 1,19,-1
 60 731 l 1,20,-1
 60 853 l 1,21,-1
 196 853 l 1,22,-1
 196 1001 l 2,23,24
 196 1223 196 1223 443 1223 c 2,25,-1
 896 1223 l 1,26,-1
 896 123 l 1,27,-1
 1036 123 l 1,28,-1
 1036 0 l 1,29,-1
 595 0 l 1,0,-1
EndSplineSet
EndChar

StartChar: glyph316
Encoding: 65539 -1 316
Width: 629
VWidth: 2088
Flags: W
LayerCount: 2
Fore
SplineSet
62 950 m 1,0,-1
 166 1242 l 1,1,-1
 457 1242 l 1,2,-1
 568 950 l 1,3,-1
 410 950 l 1,4,-1
 312 1195 l 1,5,-1
 213 950 l 1,6,-1
 62 950 l 1,0,-1
EndSplineSet
EndChar

StartChar: glyph317
Encoding: 65540 -1 317
Width: 455
VWidth: 2088
Flags: W
LayerCount: 2
Fore
SplineSet
107 593 m 1,0,-1
 347 593 l 1,1,-1
 347 370 l 2,2,3
 347 179 347 179 220 133 c 1,4,5
 175 116 175 116 107 117 c 1,6,-1
 107 210 l 1,7,8
 181 224 181 224 208 259.5 c 128,-1,9
 235 295 235 295 235 370 c 1,10,-1
 107 370 l 1,11,-1
 107 593 l 1,0,-1
EndSplineSet
EndChar

StartChar: glyph320
Encoding: 65543 -1 320
Width: 594
VWidth: 2088
Flags: W
LayerCount: 2
Fore
SplineSet
310 971 m 1,0,-1
 111 1242 l 1,1,-1
 330 1242 l 1,2,-1
 435 971 l 1,3,-1
 310 971 l 1,0,-1
EndSplineSet
EndChar

StartChar: glyph321
Encoding: 65544 -1 321
Width: 594
VWidth: 2088
Flags: W
LayerCount: 2
Fore
SplineSet
176 971 m 1,0,-1
 281 1242 l 1,1,-1
 500 1242 l 1,2,-1
 301 971 l 1,3,-1
 176 971 l 1,0,-1
EndSplineSet
EndChar

StartChar: glyph322
Encoding: 65545 -1 322
Width: 606
VWidth: 2088
Flags: W
LayerCount: 2
Fore
SplineSet
554 1168 m 1,0,-1
 554 1006 l 1,1,-1
 394 1006 l 1,2,-1
 394 1168 l 1,3,-1
 554 1168 l 1,0,-1
224 1168 m 1,4,-1
 224 1006 l 1,5,-1
 62 1006 l 1,6,-1
 62 1168 l 1,7,-1
 224 1168 l 1,4,-1
EndSplineSet
EndChar

StartChar: glyph323
Encoding: 65546 -1 323
Width: 629
VWidth: 2088
Flags: W
LayerCount: 2
Fore
SplineSet
155 1242 m 1,0,-1
 317 1080 l 1,1,-1
 479 1242 l 1,2,-1
 589 1242 l 1,3,-1
 420 967 l 1,4,-1
 212 967 l 1,5,-1
 40 1242 l 1,6,-1
 155 1242 l 1,0,-1
EndSplineSet
EndChar

StartChar: glyph324
Encoding: 65547 -1 324
Width: 598
VWidth: 2088
Flags: W
LayerCount: 2
Fore
SplineSet
171.5 1226.5 m 128,-1,1
 222 1275 222 1275 298.5 1275 c 128,-1,2
 375 1275 375 1275 427 1226.5 c 128,-1,3
 479 1178 479 1178 479.5 1105.5 c 128,-1,4
 480 1033 480 1033 427 984 c 128,-1,5
 374 935 374 935 298.5 934.5 c 128,-1,6
 223 934 223 934 172 983.5 c 128,-1,7
 121 1033 121 1033 121 1105.5 c 128,-1,0
 121 1178 121 1178 171.5 1226.5 c 128,-1,1
342 1201 m 1,8,9
 322 1210 322 1210 288 1210 c 128,-1,10
 254 1210 254 1210 221 1179.5 c 128,-1,11
 188 1149 188 1149 188.5 1104.5 c 128,-1,12
 189 1060 189 1060 220.5 1031 c 128,-1,13
 252 1002 252 1002 299 1001 c 1,14,15
 373 1001 373 1001 401 1064 c 0,16,17
 409 1083 409 1083 409 1106 c 0,18,19
 409 1176 409 1176 342 1201 c 1,8,9
EndSplineSet
EndChar

StartChar: glyph325
Encoding: 65548 -1 325
Width: 622
VWidth: 2088
Flags: W
LayerCount: 2
Fore
SplineSet
-11 1039 m 1,0,1
 7 1261 7 1261 186 1261 c 0,2,3
 231 1261 231 1261 332.5 1224.5 c 128,-1,4
 434 1188 434 1188 471 1188 c 0,5,6
 537 1188 537 1188 551 1255 c 1,7,-1
 634 1255 l 1,8,9
 626 1149 626 1149 577 1089.5 c 128,-1,10
 528 1030 528 1030 453.5 1030.5 c 128,-1,11
 379 1031 379 1031 281.5 1068.5 c 128,-1,12
 184 1106 184 1106 144 1106 c 0,13,14
 84 1106 84 1106 74 1039 c 1,15,-1
 -11 1039 l 1,0,1
EndSplineSet
EndChar

StartChar: glyph326
Encoding: 65549 -1 326
Width: 566
VWidth: 2088
Flags: W
LayerCount: 2
Fore
SplineSet
285 1194 m 0,0,1
 350 1194 350 1194 374 1137 c 0,2,3
 381 1120 381 1120 381 1102 c 0,4,5
 382 1040 382 1040 322 1015 c 0,6,7
 306 1008 306 1008 276 1008 c 0,8,9
 246 1008 246 1008 217 1035.5 c 128,-1,10
 188 1063 188 1063 188 1102 c 0,11,12
 187 1140 187 1140 216 1167 c 128,-1,13
 245 1194 245 1194 285 1194 c 0,0,1
EndSplineSet
EndChar

